{
.appVersion = "1296";
DisplayStrings = (
"/space R/space/space/space/space/space \012",
"RK\012RK\012"
);
copyright = "Copyright (c) 2019 by Juan Pablo del Peral. All rights reserved.";
customParameters = (
{
name = Axes;
value = (
{
Name = Weight;
Tag = wght;
},
{
Name = "Optical size";
Tag = opsz;
}
);
},
{
name = vendorID;
value = HT;
},
{
name = "Use Typo Metrics";
value = 1;
},
{
name = "Use Line Breaks";
value = 1;
},
{
name = "EditView Line Height";
value = 1200;
},
{
name = "Variable Font Origin";
value = "0E5388DE-A0E6-4EB4-BC9B-CE5870C9023F";
},
{
name = "Enforce Compatibility Check";
value = 1;
},
{
name = "Variable Font Family Name";
value = "Piazzolla Variable";
}
);
date = "2018-06-26 18:08:42 +0000";
designer = "Juan Pablo del Peral";
designerURL = "https://www.huertatipografica.com";
familyName = Piazzolla;
featurePrefixes = (
{
automatic = 1;
code = "languagesystem DFLT dflt;
";
name = Languagesystems;
}
);
features = (
{
automatic = 1;
code = "feature sups;
feature frac;
feature ordn;
";
name = aalt;
},
{
automatic = 1;
code = "sub one by onesuperior;
sub two by twosuperior;
sub three by threesuperior;
";
name = sups;
},
{
automatic = 1;
code = "sub one slash four by onequarter;
sub one slash two by onehalf;
sub three slash four by threequarters;
";
name = frac;
},
{
automatic = 1;
code = "sub [zero one two three four five six seven eight nine] [A a]' by ordfeminine;
sub [zero one two three four five six seven eight nine] [O o]' by ordmasculine;
";
name = ordn;
}
);
fontMaster = (
{
alignmentZones = (
"{725, 15}",
"{644, 15}",
"{592, 15}",
"{517, 15}",
"{478, 15}",
"{0, -15}",
"{-195, -15}"
);
ascender = 725;
capHeight = 644;
custom = Thin;
customParameters = (
{
name = paramArea;
value = "460";
},
{
name = paramDepth;
value = "27";
},
{
name = paramOver;
value = "8";
},
{
name = smallCapHeight;
value = 517;
},
{
name = underlineThickness;
value = 24;
},
{
name = underlinePosition;
value = -195;
},
{
name = strikeoutSize;
value = 24;
},
{

glyphs = (
{
color = 4;
glyphname = A;
lastChange = "2020-01-24 22:47:58 +0000";
layers = (
{
anchors = (
{
name = bottom;
position = "{325, 0}";
},
{
name = ogonek;
position = "{716, 0}";
},
{
name = top;
position = "{355, 688}";
}
);
layerId = "A6FDB8B9-512B-4F31-B986-CD5B604F5662";
paths = (
{
closed = 1;
nodes = (
"483 688 LINE",
"225 688 LINE",
"34 122 LINE",
"-35 76 LINE",
"-35 0 LINE",
"286 0 LINE",
"286 80 LINE",
"258 95 OFFCURVE",
"230 109 OFFCURVE",
"200 120 CURVE",
"343 618 LINE",
"290 618 LINE",
"430 109 LINE",
"355 76 LINE",
"355 0 LINE",
"746 0 LINE",
"746 80 LINE",
"726 90 OFFCURVE",
"705 100 OFFCURVE",
"684 108 CURVE"
);
},
{
closed = 1;
nodes = (
"565 165 LINE",
"565 283 LINE",
"136 283 LINE",
"136 165 LINE"
);
}
);
width = 712;
},
{
anchors = (
{
name = bottom;
position = "{352, 0}";
},
{
name = ogonek;
position = "{649, 10}";
},
{
name = top;
position = "{352, 644}";
}
);
layerId = "0E5388DE-A0E6-4EB4-BC9B-CE5870C9023F";
paths = (
{
closed = 1;
nodes = (
"374 644 LINE",
"334 644 LINE",
"94 26 LINE",
"26 12 LINE",
"26 0 LINE",
"259 0 LINE",
"259 10 LINE",
"215 17 OFFCURVE",
"172 22 OFFCURVE",
"127 26 CURVE",
"357 627 LINE",
"347 627 LINE",
"568 26 LINE",
"455 12 LINE",
"455 0 LINE",
"679 0 LINE",
"679 10 LINE",
"655 16 OFFCURVE",
"630 21 OFFCURVE",
"605 25 CURVE"
);
},
{
closed = 1;
nodes = (
"501 235 LINE",
"501 265 LINE",
"197 265 LINE",
"197 235 LINE"
);
}
);
width = 705;
}
);
leftKerningGroup = A;
rightKerningGroup = A;
unicode = 0041;
},
{
color = 4;
glyphname = Aacute;
lastChange = "2020-01-24 22:38:29 +0000";
layers = (
{
anchors = (
{
name = top;
position = "{352, 869}";
}
);
components = (
{
name = A;
}
);
layerId = "0E5388DE-A0E6-4EB4-BC9B-CE5870C9023F";
paths = (
{
closed = 1;
nodes = (
"346 767 OFFCURVE",
"404 805 OFFCURVE",
"459 847 CURVE",
"443 869 LINE",
"437 869 LINE",
"281 740 LINE",
"287 731 LINE"
);
}
);
width = 705;
},
{
anchors = (
{
name = top;
position = "{355, 925}";
}
);
components = (
{
name = A;
}
);
layerId = "A6FDB8B9-512B-4F31-B986-CD5B604F5662";
paths = (
{
closed = 1;
nodes = (
"339 763 OFFCURVE",
"431 797 OFFCURVE",
"522 839 CURVE",
"448 986 LINE",
"421 986 LINE",
"202 808 LINE",
"244 735 LINE"
);
}
);
width = 712;
}
);
leftKerningGroup = A;
rightKerningGroup = A;
unicode = 00C1;
},
{
color = 4;
glyphname = Adieresis;
lastChange = "2020-01-24 22:38:29 +0000";
layers = (
{
anchors = (
{
name = top;
position = "{352, 834}";
}
);
components = (
{
name = A;
}
);
layerId = "0E5388DE-A0E6-4EB4-BC9B-CE5870C9023F";
paths = (
{
closed = 1;
nodes = (
"275 831 OFFCURVE",
"261 822 OFFCURVE",
"250 811 CURVE",
"254 796 OFFCURVE",
"263 783 OFFCURVE",
"273 772 CURVE",
"288 774 OFFCURVE",
"303 783 OFFCURVE",
"312 793 CURVE",
"310 808 OFFCURVE",
"302 823 OFFCURVE",
"291 834 CURVE"
);
},
{
closed = 1;
nodes = (
"417 831 OFFCURVE",
"402 822 OFFCURVE",
"392 811 CURVE",
"396 796 OFFCURVE",
"403 783 OFFCURVE",
"415 772 CURVE",
"430 774 OFFCURVE",
"444 783 OFFCURVE",
"454 793 CURVE",
"452 808 OFFCURVE",
"443 823 OFFCURVE",
"433 834 CURVE"
);
}
);
width = 705;
},
{
anchors = (
{
name = top;
position = "{355, 980}";
}
);
components = (
{
name = A;
}
);
layerId = "A6FDB8B9-512B-4F31-B986-CD5B604F5662";
paths = (
{
closed = 1;
nodes = (
"205 971 OFFCURVE",
"152 938 OFFCURVE",
"114 899 CURVE",
"124 841 OFFCURVE",
"157 785 OFFCURVE",
"199 752 CURVE",
"253 759 OFFCURVE",
"309 793 OFFCURVE",
"344 835 CURVE",
"336 890 OFFCURVE",
"304 942 OFFCURVE",
"261 980 CURVE"
);
},
{
closed = 1;
nodes = (
"456 971 OFFCURVE",
"403 938 OFFCURVE",
"365 899 CURVE",
"374 841 OFFCURVE",
"407 785 OFFCURVE",
"449 752 CURVE",
"504 759 OFFCURVE",
"560 793 OFFCURVE",
"595 835 CURVE",
"586 890 OFFCURVE",
"553 942 OFFCURVE",
"511 980 CURVE"
);
}
);
width = 712;
}
);
leftKerningGroup = A;
rightKerningGroup = A;
unicode = 00C4;
},
{
color = 4;
glyphname = Agrave;
lastChange = "2020-01-24 22:38:29 +0000";
layers = (
{
anchors = (
{
name = top;
position = "{352, 869}";
}
);
components = (
{
name = A;
}
);
layerId = "0E5388DE-A0E6-4EB4-BC9B-CE5870C9023F";
paths = (
{
closed = 1;
nodes = (
"441 740 LINE",
"285 869 LINE",
"279 869 LINE",
"263 847 LINE",
"318 805 OFFCURVE",
"376 767 OFFCURVE",
"435 731 CURVE"
);
}
);
width = 705;
},
{
anchors = (
{
name = top;
position = "{355, 986}";
}
);
components = (
{
name = A;
}
);
layerId = "A6FDB8B9-512B-4F31-B986-CD5B604F5662";
paths = (
{
closed = 1;
nodes = (
"515 808 LINE",
"296 986 LINE",
"269 986 LINE",
"195 839 LINE",
"286 797 OFFCURVE",
"378 763 OFFCURVE",
"473 735 CURVE"
);
}
);
width = 712;
}
);
leftKerningGroup = A;
rightKerningGroup = A;
unicode = 00C0;
},
{
color = 4;
glyphname = Aring;
lastChange = "2020-01-24 22:38:29 +0000";
layers = (
{
anchors = (
{
name = top;
position = "{352, 801}";
}
);
components = (
{
name = A;
}
);
layerId = "0E5388DE-A0E6-4EB4-BC9B-CE5870C9023F";
paths = (
{
closed = 1;
nodes = (
"392 733 OFFCURVE",
"421 762 OFFCURVE",
"421 802 CURVE SMOOTH",
"421 842 OFFCURVE",
"392 871 OFFCURVE",
"352 871 CURVE SMOOTH",
"312 871 OFFCURVE",
"283 842 OFFCURVE",
"283 802 CURVE SMOOTH",
"283 762 OFFCURVE",
"312 733 OFFCURVE",
"352 733 CURVE SMOOTH"
);
},
{
closed = 1;
nodes = (
"326 756 OFFCURVE",
"306 776 OFFCURVE",
"306 802 CURVE SMOOTH",
"306 828 OFFCURVE",
"326 848 OFFCURVE",
"352 848 CURVE SMOOTH",
"378 848 OFFCURVE",
"398 828 OFFCURVE",
"398 802 CURVE SMOOTH",
"398 776 OFFCURVE",
"378 756 OFFCURVE",
"352 756 CURVE SMOOTH"
);
}
);
width = 705;
},
{
anchors = (
{
name = top;
position = "{356, 973}";
}
);
components = (
{
name = A;
}
);
layerId = "A6FDB8B9-512B-4F31-B986-CD5B604F5662";
paths = (
{
closed = 1;
nodes = (
"439 724 OFFCURVE",
"501 786 OFFCURVE",
"501 870 CURVE SMOOTH",
"501 954 OFFCURVE",
"439 1016 OFFCURVE",
"355 1016 CURVE SMOOTH",
"271 1016 OFFCURVE",
"209 954 OFFCURVE",
"209 870 CURVE SMOOTH",
"209 786 OFFCURVE",
"271 724 OFFCURVE",
"355 724 CURVE SMOOTH"
);
},
{
closed = 1;
nodes = (
"319 808 OFFCURVE",
"293 834 OFFCURVE",
"293 870 CURVE SMOOTH",
"293 906 OFFCURVE",
"319 932 OFFCURVE",
"355 932 CURVE SMOOTH",
"391 932 OFFCURVE",
"417 906 OFFCURVE",
"417 870 CURVE SMOOTH",
"417 834 OFFCURVE",
"391 808 OFFCURVE",
"355 808 CURVE SMOOTH"
);
}
);
width = 712;
}
);
leftKerningGroup = A;
rightKerningGroup = A;
unicode = 00C5;
},
{
color = 4;
glyphname = Atilde;
lastChange = "2020-01-24 22:38:29 +0000";
layers = (
{
anchors = (
{
name = top;
position = "{352, 853}";
}
);
components = (
{
name = A;
}
);
layerId = "0E5388DE-A0E6-4EB4-BC9B-CE5870C9023F";
paths = (
{
closed = 1;
nodes = (
"286 807 LINE",
"394 778 LINE SMOOTH",
"415 772 OFFCURVE",
"425 769 OFFCURVE",
"482 846 CURVE",
"475 853 LINE",
"418 801 LINE",
"310 830 LINE SMOOTH",
"288 836 OFFCURVE",
"280 839 OFFCURVE",
"222 763 CURVE",
"229 755 LINE"
);
}
);
width = 705;
},
{
anchors = (
{
name = top;
position = "{355, 930}";
}
);
components = (
{
name = A;
}
);
layerId = "A6FDB8B9-512B-4F31-B986-CD5B604F5662";
paths = (
{
closed = 1;
nodes = (
"253 816 LINE",
"405 781 LINE SMOOTH",
"468 766 OFFCURVE",
"497 791 OFFCURVE",
"573 942 CURVE",
"529 980 LINE",
"456 926 LINE",
"305 961 LINE SMOOTH",
"250 974 OFFCURVE",
"221 969 OFFCURVE",
"136 800 CURVE",
"180 762 LINE"
);
}
);
width = 712;
}
);
leftKerningGroup = A;
rightKerningGroup = A;
unicode = 00C3;
},
{
color = 4;
glyphname = AE;
lastChange = "2020-01-24 22:38:29 +0000";
layers = (
{
anchors = (
{
name = bottom;
position = "{473, 0}";
},
{
name = top;
position = "{543, 644}";
}
);
layerId = "0E5388DE-A0E6-4EB4-BC9B-CE5870C9023F";
paths = (
{
closed = 1;
nodes = (
"801 30 LINE",
"573 30 LINE",
"590 17 LINE",
"420 627 LINE",
"411 614 LINE",
"774 614 LINE",
"804 460 LINE",
"812 460 LINE",
"812 644 LINE",
"251 644 LINE",
"251 633 LINE",
"363 617 LINE",
"77 27 LINE",
"27 12 LINE",
"27 0 LINE",
"239 0 LINE",
"239 10 LINE",
"196 17 OFFCURVE",
"154 22 OFFCURVE",
"110 26 CURVE",
"398 626 LINE",
"388 627 LINE",
"552 26 LINE",
"436 12 LINE",
"436 0 LINE",
"840 0 LINE",
"840 205 LINE",
"832 205 LINE"
);
},
{
closed = 1;
nodes = (
"726 232 LINE",
"726 441 LINE",
"719 441 LINE",
"686 336 LINE",
"719 232 LINE"
);
},
{
closed = 1;
nodes = (
"505 235 LINE",
"505 265 LINE",
"201 265 LINE",
"201 235 LINE"
);
},
{
closed = 1;
nodes = (
"715 321 LINE",
"715 351 LINE",
"486 351 LINE",
"486 321 LINE"
);
}
);
width = 938;
},
{
anchors = (
{
name = bottom;
position = "{501, 0}";
},
{
name = top;
position = "{600, 688}";
}
);
layerId = "A6FDB8B9-512B-4F31-B986-CD5B604F5662";
paths = (
{
closed = 1;
nodes = (
"849 132 LINE",
"566 132 LINE",
"684 36 LINE",
"555 652 LINE",
"477 556 LINE",
"820 556 LINE",
"868 452 LINE",
"957 452 LINE",
"957 688 LINE",
"136 688 LINE",
"136 608 LINE",
"233 576 LINE",
"23 120 LINE",
"-36 74 LINE",
"-36 0 LINE",
"262 0 LINE",
"262 77 LINE",
"239 90 OFFCURVE",
"215 101 OFFCURVE",
"190 111 CURVE",
"406 636 LINE",
"353 642 LINE",
"439 115 LINE",
"345 74 LINE",
"345 0 LINE",
"990 0 LINE",
"990 255 LINE",
"901 255 LINE"
);
},
{
closed = 1;
nodes = (
"814 209 LINE",
"814 479 LINE",
"733 479 LINE",
"665 344 LINE",
"733 209 LINE"
);
},
{
closed = 1;
nodes = (
"560 165 LINE",
"562 283 LINE",
"149 283 LINE",
"147 165 LINE"
);
},
{
closed = 1;
nodes = (
"782 283 LINE",
"784 412 LINE",
"512 412 LINE",
"511 283 LINE"
);
}
);
width = 1024;
}
);
leftKerningGroup = A;
rightKerningGroup = E;
unicode = 00C6;
},
{
color = 4;
glyphname = B;
lastChange = "2020-01-24 22:38:29 +0000";
layers = (
{
anchors = (
{
name = bottom;
position = "{366, 0}";
},
{
name = top;
position = "{366, 688}";
}
);
layerId = "A6FDB8B9-512B-4F31-B986-CD5B604F5662";
paths = (
{
closed = 1;
nodes = (
"646 383 OFFCURVE",
"701 445 OFFCURVE",
"701 525 CURVE SMOOTH",
"701 629 OFFCURVE",
"608 688 OFFCURVE",
"445 688 CURVE SMOOTH",
"9 688 LINE",
"9 605 LINE",
"102 572 LINE",
"89 112 LINE",
"53 98 OFFCURVE",
"30 88 OFFCURVE",
"9 76 CURVE",
"9 0 LINE",
"433 0 LINE SMOOTH",
"617 0 OFFCURVE",
"723 69 OFFCURVE",
"723 189 CURVE SMOOTH",
"723 275 OFFCURVE",
"668 329 OFFCURVE",
"554 354 CURVE"
);
},
{
closed = 1;
nodes = (
"323 654 LINE",
"225 556 LINE",
"385 556 LINE SMOOTH",
"437 556 OFFCURVE",
"464 531 OFFCURVE",
"464 482 CURVE SMOOTH",
"464 452 OFFCURVE",
"452 428 OFFCURVE",
"427 406 CURVE",
"307 406 LINE",
"307 274 LINE",
"416 274 LINE SMOOTH",
"462 274 OFFCURVE",
"486 250 OFFCURVE",
"486 203 CURVE SMOOTH",
"486 169 OFFCURVE",
"475 147 OFFCURVE",
"448 131 CURVE",
"225 131 LINE",
"323 33 LINE"
);
}
);
width = 741;
},
{
anchors = (
{
name = bottom;
position = "{333, 0}";
},
{
name = top;
position = "{333, 644}";
}
);
layerId = "0E5388DE-A0E6-4EB4-BC9B-CE5870C9023F";
paths = (
{
closed = 1;
nodes = (
"499 362 OFFCURVE",
"555 424 OFFCURVE",
"555 498 CURVE SMOOTH",
"555 585 OFFCURVE",
"481 644 OFFCURVE",
"371 644 CURVE SMOOTH",
"48 644 LINE",
"48 633 LINE",
"173 615 LINE",
"165 29 LINE",
"107 27 OFFCURVE",
"70 21 OFFCURVE",
"48 10 CURVE",
"48 0 LINE",
"363 0 LINE SMOOTH",
"501 0 OFFCURVE",
"588 68 OFFCURVE",
"588 175 CURVE SMOOTH",
"588 256 OFFCURVE",
"520 319 OFFCURVE",
"414 337 CURVE"
);
},
{
closed = 1;
nodes = (
"203 627 LINE",
"190 614 LINE",
"368 614 LINE SMOOTH",
"463 614 OFFCURVE",
"522 567 OFFCURVE",
"522 492 CURVE SMOOTH",
"522 426 OFFCURVE",
"474 377 OFFCURVE",
"381 348 CURVE",
"196 348 LINE",
"196 318 LINE",
"360 318 LINE SMOOTH",
"476 318 OFFCURVE",
"554 258 OFFCURVE",
"554 170 CURVE SMOOTH",
"554 99 OFFCURVE",
"503 47 OFFCURVE",
"419 30 CURVE",
"190 30 LINE",
"203 17 LINE"
);
}
);
width = 666;
}
);
leftKerningGroup = H;
rightKerningGroup = B;
unicode = 0042;
},
{
color = 4;
glyphname = C;
lastChange = "2020-01-24 22:38:29 +0000";
layers = (
{
anchors = (
{
name = bottom;
position = "{375, 0}";
},
{
name = top;
position = "{375, 688}";
}
);
layerId = "A6FDB8B9-512B-4F31-B986-CD5B604F5662";
paths = (
{
closed = 1;
nodes = (
"433 -14 OFFCURVE",
"515 -1 OFFCURVE",
"610 25 CURVE",
"541 181 LINE",
"474 152 OFFCURVE",
"421 137 OFFCURVE",
"379 137 CURVE SMOOTH",
"290 137 OFFCURVE",
"254 203 OFFCURVE",
"254 341 CURVE SMOOTH",
"254 419 OFFCURVE",
"265 483 OFFCURVE",
"289 546 CURVE",
"300 546 OFFCURVE",
"311 547 OFFCURVE",
"322 547 CURVE SMOOTH",
"408 547 OFFCURVE",
"484 533 OFFCURVE",
"554 511 CURVE",
"610 673 LINE",
"529 693 OFFCURVE",
"451 703 OFFCURVE",
"388 703 CURVE SMOOTH",
"153 703 OFFCURVE",
"15 568 OFFCURVE",
"15 337 CURVE SMOOTH",
"15 115 OFFCURVE",
"143 -14 OFFCURVE",
"362 -14 CURVE SMOOTH"
);
},
{
closed = 1;
nodes = (
"610 25 LINE",
"610 266 LINE",
"512 266 LINE",
"399 21 LINE"
);
},
{
closed = 1;
nodes = (
"610 433 LINE",
"610 673 LINE",
"400 676 LINE",
"512 433 LINE"
);
}
);
width = 663;
},
{
anchors = (
{
name = bottom;
position = "{386, 0}";
},
{
name = top;
position = "{386, 644}";
}
);
layerId = "0E5388DE-A0E6-4EB4-BC9B-CE5870C9023F";
paths = (
{
closed = 1;
nodes = (
"441 -6 OFFCURVE",
"495 1 OFFCURVE",
"558 16 CURVE",
"553 48 LINE",
"496 32 OFFCURVE",
"444 25 OFFCURVE",
"397 25 CURVE SMOOTH",
"221 25 OFFCURVE",
"114 130 OFFCURVE",
"114 316 CURVE SMOOTH",
"114 411 OFFCURVE",
"141 497 OFFCURVE",
"193 570 CURVE",
"261 603 OFFCURVE",
"332 620 OFFCURVE",
"405 620 CURVE SMOOTH",
"454 620 OFFCURVE",
"504 612 OFFCURVE",
"553 597 CURVE",
"558 632 LINE",
"504 646 OFFCURVE",
"450 653 OFFCURVE",
"403 653 CURVE SMOOTH",
"203 653 OFFCURVE",
"80 527 OFFCURVE",
"80 321 CURVE SMOOTH",
"80 109 OFFCURVE",
"190 -6 OFFCURVE",
"391 -6 CURVE SMOOTH"
);
},
{
closed = 1;
nodes = (
"558 16 LINE",
"558 197 LINE",
"550 197 LINE",
"512 16 LINE"
);
},
{
closed = 1;
nodes = (
"558 451 LINE",
"558 632 LINE",
"512 632 LINE",
"550 451 LINE"
);
}
);
width = 666;
}
);
leftKerningGroup = O;
rightKerningGroup = C;
unicode = 0043;
},
{
color = 4;
glyphname = Ccedilla;
lastChange = "2020-01-24 22:38:29 +0000";
layers = (
{
anchors = (
{
name = _bottom;
position = "{386, 0}";
},
{
name = bottom;
position = "{407, -206}";
}
);
components = (
{
name = C;
}
);
layerId = "0E5388DE-A0E6-4EB4-BC9B-CE5870C9023F";
paths = (
{
closed = 1;
nodes = (
"412 -225 OFFCURVE",
"494 -198 OFFCURVE",
"494 -137 CURVE SMOOTH",
"494 -96 OFFCURVE",
"456 -70 OFFCURVE",
"372 -48 CURVE",
"360 -71 LINE",
"436 -94 OFFCURVE",
"468 -114 OFFCURVE",
"468 -140 CURVE SMOOTH",
"468 -156 OFFCURVE",
"458 -173 OFFCURVE",
"444 -182 CURVE",
"402 -181 OFFCURVE",
"365 -176 OFFCURVE",
"322 -166 CURVE",
"319 -192 LINE"
);
},
{
closed = 1;
nodes = (
"360 -71 LINE",
"383 -71 LINE",
"401 11 LINE",
"378 11 LINE"
);
}
);
width = 666;
},
{
anchors = (
{
name = _bottom;
position = "{375, 0}";
},
{
name = bottom;
position = "{398, -259}";
}
);
components = (
{
name = C;
}
);
layerId = "A6FDB8B9-512B-4F31-B986-CD5B604F5662";
paths = (
{
closed = 1;
nodes = (
"409 -286 OFFCURVE",
"534 -241 OFFCURVE",
"534 -144 CURVE SMOOTH",
"534 -81 OFFCURVE",
"484 -44 OFFCURVE",
"359 -17 CURVE",
"312 -110 LINE",
"416 -145 OFFCURVE",
"425 -150 OFFCURVE",
"425 -163 CURVE SMOOTH",
"425 -164 OFFCURVE",
"425 -166 OFFCURVE",
"424 -168 CURVE",
"371 -162 OFFCURVE",
"319 -148 OFFCURVE",
"270 -129 CURVE",
"259 -241 LINE"
);
},
{
closed = 1;
nodes = (
"312 -110 LINE",
"389 -110 LINE",
"422 19 LINE",
"343 19 LINE"
);
}
);
width = 663;
}
);
leftKerningGroup = O;
rightKerningGroup = C;
unicode = 00C7;
},
{
color = 4;
glyphname = D;
lastChange = "2020-01-24 22:38:29 +0000";
layers = (
{
anchors = (
{
name = bottom;
position = "{386, 0}";
},
{
name = center;
position = "{216, 344}";
},
{
name = top;
position = "{386, 688}";
}
);
layerId = "A6FDB8B9-512B-4F31-B986-CD5B604F5662";
paths = (
{
closed = 1;
nodes = (
"8 688 LINE",
"8 605 LINE",
"103 572 LINE",
"90 112 LINE",
"56 100 OFFCURVE",
"31 89 OFFCURVE",
"8 76 CURVE",
"8 0 LINE",
"401 0 LINE SMOOTH",
"626 0 OFFCURVE",
"756 131 OFFCURVE",
"756 359 CURVE SMOOTH",
"756 570 OFFCURVE",
"644 688 OFFCURVE",
"444 688 CURVE SMOOTH"
);
},
{
closed = 1;
nodes = (
"226 135 LINE",
"324 37 LINE",
"324 652 LINE",
"226 554 LINE",
"404 554 LINE SMOOTH",
"442 554 OFFCURVE",
"518 554 OFFCURVE",
"518 338 CURVE SMOOTH",
"518 224 OFFCURVE",
"498 164 OFFCURVE",
"449 135 CURVE"
);
}
);
width = 771;
},
{
anchors = (
{
name = bottom;
position = "{370, 0}";
},
{
name = center;
position = "{212, 334}";
},
{
name = top;
position = "{350, 644}";
}
);
layerId = "0E5388DE-A0E6-4EB4-BC9B-CE5870C9023F";
paths = (
{
closed = 1;
nodes = (
"48 644 LINE",
"48 633 LINE",
"173 615 LINE",
"165 29 LINE",
"121 27 OFFCURVE",
"82 21 OFFCURVE",
"48 10 CURVE",
"48 0 LINE",
"375 0 LINE SMOOTH",
"537 0 OFFCURVE",
"654 138 OFFCURVE",
"654 329 CURVE SMOOTH",
"654 517 OFFCURVE",
"541 644 OFFCURVE",
"375 644 CURVE SMOOTH"
);
},
{
closed = 1;
nodes = (
"190 30 LINE",
"203 17 LINE",
"203 627 LINE",
"190 614 LINE",
"375 614 LINE SMOOTH",
"523 614 OFFCURVE",
"619 500 OFFCURVE",
"619 324 CURVE SMOOTH",
"619 182 OFFCURVE",
"555 80 OFFCURVE",
"436 30 CURVE"
);
}
);
width = 732;
}
);
leftKerningGroup = H;
rightKerningGroup = O;
unicode = 0044;
},
{
color = 4;
glyphname = Eth;
lastChange = "2020-01-24 22:38:29 +0000";
layers = (
{
anchors = (
{
name = _center;
position = "{185, 334}";
}
);
components = (
{
name = D;
transform = "{1, 0, 0, 1, -27, 0}";
}
);
layerId = "0E5388DE-A0E6-4EB4-BC9B-CE5870C9023F";
leftMetricsKey = "=+21";
paths = (
{
closed = 1;
nodes = (
"32 320 LINE",
"338 320 LINE",
"338 347 LINE",
"32 347 LINE"
);
}
);
width = 705;
},
{
anchors = (
{
name = _center;
position = "{250, 344}";
}
);
components = (
{
name = D;
transform = "{1, 0, 0, 1, 34, 0}";
}
);
layerId = "A6FDB8B9-512B-4F31-B986-CD5B604F5662";
leftMetricsKey = "=+30";
paths = (
{
closed = 1;
nodes = (
"30 289 LINE",
"470 289 LINE",
"470 399 LINE",
"30 399 LINE"
);
}
);
width = 805;
}
);
leftKerningGroup = H;
rightKerningGroup = O;
unicode = 00D0;
},
{
color = 4;
glyphname = E;
lastChange = "2020-01-24 22:38:29 +0000";
layers = (
{
anchors = (
{
name = bottom;
position = "{377, 0}";
},
{
name = ogonek;
position = "{690, 10}";
},
{
name = top;
position = "{377, 688}";
},
{
name = topleft;
position = "{9, 688}";
}
);
layerId = "A6FDB8B9-512B-4F31-B986-CD5B604F5662";
paths = (
{
closed = 1;
nodes = (
"538 133 LINE",
"225 133 LINE",
"323 35 LINE",
"323 280 LINE",
"403 280 LINE",
"441 203 LINE",
"525 203 LINE",
"525 485 LINE",
"441 485 LINE",
"405 412 LINE",
"323 412 LINE",
"323 654 LINE",
"225 556 LINE",
"532 556 LINE",
"581 450 LINE",
"674 450 LINE",
"674 688 LINE",
"8 688 LINE",
"8 605 LINE",
"102 572 LINE",
"89 112 LINE",
"60 102 OFFCURVE",
"34 91 OFFCURVE",
"8 76 CURVE",
"8 0 LINE",
"683 0 LINE",
"683 256 LINE",
"591 256 LINE"
);
}
);
width = 729;
},
{
anchors = (
{
name = bottom;
position = "{339, 0}";
},
{
name = ogonek;
position = "{570, 10}";
},
{
name = top;
position = "{349, 644}";
},
{
name = topleft;
position = "{41, 644}";
}
);
layerId = "0E5388DE-A0E6-4EB4-BC9B-CE5870C9023F";
paths = (
{
closed = 1;
nodes = (
"530 30 LINE",
"190 30 LINE",
"203 17 LINE",
"203 319 LINE",
"427 319 LINE",
"455 230 LINE",
"462 230 LINE",
"462 439 LINE",
"455 439 LINE",
"427 349 LINE",
"203 349 LINE",
"203 627 LINE",
"190 614 LINE",
"521 614 LINE",
"551 460 LINE",
"559 460 LINE",
"559 644 LINE",
"48 644 LINE",
"48 633 LINE",
"173 615 LINE",
"165 29 LINE",
"128 27 OFFCURVE",
"89 21 OFFCURVE",
"48 10 CURVE",
"48 0 LINE",
"569 0 LINE",
"569 205 LINE",
"561 205 LINE"
);
}
);
width = 676;
}
);
leftKerningGroup = H;
rightKerningGroup = E;
unicode = 0045;
},
{
color = 4;
glyphname = Eacute;
lastChange = "2020-01-24 22:38:29 +0000";
layers = (
{
anchors = (
{
name = top;
position = "{349, 869}";
}
);
components = (
{
name = E;
}
);
layerId = "0E5388DE-A0E6-4EB4-BC9B-CE5870C9023F";
paths = (
{
closed = 1;
nodes = (
"343 767 OFFCURVE",
"401 805 OFFCURVE",
"456 847 CURVE",
"440 869 LINE",
"434 869 LINE",
"278 740 LINE",
"284 731 LINE"
);
}
);
width = 676;
},
{
anchors = (
{
name = top;
position = "{377, 925}";
}
);
components = (
{
name = E;
}
);
layerId = "A6FDB8B9-512B-4F31-B986-CD5B604F5662";
paths = (
{
closed = 1;
nodes = (
"361 763 OFFCURVE",
"453 797 OFFCURVE",
"544 839 CURVE",
"470 986 LINE",
"443 986 LINE",
"224 808 LINE",
"266 735 LINE"
);
}
);
width = 729;
}
);
leftKerningGroup = H;
rightKerningGroup = E;
unicode = 00C9;
},
{
color = 4;
glyphname = Edieresis;
lastChange = "2020-01-24 22:38:29 +0000";
layers = (
{
anchors = (
{
name = top;
position = "{349, 834}";
}
);
components = (
{
name = E;
}
);
layerId = "0E5388DE-A0E6-4EB4-BC9B-CE5870C9023F";
paths = (
{
closed = 1;
nodes = (
"272 831 OFFCURVE",
"258 822 OFFCURVE",
"247 811 CURVE",
"251 796 OFFCURVE",
"260 783 OFFCURVE",
"270 772 CURVE",
"285 774 OFFCURVE",
"300 783 OFFCURVE",
"309 793 CURVE",
"307 808 OFFCURVE",
"299 823 OFFCURVE",
"288 834 CURVE"
);
},
{
closed = 1;
nodes = (
"414 831 OFFCURVE",
"399 822 OFFCURVE",
"389 811 CURVE",
"393 796 OFFCURVE",
"400 783 OFFCURVE",
"412 772 CURVE",
"427 774 OFFCURVE",
"441 783 OFFCURVE",
"451 793 CURVE",
"449 808 OFFCURVE",
"440 823 OFFCURVE",
"430 834 CURVE"
);
}
);
width = 676;
},
{
anchors = (
{
name = top;
position = "{377, 980}";
}
);
components = (
{
name = E;
}
);
layerId = "A6FDB8B9-512B-4F31-B986-CD5B604F5662";
paths = (
{
closed = 1;
nodes = (
"227 971 OFFCURVE",
"174 938 OFFCURVE",
"136 899 CURVE",
"146 841 OFFCURVE",
"179 785 OFFCURVE",
"221 752 CURVE",
"275 759 OFFCURVE",
"331 793 OFFCURVE",
"366 835 CURVE",
"358 890 OFFCURVE",
"326 942 OFFCURVE",
"283 980 CURVE"
);
},
{
closed = 1;
nodes = (
"478 971 OFFCURVE",
"425 938 OFFCURVE",
"387 899 CURVE",
"396 841 OFFCURVE",
"429 785 OFFCURVE",
"471 752 CURVE",
"526 759 OFFCURVE",
"582 793 OFFCURVE",
"617 835 CURVE",
"608 890 OFFCURVE",
"575 942 OFFCURVE",
"533 980 CURVE"
);
}
);
width = 729;
}
);
leftKerningGroup = H;
rightKerningGroup = E;
unicode = 00CB;
},
{
color = 4;
glyphname = Egrave;
lastChange = "2020-01-24 22:38:29 +0000";
layers = (
{
anchors = (
{
name = top;
position = "{349, 869}";
}
);
components = (
{
name = E;
}
);
layerId = "0E5388DE-A0E6-4EB4-BC9B-CE5870C9023F";
paths = (
{
closed = 1;
nodes = (
"438 740 LINE",
"282 869 LINE",
"276 869 LINE",
"260 847 LINE",
"315 805 OFFCURVE",
"373 767 OFFCURVE",
"432 731 CURVE"
);
}
);
width = 676;
},
{
anchors = (
{
name = top;
position = "{377, 986}";
}
);
components = (
{
name = E;
}
);
layerId = "A6FDB8B9-512B-4F31-B986-CD5B604F5662";
paths = (
{
closed = 1;
nodes = (
"537 808 LINE",
"318 986 LINE",
"291 986 LINE",
"217 839 LINE",
"308 797 OFFCURVE",
"400 763 OFFCURVE",
"495 735 CURVE"
);
}
);
width = 729;
}
);
leftKerningGroup = H;
rightKerningGroup = E;
unicode = 00C8;
},
{
color = 4;
glyphname = F;
lastChange = "2020-01-24 22:38:29 +0000";
layers = (
{
anchors = (
{
name = bottom;
position = "{344, 0}";
},
{
name = center;
position = "{208, 181}";
},
{
name = top;
position = "{344, 688}";
}
);
layerId = "A6FDB8B9-512B-4F31-B986-CD5B604F5662";
paths = (
{
closed = 1;
nodes = (
"8 688 LINE",
"8 605 LINE",
"102 572 LINE",
"89 112 LINE",
"60 102 OFFCURVE",
"34 91 OFFCURVE",
"8 76 CURVE",
"8 0 LINE",
"444 0 LINE",
"444 84 LINE",
"323 107 LINE",
"323 252 LINE",
"409 252 LINE",
"447 175 LINE",
"531 175 LINE",
"531 456 LINE",
"447 456 LINE",
"412 384 LINE",
"323 384 LINE",
"323 654 LINE",
"225 556 LINE",
"533 556 LINE",
"583 444 LINE",
"676 444 LINE",
"676 688 LINE"
);
}
);
width = 669;
},
{
anchors = (
{
name = bottom;
position = "{187, 0}";
},
{
name = center;
position = "{191, 162}";
},
{
name = top;
position = "{337, 644}";
}
);
layerId = "0E5388DE-A0E6-4EB4-BC9B-CE5870C9023F";
paths = (
{
closed = 1;
nodes = (
"48 644 LINE",
"48 633 LINE",
"173 615 LINE",
"165 29 LINE",
"128 27 OFFCURVE",
"89 21 OFFCURVE",
"48 10 CURVE",
"48 0 LINE",
"345 0 LINE",
"345 12 LINE",
"203 30 LINE",
"203 305 LINE",
"402 305 LINE",
"430 216 LINE",
"437 216 LINE",
"437 425 LINE",
"430 425 LINE",
"402 335 LINE",
"203 335 LINE",
"203 627 LINE",
"190 614 LINE",
"488 614 LINE",
"518 460 LINE",
"526 460 LINE",
"526 644 LINE"
);
}
);
width = 591;
}
);
leftKerningGroup = H;
rightKerningGroup = F;
unicode = 0046;
},
{
color = 4;
glyphname = G;
lastChange = "2020-01-24 22:38:29 +0000";
layers = (
{
anchors = (
{
name = bottom;
position = "{371, 0}";
},
{
name = top;
position = "{391, 688}";
}
);
layerId = "A6FDB8B9-512B-4F31-B986-CD5B604F5662";
paths = (
{
closed = 1;
nodes = (
"465 -14 OFFCURVE",
"552 -1 OFFCURVE",
"649 25 CURVE",
"580 170 LINE",
"509 143 OFFCURVE",
"451 129 OFFCURVE",
"404 129 CURVE SMOOTH",
"300 129 OFFCURVE",
"252 198 OFFCURVE",
"252 341 CURVE SMOOTH",
"252 417 OFFCURVE",
"267 481 OFFCURVE",
"298 545 CURVE",
"310 545 OFFCURVE",
"321 546 OFFCURVE",
"332 546 CURVE SMOOTH",
"419 546 OFFCURVE",
"497 532 OFFCURVE",
"571 511 CURVE",
"649 673 LINE",
"566 693 OFFCURVE",
"486 703 OFFCURVE",
"415 703 CURVE SMOOTH",
"162 703 OFFCURVE",
"13 568 OFFCURVE",
"13 337 CURVE SMOOTH",
"13 115 OFFCURVE",
"151 -14 OFFCURVE",
"390 -14 CURVE SMOOTH"
);
},
{
closed = 1;
nodes = (
"649 25 LINE",
"649 258 LINE",
"679 268 OFFCURVE",
"705 280 OFFCURVE",
"726 293 CURVE",
"726 370 LINE",
"337 370 LINE",
"337 286 LINE",
"430 253 LINE",
"424 25 LINE"
);
},
{
closed = 1;
nodes = (
"649 438 LINE",
"649 673 LINE",
"438 676 LINE",
"552 438 LINE"
);
}
);
width = 729;
},
{
anchors = (
{
name = bottom;
position = "{396, 0}";
},
{
name = top;
position = "{416, 644}";
}
);
layerId = "0E5388DE-A0E6-4EB4-BC9B-CE5870C9023F";
paths = (
{
closed = 1;
nodes = (
"451 -6 OFFCURVE",
"508 1 OFFCURVE",
"572 16 CURVE",
"567 48 LINE",
"509 32 OFFCURVE",
"455 25 OFFCURVE",
"406 25 CURVE SMOOTH",
"224 25 OFFCURVE",
"113 130 OFFCURVE",
"113 316 CURVE SMOOTH",
"113 411 OFFCURVE",
"141 497 OFFCURVE",
"195 570 CURVE",
"265 602 OFFCURVE",
"340 619 OFFCURVE",
"415 619 CURVE SMOOTH",
"466 619 OFFCURVE",
"516 612 OFFCURVE",
"567 597 CURVE",
"572 632 LINE",
"517 646 OFFCURVE",
"461 653 OFFCURVE",
"416 653 CURVE SMOOTH",
"206 653 OFFCURVE",
"79 527 OFFCURVE",
"79 321 CURVE SMOOTH",
"79 109 OFFCURVE",
"193 -6 OFFCURVE",
"400 -6 CURVE SMOOTH"
);
},
{
closed = 1;
nodes = (
"572 16 LINE",
"572 286 LINE",
"605 289 OFFCURVE",
"635 296 OFFCURVE",
"662 305 CURVE",
"662 314 LINE",
"384 314 LINE",
"384 303 LINE",
"538 285 LINE",
"534 16 LINE"
);
},
{
closed = 1;
nodes = (
"572 451 LINE",
"572 632 LINE",
"526 632 LINE",
"564 451 LINE"
);
}
);
width = 715;
}
);
leftKerningGroup = O;
rightKerningGroup = G;
unicode = 0047;
},
{
color = 4;
glyphname = H;
lastChange = "2020-01-24 22:38:29 +0000";
layers = (
{
anchors = (
{
name = bottom;
position = "{418, 0}";
},
{
name = center;
position = "{418, 520}";
},
{
name = top;
position = "{418, 688}";
},
{
name = topleft;
position = "{9, 688}";
}
);
layerId = "A6FDB8B9-512B-4F31-B986-CD5B604F5662";
paths = (
{
closed = 1;
nodes = (
"827 0 LINE",
"827 84 LINE",
"747 107 LINE",
"747 576 LINE",
"776 586 OFFCURVE",
"803 599 OFFCURVE",
"827 612 CURVE",
"827 688 LINE",
"443 688 LINE",
"443 605 LINE",
"527 572 LINE",
"513 112 LINE",
"488 102 OFFCURVE",
"466 91 OFFCURVE",
"443 77 CURVE",
"443 0 LINE"
);
},
{
closed = 1;
nodes = (
"393 0 LINE",
"393 84 LINE",
"323 107 LINE",
"323 576 LINE",
"347 586 OFFCURVE",
"372 599 OFFCURVE",
"393 612 CURVE",
"393 688 LINE",
"8 688 LINE",
"8 605 LINE",
"102 572 LINE",
"89 112 LINE",
"60 102 OFFCURVE",
"34 91 OFFCURVE",
"8 76 CURVE",
"8 0 LINE"
);
},
{
closed = 1;
nodes = (
"636 270 LINE",
"636 402 LINE",
"213 402 LINE",
"213 270 LINE"
);
}
);
width = 839;
},
{
anchors = (
{
name = bottom;
position = "{397, 0}";
},
{
name = center;
position = "{396, 496}";
},
{
name = top;
position = "{397, 644}";
},
{
name = topleft;
position = "{41, 644}";
}
);
layerId = "0E5388DE-A0E6-4EB4-BC9B-CE5870C9023F";
paths = (
{
closed = 1;
nodes = (
"742 0 LINE",
"742 12 LINE",
"625 30 LINE",
"625 616 LINE",
"668 619 OFFCURVE",
"707 626 OFFCURVE",
"742 635 CURVE",
"742 644 LINE",
"470 644 LINE",
"470 633 LINE",
"595 615 LINE",
"587 29 LINE",
"550 27 OFFCURVE",
"511 19 OFFCURVE",
"470 7 CURVE",
"470 0 LINE"
);
},
{
closed = 1;
nodes = (
"320 0 LINE",
"320 12 LINE",
"203 30 LINE",
"203 616 LINE",
"245 619 OFFCURVE",
"285 626 OFFCURVE",
"320 635 CURVE",
"320 644 LINE",
"48 644 LINE",
"48 633 LINE",
"173 615 LINE",
"165 29 LINE",
"128 27 OFFCURVE",
"89 21 OFFCURVE",
"48 10 CURVE",
"48 0 LINE"
);
},
{
closed = 1;
nodes = (
"609 319 LINE",
"609 349 LINE",
"186 349 LINE",
"186 319 LINE"
);
}
);
width = 793;
}
);
leftKerningGroup = H;
rightKerningGroup = H;
unicode = 0048;
},
{
color = 4;
glyphname = I;
lastChange = "2020-01-24 22:38:29 +0000";
layers = (
{
anchors = (
{
name = bottom;
position = "{206, 0}";
},
{
name = ogonek;
position = "{382, 10}";
},
{
name = top;
position = "{206, 688}";
},
{
name = topleft;
position = "{9, 688}";
}
);
layerId = "A6FDB8B9-512B-4F31-B986-CD5B604F5662";
paths = (
{
closed = 1;
nodes = (
"403 0 LINE",
"403 84 LINE",
"323 107 LINE",
"323 576 LINE",
"351 586 OFFCURVE",
"379 599 OFFCURVE",
"403 612 CURVE",
"403 688 LINE",
"8 688 LINE",
"8 605 LINE",
"102 572 LINE",
"89 112 LINE",
"60 102 OFFCURVE",
"34 91 OFFCURVE",
"8 76 CURVE",
"8 0 LINE"
);
}
);
width = 415;
},
{
anchors = (
{
name = bottom;
position = "{186, 0}";
},
{
name = ogonek;
position = "{292, 10}";
},
{
name = top;
position = "{186, 644}";
},
{
name = topleft;
position = "{41, 644}";
}
);
layerId = "0E5388DE-A0E6-4EB4-BC9B-CE5870C9023F";
paths = (
{
closed = 1;
nodes = (
"320 0 LINE",
"320 12 LINE",
"203 30 LINE",
"203 616 LINE",
"246 619 OFFCURVE",
"285 626 OFFCURVE",
"320 635 CURVE",
"320 644 LINE",
"48 644 LINE",
"48 633 LINE",
"173 615 LINE",
"165 29 LINE",
"128 27 OFFCURVE",
"89 21 OFFCURVE",
"48 10 CURVE",
"48 0 LINE"
);
}
);
width = 371;
}
);
leftKerningGroup = H;
rightKerningGroup = H;
unicode = 0049;
},
{
color = 4;
glyphname = Iacute;
lastChange = "2020-01-24 22:38:29 +0000";
layers = (
{
anchors = (
{
name = top;
position = "{186, 869}";
}
);
components = (
{
name = I;
}
);
layerId = "0E5388DE-A0E6-4EB4-BC9B-CE5870C9023F";
paths = (
{
closed = 1;
nodes = (
"180 767 OFFCURVE",
"238 805 OFFCURVE",
"293 847 CURVE",
"277 869 LINE",
"271 869 LINE",
"115 740 LINE",
"121 731 LINE"
);
}
);
width = 371;
},
{
anchors = (
{
name = top;
position = "{206, 925}";
}
);
components = (
{
name = I;
}
);
layerId = "A6FDB8B9-512B-4F31-B986-CD5B604F5662";
paths = (
{
closed = 1;
nodes = (
"190 763 OFFCURVE",
"282 797 OFFCURVE",
"373 839 CURVE",
"299 986 LINE",
"272 986 LINE",
"53 808 LINE",
"95 735 LINE"
);
}
);
width = 415;
}
);
leftKerningGroup = H;
rightKerningGroup = H;
unicode = 00CD;
},
{
color = 4;
glyphname = Idieresis;
lastChange = "2020-01-24 22:38:29 +0000";
layers = (
{
anchors = (
{
name = top;
position = "{186, 834}";
}
);
components = (
{
name = I;
}
);
layerId = "0E5388DE-A0E6-4EB4-BC9B-CE5870C9023F";
paths = (
{
closed = 1;
nodes = (
"109 831 OFFCURVE",
"95 822 OFFCURVE",
"84 811 CURVE",
"88 796 OFFCURVE",
"97 783 OFFCURVE",
"107 772 CURVE",
"122 774 OFFCURVE",
"137 783 OFFCURVE",
"146 793 CURVE",
"144 808 OFFCURVE",
"136 823 OFFCURVE",
"125 834 CURVE"
);
},
{
closed = 1;
nodes = (
"251 831 OFFCURVE",
"236 822 OFFCURVE",
"226 811 CURVE",
"230 796 OFFCURVE",
"237 783 OFFCURVE",
"249 772 CURVE",
"264 774 OFFCURVE",
"278 783 OFFCURVE",
"288 793 CURVE",
"286 808 OFFCURVE",
"277 823 OFFCURVE",
"267 834 CURVE"
);
}
);
width = 371;
},
{
anchors = (
{
name = top;
position = "{206, 980}";
}
);
components = (
{
name = I;
}
);
layerId = "A6FDB8B9-512B-4F31-B986-CD5B604F5662";
paths = (
{
closed = 1;
nodes = (
"56 971 OFFCURVE",
"3 938 OFFCURVE",
"-35 899 CURVE",
"-25 841 OFFCURVE",
"8 785 OFFCURVE",
"50 752 CURVE",
"104 759 OFFCURVE",
"160 793 OFFCURVE",
"195 835 CURVE",
"187 890 OFFCURVE",
"155 942 OFFCURVE",
"112 980 CURVE"
);
},
{
closed = 1;
nodes = (
"307 971 OFFCURVE",
"254 938 OFFCURVE",
"216 899 CURVE",
"225 841 OFFCURVE",
"258 785 OFFCURVE",
"300 752 CURVE",
"355 759 OFFCURVE",
"411 793 OFFCURVE",
"446 835 CURVE",
"437 890 OFFCURVE",
"404 942 OFFCURVE",
"362 980 CURVE"
);
}
);
width = 415;
}
);
leftKerningGroup = H;
rightKerningGroup = H;
unicode = 00CF;
},
{
color = 4;
glyphname = Igrave;
lastChange = "2020-01-24 22:38:29 +0000";
layers = (
{
anchors = (
{
name = top;
position = "{186, 869}";
}
);
components = (
{
name = I;
}
);
layerId = "0E5388DE-A0E6-4EB4-BC9B-CE5870C9023F";
paths = (
{
closed = 1;
nodes = (
"275 740 LINE",
"119 869 LINE",
"113 869 LINE",
"97 847 LINE",
"152 805 OFFCURVE",
"210 767 OFFCURVE",
"269 731 CURVE"
);
}
);
width = 371;
},
{
anchors = (
{
name = top;
position = "{206, 986}";
}
);
components = (
{
name = I;
}
);
layerId = "A6FDB8B9-512B-4F31-B986-CD5B604F5662";
paths = (
{
closed = 1;
nodes = (
"366 808 LINE",
"147 986 LINE",
"120 986 LINE",
"46 839 LINE",
"137 797 OFFCURVE",
"229 763 OFFCURVE",
"324 735 CURVE"
);
}
);
width = 415;
}
);
leftKerningGroup = H;
rightKerningGroup = H;
unicode = 00CC;
},
{
color = 4;
glyphname = J;
lastChange = "2020-01-24 22:38:29 +0000";
layers = (
{
anchors = (
{
name = bottom;
position = "{261, 0}";
},
{
name = top;
position = "{369, 688}";
}
);
layerId = "A6FDB8B9-512B-4F31-B986-CD5B604F5662";
paths = (
{
closed = 1;
nodes = (
"64 -9 OFFCURVE",
"119 -14 OFFCURVE",
"169 -14 CURVE SMOOTH",
"375 -14 OFFCURVE",
"482 78 OFFCURVE",
"482 258 CURVE SMOOTH",
"482 576 LINE",
"509 586 OFFCURVE",
"536 601 OFFCURVE",
"559 612 CURVE",
"559 688 LINE",
"102 688 LINE",
"102 605 LINE",
"261 572 LINE",
"253 150 LINE",
"238 140 OFFCURVE",
"218 136 OFFCURVE",
"196 136 CURVE SMOOTH",
"148 136 OFFCURVE",
"87 157 OFFCURVE",
"23 196 CURVE",
"3 2 LINE"
);
},
{
closed = 1;
nodes = (
"202 2 LINE",
"95 271 LINE",
"3 271 LINE",
"3 2 LINE"
);
}
);
width = 549;
},
{
anchors = (
{
name = bottom;
position = "{240, 0}";
},
{
name = top;
position = "{328, 644}";
}
);
layerId = "0E5388DE-A0E6-4EB4-BC9B-CE5870C9023F";
paths = (
{
closed = 1;
nodes = (
"89 -4 OFFCURVE",
"115 -7 OFFCURVE",
"139 -7 CURVE SMOOTH",
"274 -7 OFFCURVE",
"342 63 OFFCURVE",
"342 201 CURVE SMOOTH",
"341 616 LINE",
"387 619 OFFCURVE",
"422 625 OFFCURVE",
"451 635 CURVE",
"451 644 LINE",
"167 644 LINE",
"167 633 LINE",
"311 615 LINE",
"307 117 LINE",
"275 49 OFFCURVE",
"235 24 OFFCURVE",
"143 24 CURVE SMOOTH",
"121 24 OFFCURVE",
"96 25 OFFCURVE",
"67 28 CURVE",
"61 0 LINE"
);
},
{
closed = 1;
nodes = (
"102 0 LINE",
"68 205 LINE",
"61 205 LINE",
"61 0 LINE"
);
}
);
width = 487;
}
);
leftKerningGroup = J;
rightKerningGroup = U;
unicode = 004A;
},
{
color = 4;
glyphname = K;
lastChange = "2020-01-24 22:38:29 +0000";
layers = (
{
anchors = (
{
name = bottom;
position = "{406, 0}";
},
{
name = top;
position = "{406, 688}";
}
);
background = {
paths = (
{
closed = 1;
nodes = (
"403 0 LINE",
"403 84 LINE",
"323 107 LINE",
"323 576 LINE",
"351 586 OFFCURVE",
"379 599 OFFCURVE",
"403 612 CURVE",
"403 688 LINE",
"8 688 LINE",
"8 605 LINE",
"102 572 LINE",
"89 112 LINE",
"60 102 OFFCURVE",
"34 91 OFFCURVE",
"8 76 CURVE",
"8 0 LINE"
);
},
{
closed = 1;
nodes = (
"806 0 LINE",
"806 84 LINE",
"636 152 LINE",
"568 141 OFFCURVE",
"498 116 OFFCURVE",
"432 77 CURVE",
"432 0 LINE"
);
},
{
closed = 1;
nodes = (
"673 548 OFFCURVE",
"731 573 OFFCURVE",
"785 612 CURVE",
"785 688 LINE",
"477 688 LINE",
"477 603 LINE",
"616 536 LINE"
);
},
{
closed = 1;
nodes = (
"748 611 LINE",
"747 688 LINE",
"601 688 LINE",
"321 333 LINE",
"523 0 LINE",
"768 0 LINE",
"768 82 LINE",
"511 469 LINE",
"503 313 LINE"
);
}
);
};
layerId = "A6FDB8B9-512B-4F31-B986-CD5B604F5662";
paths = (
{
closed = 1;
nodes = (
"403 0 LINE",
"403 84 LINE",
"323 107 LINE",
"323 576 LINE",
"351 586 OFFCURVE",
"379 599 OFFCURVE",
"403 612 CURVE",
"403 688 LINE",
"8 688 LINE",
"8 605 LINE",
"102 572 LINE",
"89 112 LINE",
"60 102 OFFCURVE",
"34 91 OFFCURVE",
"8 76 CURVE",
"8 0 LINE"
);
},
{
closed = 1;
nodes = (
"806 0 LINE",
"806 84 LINE",
"636 152 LINE",
"568 141 OFFCURVE",
"498 116 OFFCURVE",
"432 77 CURVE",
"432 0 LINE"
);
},
{
closed = 1;
nodes = (
"673 548 OFFCURVE",
"731 573 OFFCURVE",
"785 612 CURVE",
"785 688 LINE",
"477 688 LINE",
"477 603 LINE",
"616 536 LINE"
);
},
{
closed = 1;
nodes = (
"748 611 LINE",
"747 678 LINE",
"593 678 LINE",
"321 333 LINE",
"515 10 LINE",
"768 10 LINE",
"768 82 LINE",
"511 469 LINE",
"503 313 LINE"
);
}
);
width = 789;
},
{
anchors = (
{
name = bottom;
position = "{367, 0}";
},
{
name = top;
position = "{367, 644}";
}
);
background = {
paths = (
{
closed = 1;
nodes = (
"320 0 LINE",
"320 12 LINE",
"203 30 LINE",
"203 616 LINE",
"246 619 OFFCURVE",
"285 626 OFFCURVE",
"320 635 CURVE",
"320 644 LINE",
"48 644 LINE",
"48 633 LINE",
"173 615 LINE",
"165 29 LINE",
"128 27 OFFCURVE",
"89 21 OFFCURVE",
"48 10 CURVE",
"48 0 LINE"
);
},
{
closed = 1;
nodes = (
"702 0 LINE",
"702 12 LINE",
"596 32 LINE",
"539 30 OFFCURVE",
"484 22 OFFCURVE",
"430 7 CURVE",
"430 0 LINE"
);
},
{
closed = 1;
nodes = (
"594 614 OFFCURVE",
"639 622 OFFCURVE",
"683 637 CURVE",
"683 644 LINE",
"411 644 LINE",
"411 632 LINE",
"547 612 LINE"
);
},
{
closed = 1;
nodes = (
"601 641 LINE",
"601 644 LINE",
"561 644 LINE",
"251 334 LINE",
"584 0 LINE",
"628 0 LINE",
"628 8 LINE",
"287 346 LINE",
"287 326 LINE"
);
}
);
};
layerId = "0E5388DE-A0E6-4EB4-BC9B-CE5870C9023F";
paths = (
{
closed = 1;
nodes = (
"320 0 LINE",
"320 12 LINE",
"203 30 LINE",
"203 616 LINE",
"246 619 OFFCURVE",
"285 626 OFFCURVE",
"320 635 CURVE",
"320 644 LINE",
"48 644 LINE",
"48 633 LINE",
"173 615 LINE",
"165 29 LINE",
"128 27 OFFCURVE",
"89 21 OFFCURVE",
"48 10 CURVE",
"48 0 LINE"
);
},
{
closed = 1;
nodes = (
"702 0 LINE",
"702 12 LINE",
"596 32 LINE",
"539 30 OFFCURVE",
"484 22 OFFCURVE",
"430 7 CURVE",
"430 0 LINE"
);
},
{
closed = 1;
nodes = (
"594 614 OFFCURVE",
"639 622 OFFCURVE",
"683 637 CURVE",
"683 644 LINE",
"411 644 LINE",
"411 632 LINE",
"547 612 LINE"
);
},
{
closed = 1;
nodes = (
"591 631 LINE",
"591 634 LINE",
"551 634 LINE",
"251 334 LINE",
"574 10 LINE",
"618 10 LINE",
"618 18 LINE",
"287 346 LINE",
"287 326 LINE"
);
}
);
width = 741;
}
);
leftKerningGroup = H;
rightKerningGroup = X;
unicode = 004B;
},
{
color = 4;
glyphname = L;
lastChange = "2020-01-24 22:38:29 +0000";
layers = (
{
anchors = (
{
name = bottom;
position = "{329, 0}";
},
{
name = center;
position = "{225, 361}";
},
{
name = top;
position = "{225, 688}";
},
{
name = topright;
position = "{575, 688}";
}
);
background = {
anchors = (
{
name = bottom;
position = "{329, 0}";
},
{
name = center;
position = "{225, 361}";
},
{
name = top;
position = "{225, 688}";
},
{
name = topright;
position = "{575, 688}";
}
);
paths = (
{
closed = 1;
nodes = (
"630 0 LINE",
"630 306 LINE",
"538 306 LINE",
"431 0 LINE"
);
},
{
closed = 1;
nodes = (
"323 576 LINE",
"363 586 OFFCURVE",
"401 599 OFFCURVE",
"434 612 CURVE",
"434 688 LINE",
"8 688 LINE",
"8 605 LINE",
"102 572 LINE",
"89 112 LINE",
"60 102 OFFCURVE",
"34 91 OFFCURVE",
"8 76 CURVE",
"8 0 LINE",
"612 0 LINE",
"612 132 LINE",
"225 132 LINE",
"323 34 LINE"
);
}
);
};
layerId = "A6FDB8B9-512B-4F31-B986-CD5B604F5662";
paths = (
{
closed = 1;
nodes = (
"477 132 LINE",
"323 132 LINE",
"323 576 LINE",
"363 586 OFFCURVE",
"401 599 OFFCURVE",
"434 612 CURVE",
"434 688 LINE",
"8 688 LINE",
"8 605 LINE",
"102 572 LINE",
"89 112 LINE",
"60 102 OFFCURVE",
"34 91 OFFCURVE",
"8 76 CURVE",
"8 0 LINE",
"630 0 LINE",
"630 306 LINE",
"538 306 LINE"
);
}
);
width = 635;
},
{
anchors = (
{
name = bottom;
position = "{302, 0}";
},
{
name = center;
position = "{203, 366}";
},
{
name = top;
position = "{192, 644}";
},
{
name = topright;
position = "{494, 644}";
}
);
layerId = "0E5388DE-A0E6-4EB4-BC9B-CE5870C9023F";
paths = (
{
closed = 1;
nodes = (
"485 30 LINE",
"203 30 LINE",
"203 616 LINE",
"250 619 OFFCURVE",
"293 626 OFFCURVE",
"330 635 CURVE",
"330 644 LINE",
"48 644 LINE",
"48 633 LINE",
"173 615 LINE",
"165 29 LINE",
"128 27 OFFCURVE",
"89 21 OFFCURVE",
"48 10 CURVE",
"48 0 LINE",
"522 0 LINE",
"522 250 LINE",
"515 250 LINE"
);
}
);
width = 583;
}
);
leftKerningGroup = H;
rightKerningGroup = L;
unicode = 004C;
},
{
color = 4;
glyphname = M;
lastChange = "2020-01-24 22:38:29 +0000";
layers = (
{
anchors = (
{
name = bottom;
position = "{470, 0}";
},
{
name = top;
position = "{510, 688}";
}
);
layerId = "A6FDB8B9-512B-4F31-B986-CD5B604F5662";
paths = (
{
closed = 1;
nodes = (
"923 576 LINE",
"953 586 OFFCURVE",
"982 599 OFFCURVE",
"1007 612 CURVE",
"1007 688 LINE",
"613 688 LINE",
"474 229 LINE",
"529 228 LINE",
"397 688 LINE",
"8 688 LINE",
"8 605 LINE",
"105 572 LINE",
"87 112 LINE",
"56 102 OFFCURVE",
"32 91 OFFCURVE",
"8 76 CURVE",
"8 0 LINE",
"335 0 LINE",
"335 84 LINE",
"238 107 LINE",
"242 602 LINE",
"211 597 LINE",
"401 0 LINE",
"540 0 LINE",
"739 623 LINE",
"711 628 LINE",
"700 112 LINE",
"671 102 OFFCURVE",
"646 91 OFFCURVE",
"621 76 CURVE",
"621 0 LINE",
"1011 0 LINE",
"1011 84 LINE",
"927 107 LINE"
);
}
);
width = 1018;
},
{
anchors = (
{
name = bottom;
position = "{461, 0}";
},
{
name = top;
position = "{472, 644}";
}
);
layerId = "0E5388DE-A0E6-4EB4-BC9B-CE5870C9023F";
paths = (
{
closed = 1;
nodes = (
"767 616 LINE",
"811 619 OFFCURVE",
"851 626 OFFCURVE",
"887 635 CURVE",
"887 644 LINE",
"719 644 LINE",
"461 58 LINE",
"471 58 LINE",
"226 644 LINE",
"53 644 LINE",
"53 633 LINE",
"182 615 LINE",
"162 29 LINE",
"124 27 OFFCURVE",
"84 21 OFFCURVE",
"42 10 CURVE",
"42 0 LINE",
"331 0 LINE",
"331 12 LINE",
"197 30 LINE",
"208 616 LINE",
"203 615 LINE",
"460 0 LINE",
"469 0 LINE",
"740 618 LINE",
"735 619 LINE",
"739 29 LINE",
"700 27 OFFCURVE",
"660 21 OFFCURVE",
"619 10 CURVE",
"619 0 LINE",
"898 0 LINE",
"898 12 LINE",
"777 30 LINE"
);
}
);
width = 941;
}
);
leftKerningGroup = M;
rightKerningGroup = M;
unicode = 004D;
},
{
color = 4;
glyphname = N;
lastChange = "2020-01-24 22:38:29 +0000";
layers = (
{
anchors = (
{
name = bottom;
position = "{412, 0}";
},
{
name = top;
position = "{412, 688}";
}
);
layerId = "A6FDB8B9-512B-4F31-B986-CD5B604F5662";
paths = (
{
closed = 1;
nodes = (
"500 605 LINE",
"592 581 LINE",
"604 168 LINE",
"650 182 LINE",
"354 688 LINE",
"9 688 LINE",
"9 605 LINE",
"100 572 LINE",
"87 112 LINE",
"58 102 OFFCURVE",
"35 91 OFFCURVE",
"12 76 CURVE",
"12 0 LINE",
"346 0 LINE",
"346 84 LINE",
"241 107 LINE",
"241 540 LINE",
"192 526 LINE",
"499 0 LINE",
"745 0 LINE",
"746 576 LINE",
"777 586 OFFCURVE",
"800 598 OFFCURVE",
"824 612 CURVE",
"824 688 LINE",
"500 688 LINE"
);
}
);
width = 823;
},
{
anchors = (
{
name = bottom;
position = "{393, 0}";
},
{
name = top;
position = "{393, 644}";
}
);
layerId = "0E5388DE-A0E6-4EB4-BC9B-CE5870C9023F";
paths = (
{
closed = 1;
nodes = (
"476 633 LINE",
"596 615 LINE",
"605 38 LINE",
"613 40 LINE",
"200 644 LINE",
"48 644 LINE",
"48 633 LINE",
"173 615 LINE",
"165 29 LINE",
"128 27 OFFCURVE",
"89 21 OFFCURVE",
"48 10 CURVE",
"48 0 LINE",
"329 0 LINE",
"329 12 LINE",
"199 30 LINE",
"199 597 LINE",
"191 595 LINE",
"598 0 LINE",
"630 0 LINE",
"631 616 LINE",
"668 618 OFFCURVE",
"706 624 OFFCURVE",
"747 635 CURVE",
"747 644 LINE",
"476 644 LINE"
);
}
);
width = 781;
}
);
leftKerningGroup = H;
rightKerningGroup = H;
unicode = 004E;
},
{
color = 4;
glyphname = Ntilde;
lastChange = "2020-01-24 22:38:29 +0000";
layers = (
{
anchors = (
{
name = top;
position = "{393, 853}";
}
);
components = (
{
name = N;
}
);
layerId = "0E5388DE-A0E6-4EB4-BC9B-CE5870C9023F";
paths = (
{
closed = 1;
nodes = (
"327 807 LINE",
"435 778 LINE SMOOTH",
"456 772 OFFCURVE",
"466 769 OFFCURVE",
"523 846 CURVE",
"516 853 LINE",
"459 801 LINE",
"351 830 LINE SMOOTH",
"329 836 OFFCURVE",
"321 839 OFFCURVE",
"263 763 CURVE",
"270 755 LINE"
);
}
);
width = 781;
},
{
anchors = (
{
name = top;
position = "{412, 930}";
}
);
components = (
{
name = N;
}
);
layerId = "A6FDB8B9-512B-4F31-B986-CD5B604F5662";
paths = (
{
closed = 1;
nodes = (
"310 816 LINE",
"462 781 LINE SMOOTH",
"525 766 OFFCURVE",
"554 791 OFFCURVE",
"630 942 CURVE",
"586 980 LINE",
"513 926 LINE",
"362 961 LINE SMOOTH",
"307 974 OFFCURVE",
"278 969 OFFCURVE",
"193 800 CURVE",
"237 762 LINE"
);
}
);
width = 823;
}
);
leftKerningGroup = H;
rightKerningGroup = H;
unicode = 00D1;
},
{
color = 4;
glyphname = O;
lastChange = "2020-01-24 22:38:29 +0000";
layers = (
{
anchors = (
{
name = bottom;
position = "{366, 0}";
},
{
name = center;
position = "{366, 344}";
},
{
name = ogonek;
position = "{602, 13}";
},
{
name = top;
position = "{366, 688}";
},
{
name = topleft;
position = "{7, 688}";
},
{
name = topright;
position = "{628, 688}";
}
);
layerId = "A6FDB8B9-512B-4F31-B986-CD5B604F5662";
paths = (
{
closed = 1;
nodes = (
"582 -15 OFFCURVE",
"715 122 OFFCURVE",
"715 362 CURVE SMOOTH",
"715 578 OFFCURVE",
"589 703 OFFCURVE",
"370 703 CURVE SMOOTH",
"163 703 OFFCURVE",
"16 564 OFFCURVE",
"16 336 CURVE SMOOTH",
"16 112 OFFCURVE",
"139 -15 OFFCURVE",
"354 -15 CURVE SMOOTH"
);
},
{
closed = 1;
nodes = (
"289 122 OFFCURVE",
"255 189 OFFCURVE",
"255 340 CURVE SMOOTH",
"255 414 OFFCURVE",
"265 479 OFFCURVE",
"286 542 CURVE",
"310 553 OFFCURVE",
"334 558 OFFCURVE",
"357 558 CURVE SMOOTH",
"441 558 OFFCURVE",
"476 494 OFFCURVE",
"476 344 CURVE SMOOTH",
"476 190 OFFCURVE",
"443 122 OFFCURVE",
"368 122 CURVE SMOOTH"
);
}
);
width = 731;
},
{
anchors = (
{
name = bottom;
position = "{361, 0}";
},
{
name = center;
position = "{361, 322}";
},
{
name = ogonek;
position = "{527, 30}";
},
{
name = top;
position = "{361, 644}";
},
{
name = topleft;
position = "{36, 644}";
},
{
name = topright;
position = "{612, 644}";
}
);
layerId = "0E5388DE-A0E6-4EB4-BC9B-CE5870C9023F";
paths = (
{
closed = 1;
nodes = (
"521 -7 OFFCURVE",
"643 137 OFFCURVE",
"643 328 CURVE SMOOTH",
"643 515 OFFCURVE",
"525 651 OFFCURVE",
"366 651 CURVE SMOOTH",
"201 651 OFFCURVE",
"79 506 OFFCURVE",
"79 313 CURVE SMOOTH",
"79 125 OFFCURVE",
"195 -7 OFFCURVE",
"354 -7 CURVE SMOOTH"
);
},
{
closed = 1;
nodes = (
"217 23 OFFCURVE",
"113 148 OFFCURVE",
"113 315 CURVE SMOOTH",
"113 400 OFFCURVE",
"140 485 OFFCURVE",
"193 563 CURVE",
"241 599 OFFCURVE",
"302 618 OFFCURVE",
"361 618 CURVE SMOOTH",
"509 618 OFFCURVE",
"608 497 OFFCURVE",
"608 327 CURVE SMOOTH",
"608 151 OFFCURVE",
"502 23 OFFCURVE",
"359 23 CURVE SMOOTH"
);
}
);
width = 721;
}
);
leftKerningGroup = O;
rightKerningGroup = O;
unicode = 004F;
},
{
color = 4;
glyphname = Oacute;
lastChange = "2020-01-24 22:38:29 +0000";
layers = (
{
anchors = (
{
name = top;
position = "{361, 869}";
}
);
components = (
{
name = O;
}
);
layerId = "0E5388DE-A0E6-4EB4-BC9B-CE5870C9023F";
paths = (
{
closed = 1;
nodes = (
"355 767 OFFCURVE",
"413 805 OFFCURVE",
"468 847 CURVE",
"452 869 LINE",
"446 869 LINE",
"290 740 LINE",
"296 731 LINE"
);
}
);
width = 721;
},
{
anchors = (
{
name = top;
position = "{366, 925}";
}
);
components = (
{
name = O;
}
);
layerId = "A6FDB8B9-512B-4F31-B986-CD5B604F5662";
paths = (
{
closed = 1;
nodes = (
"350 763 OFFCURVE",
"442 797 OFFCURVE",
"533 839 CURVE",
"459 986 LINE",
"432 986 LINE",
"213 808 LINE",
"255 735 LINE"
);
}
);
width = 731;
}
);
leftKerningGroup = O;
rightKerningGroup = O;
unicode = 00D3;
},
{
color = 4;
glyphname = Odieresis;
lastChange = "2020-01-24 22:38:29 +0000";
layers = (
{
anchors = (
{
name = top;
position = "{361, 834}";
}
);
components = (
{
name = O;
}
);
layerId = "0E5388DE-A0E6-4EB4-BC9B-CE5870C9023F";
paths = (
{
closed = 1;
nodes = (
"284 831 OFFCURVE",
"270 822 OFFCURVE",
"259 811 CURVE",
"263 796 OFFCURVE",
"272 783 OFFCURVE",
"282 772 CURVE",
"297 774 OFFCURVE",
"312 783 OFFCURVE",
"321 793 CURVE",
"319 808 OFFCURVE",
"311 823 OFFCURVE",
"300 834 CURVE"
);
},
{
closed = 1;
nodes = (
"426 831 OFFCURVE",
"411 822 OFFCURVE",
"401 811 CURVE",
"405 796 OFFCURVE",
"412 783 OFFCURVE",
"424 772 CURVE",
"439 774 OFFCURVE",
"453 783 OFFCURVE",
"463 793 CURVE",
"461 808 OFFCURVE",
"452 823 OFFCURVE",
"442 834 CURVE"
);
}
);
width = 721;
},
{
anchors = (
{
name = top;
position = "{366, 980}";
}
);
components = (
{
name = O;
}
);
layerId = "A6FDB8B9-512B-4F31-B986-CD5B604F5662";
paths = (
{
closed = 1;
nodes = (
"216 971 OFFCURVE",
"163 938 OFFCURVE",
"125 899 CURVE",
"135 841 OFFCURVE",
"168 785 OFFCURVE",
"210 752 CURVE",
"264 759 OFFCURVE",
"320 793 OFFCURVE",
"355 835 CURVE",
"347 890 OFFCURVE",
"315 942 OFFCURVE",
"272 980 CURVE"
);
},
{
closed = 1;
nodes = (
"467 971 OFFCURVE",
"414 938 OFFCURVE",
"376 899 CURVE",
"385 841 OFFCURVE",
"418 785 OFFCURVE",
"460 752 CURVE",
"515 759 OFFCURVE",
"571 793 OFFCURVE",
"606 835 CURVE",
"597 890 OFFCURVE",
"564 942 OFFCURVE",
"522 980 CURVE"
);
}
);
width = 731;
}
);
leftKerningGroup = O;
rightKerningGroup = O;
unicode = 00D6;
},
{
color = 4;
glyphname = Ograve;
lastChange = "2020-01-24 22:38:29 +0000";
layers = (
{
anchors = (
{
name = top;
position = "{361, 869}";
}
);
components = (
{
name = O;
}
);
layerId = "0E5388DE-A0E6-4EB4-BC9B-CE5870C9023F";
paths = (
{
closed = 1;
nodes = (
"450 740 LINE",
"294 869 LINE",
"288 869 LINE",
"272 847 LINE",
"327 805 OFFCURVE",
"385 767 OFFCURVE",
"444 731 CURVE"
);
}
);
width = 721;
},
{
anchors = (
{
name = top;
position = "{366, 986}";
}
);
components = (
{
name = O;
}
);
layerId = "A6FDB8B9-512B-4F31-B986-CD5B604F5662";
paths = (
{
closed = 1;
nodes = (
"526 808 LINE",
"307 986 LINE",
"280 986 LINE",
"206 839 LINE",
"297 797 OFFCURVE",
"389 763 OFFCURVE",
"484 735 CURVE"
);
}
);
width = 731;
}
);
leftKerningGroup = O;
rightKerningGroup = O;
unicode = 00D2;
},
{
color = 4;
glyphname = Oslash;
lastChange = "2020-01-24 22:38:29 +0000";
layers = (
{
anchors = (
{
name = bottom;
position = "{348, 0}";
},
{
name = center;
position = "{364, 322}";
},
{
name = ogonek;
position = "{530, 30}";
},
{
name = top;
position = "{348, 644}";
},
{
name = topleft;
position = "{39, 644}";
},
{
name = topright;
position = "{615, 644}";
}
);
layerId = "0E5388DE-A0E6-4EB4-BC9B-CE5870C9023F";
paths = (
{
closed = 1;
nodes = (
"206 61 LINE",
"141 -71 LINE",
"167 -81 LINE",
"230 47 LINE"
);
},
{
closed = 1;
nodes = (
"524 -7 OFFCURVE",
"646 137 OFFCURVE",
"646 328 CURVE SMOOTH",
"646 515 OFFCURVE",
"528 651 OFFCURVE",
"369 651 CURVE SMOOTH",
"204 651 OFFCURVE",
"82 506 OFFCURVE",
"82 313 CURVE SMOOTH",
"82 125 OFFCURVE",
"198 -7 OFFCURVE",
"357 -7 CURVE SMOOTH"
);
},
{
closed = 1;
nodes = (
"220 23 OFFCURVE",
"116 148 OFFCURVE",
"116 315 CURVE SMOOTH",
"116 400 OFFCURVE",
"143 485 OFFCURVE",
"196 563 CURVE",
"244 599 OFFCURVE",
"305 618 OFFCURVE",
"364 618 CURVE SMOOTH",
"512 618 OFFCURVE",
"611 497 OFFCURVE",
"611 327 CURVE SMOOTH",
"611 151 OFFCURVE",
"505 23 OFFCURVE",
"362 23 CURVE SMOOTH"
);
},
{
closed = 1;
nodes = (
"499 596 LINE",
"556 713 LINE",
"530 723 LINE",
"474 610 LINE"
);
},
{
closed = 1;
nodes = (
"230 47 LINE",
"499 596 LINE",
"474 610 LINE",
"206 61 LINE"
);
}
);
width = 725;
},
{
anchors = (
{
name = bottom;
position = "{379, 0}";
},
{
name = center;
position = "{366, 344}";
},
{
name = ogonek;
position = "{602, 13}";
},
{
name = top;
position = "{379, 688}";
},
{
name = topleft;
position = "{7, 688}";
},
{
name = topright;
position = "{628, 688}";
}
);
layerId = "A6FDB8B9-512B-4F31-B986-CD5B604F5662";
paths = (
{
closed = 1;
nodes = (
"207 110 LINE",
"134 -56 LINE",
"231 -98 LINE",
"302 64 LINE"
);
},
{
closed = 1;
nodes = (
"582 -15 OFFCURVE",
"715 122 OFFCURVE",
"715 362 CURVE SMOOTH",
"715 578 OFFCURVE",
"589 703 OFFCURVE",
"370 703 CURVE SMOOTH",
"150 703 OFFCURVE",
"16 564 OFFCURVE",
"16 336 CURVE SMOOTH",
"16 112 OFFCURVE",
"139 -15 OFFCURVE",
"354 -15 CURVE SMOOTH"
);
},
{
closed = 1;
nodes = (
"289 122 OFFCURVE",
"255 189 OFFCURVE",
"255 340 CURVE SMOOTH",
"255 414 OFFCURVE",
"265 479 OFFCURVE",
"286 542 CURVE",
"310 553 OFFCURVE",
"334 558 OFFCURVE",
"357 558 CURVE SMOOTH",
"441 558 OFFCURVE",
"476 494 OFFCURVE",
"476 344 CURVE SMOOTH",
"476 190 OFFCURVE",
"443 122 OFFCURVE",
"368 122 CURVE SMOOTH"
);
},
{
closed = 1;
nodes = (
"529 584 LINE",
"595 735 LINE",
"498 776 LINE",
"432 625 LINE"
);
},
{
closed = 1;
nodes = (
"302 64 LINE",
"529 584 LINE",
"432 625 LINE",
"207 110 LINE"
);
}
);
width = 731;
}
);
leftKerningGroup = O;
rightKerningGroup = O;
unicode = 00D8;
},
{
color = 4;
glyphname = Otilde;
lastChange = "2020-01-24 22:38:29 +0000";
layers = (
{
anchors = (
{
name = top;
position = "{361, 853}";
}
);
components = (
{
name = O;
}
);
layerId = "0E5388DE-A0E6-4EB4-BC9B-CE5870C9023F";
paths = (
{
closed = 1;
nodes = (
"295 807 LINE",
"403 778 LINE SMOOTH",
"424 772 OFFCURVE",
"434 769 OFFCURVE",
"491 846 CURVE",
"484 853 LINE",
"427 801 LINE",
"319 830 LINE SMOOTH",
"297 836 OFFCURVE",
"289 839 OFFCURVE",
"231 763 CURVE",
"238 755 LINE"
);
}
);
width = 721;
},
{
anchors = (
{
name = top;
position = "{366, 930}";
}
);
components = (
{
name = O;
}
);
layerId = "A6FDB8B9-512B-4F31-B986-CD5B604F5662";
paths = (
{
closed = 1;
nodes = (
"264 816 LINE",
"416 781 LINE SMOOTH",
"479 766 OFFCURVE",
"508 791 OFFCURVE",
"584 942 CURVE",
"540 980 LINE",
"467 926 LINE",
"316 961 LINE SMOOTH",
"261 974 OFFCURVE",
"232 969 OFFCURVE",
"147 800 CURVE",
"191 762 LINE"
);
}
);
width = 731;
}
);
leftKerningGroup = O;
rightKerningGroup = O;
unicode = 00D5;
},
{
color = 4;
glyphname = OE;
lastChange = "2020-01-24 22:38:29 +0000";
layers = (
{
anchors = (
{
name = bottom;
position = "{502, 0}";
},
{
name = top;
position = "{502, 644}";
}
);
background = {
paths = (
{
closed = 1;
nodes = (
"492 0 OFFCURVE",
"602 138 OFFCURVE",
"602 328 CURVE SMOOTH",
"602 513 OFFCURVE",
"498 644 OFFCURVE",
"351 644 CURVE SMOOTH",
"197 644 OFFCURVE",
"78 500 OFFCURVE",
"78 313 CURVE SMOOTH",
"78 133 OFFCURVE",
"189 0 OFFCURVE",
"340 0 CURVE SMOOTH"
);
},
{
closed = 1;
nodes = (
"214 29 OFFCURVE",
"112 158 OFFCURVE",
"112 327 CURVE SMOOTH",
"112 494 OFFCURVE",
"209 612 OFFCURVE",
"347 612 CURVE SMOOTH",
"402 612 OFFCURVE",
"455 593 OFFCURVE",
"497 558 CURVE",
"543 485 OFFCURVE",
"567 402 OFFCURVE",
"567 316 CURVE SMOOTH",
"567 149 OFFCURVE",
"475 29 OFFCURVE",
"347 29 CURVE SMOOTH"
);
},
{
closed = 1;
nodes = (
"882 0 LINE",
"882 205 LINE",
"874 205 LINE",
"844 30 LINE",
"408 30 LINE",
"340 0 LINE"
);
},
{
closed = 1;
nodes = (
"779 228 LINE",
"779 437 LINE",
"771 437 LINE",
"739 332 LINE",
"771 228 LINE"
);
},
{
closed = 1;
nodes = (
"872 460 LINE",
"872 644 LINE",
"351 644 LINE",
"395 614 LINE",
"835 614 LINE",
"864 460 LINE"
);
}
);
};
layerId = "0E5388DE-A0E6-4EB4-BC9B-CE5870C9023F";
paths = (
{
closed = 1;
nodes = (
"844 30 LINE",
"442 30 LINE",
"448 26 LINE",
"542 75 OFFCURVE",
"602 187 OFFCURVE",
"602 328 CURVE SMOOTH",
"602 464 OFFCURVE",
"546 571 OFFCURVE",
"458 618 CURVE",
"452 614 LINE",
"835 614 LINE",
"864 460 LINE",
"872 460 LINE",
"872 644 LINE",
"351 644 LINE SMOOTH",
"197 644 OFFCURVE",
"78 500 OFFCURVE",
"78 313 CURVE SMOOTH",
"78 133 OFFCURVE",
"189 0 OFFCURVE",
"340 0 CURVE SMOOTH",
"882 0 LINE",
"882 205 LINE",
"874 205 LINE"
);
},
{
closed = 1;
nodes = (
"112 494 OFFCURVE",
"209 612 OFFCURVE",
"347 612 CURVE SMOOTH",
"402 612 OFFCURVE",
"455 593 OFFCURVE",
"497 558 CURVE",
"543 485 OFFCURVE",
"567 402 OFFCURVE",
"567 316 CURVE SMOOTH",
"567 149 OFFCURVE",
"475 29 OFFCURVE",
"347 29 CURVE SMOOTH",
"214 29 OFFCURVE",
"112 158 OFFCURVE",
"112 327 CURVE SMOOTH"
);
},
{
closed = 1;
nodes = (
"779 228 LINE",
"779 437 LINE",
"771 437 LINE",
"739 332 LINE",
"771 228 LINE"
);
},
{
closed = 1;
nodes = (
"763 317 LINE",
"763 347 LINE",
"586 347 LINE",
"586 317 LINE"
);
}
);
width = 989;
},
{
anchors = (
{
name = bottom;
position = "{558, 0}";
},
{
name = top;
position = "{558, 688}";
}
);
background = {
paths = (
{
closed = 1;
nodes = (
"561 0 OFFCURVE",
"678 133 OFFCURVE",
"678 355 CURVE SMOOTH",
"678 570 OFFCURVE",
"568 688 OFFCURVE",
"361 688 CURVE SMOOTH",
"142 688 OFFCURVE",
"14 555 OFFCURVE",
"14 335 CURVE SMOOTH",
"14 122 OFFCURVE",
"134 0 OFFCURVE",
"343 0 CURVE SMOOTH"
);
},
{
closed = 1;
nodes = (
"283 139 OFFCURVE",
"253 204 OFFCURVE",
"253 344 CURVE SMOOTH",
"253 489 OFFCURVE",
"285 550 OFFCURVE",
"365 550 CURVE SMOOTH",
"388 550 OFFCURVE",
"409 545 OFFCURVE",
"432 535 CURVE",
"444 480 OFFCURVE",
"449 426 OFFCURVE",
"449 360 CURVE SMOOTH",
"449 206 OFFCURVE",
"422 139 OFFCURVE",
"352 139 CURVE SMOOTH"
);
},
{
closed = 1;
nodes = (
"1008 0 LINE",
"1008 256 LINE",
"916 256 LINE",
"866 139 LINE",
"502 139 LINE",
"343 0 LINE"
);
},
{
closed = 1;
nodes = (
"852 207 LINE",
"852 489 LINE",
"768 489 LINE",
"700 348 LINE",
"768 207 LINE"
);
},
{
closed = 1;
nodes = (
"999 450 LINE",
"999 688 LINE",
"361 688 LINE",
"514 550 LINE",
"860 550 LINE",
"906 450 LINE"
);
}
);
};
layerId = "A6FDB8B9-512B-4F31-B986-CD5B604F5662";
paths = (
{
closed = 1;
nodes = (
"866 139 LINE",
"528 139 LINE",
"592 94 LINE",
"648 155 OFFCURVE",
"678 244 OFFCURVE",
"678 355 CURVE SMOOTH",
"678 458 OFFCURVE",
"652 539 OFFCURVE",
"604 596 CURVE",
"537 550 LINE",
"860 550 LINE",
"906 450 LINE",
"999 450 LINE",
"999 688 LINE",
"361 688 LINE SMOOTH",
"142 688 OFFCURVE",
"14 555 OFFCURVE",
"14 335 CURVE SMOOTH",
"14 122 OFFCURVE",
"134 0 OFFCURVE",
"343 0 CURVE SMOOTH",
"1008 0 LINE",
"1008 256 LINE",
"916 256 LINE"
);
},
{
closed = 1;
nodes = (
"253 489 OFFCURVE",
"285 550 OFFCURVE",
"365 550 CURVE SMOOTH",
"388 550 OFFCURVE",
"409 545 OFFCURVE",
"432 535 CURVE",
"444 480 OFFCURVE",
"449 426 OFFCURVE",
"449 360 CURVE SMOOTH",
"449 206 OFFCURVE",
"422 139 OFFCURVE",
"352 139 CURVE SMOOTH",
"283 139 OFFCURVE",
"253 204 OFFCURVE",
"253 344 CURVE SMOOTH"
);
},
{
closed = 1;
nodes = (
"852 207 LINE",
"852 489 LINE",
"768 489 LINE",
"700 348 LINE",
"768 207 LINE"
);
},
{
closed = 1;
nodes = (
"795 281 LINE",
"795 420 LINE",
"542 420 LINE",
"542 281 LINE"
);
}
);
width = 1054;
}
);
leftKerningGroup = O;
rightKerningGroup = E;
unicode = 0152;
},
{
color = 4;
glyphname = P;
lastChange = "2020-01-24 22:38:29 +0000";
layers = (
{
anchors = (
{
name = _center;
position = "{475, 285}";
},
{
name = bottom;
position = "{355, 0}";
},
{
name = top;
position = "{355, 688}";
}
);
layerId = "A6FDB8B9-512B-4F31-B986-CD5B604F5662";
paths = (
{
closed = 1;
nodes = (
"8 688 LINE",
"8 605 LINE",
"102 572 LINE",
"89 112 LINE",
"59 102 OFFCURVE",
"34 91 OFFCURVE",
"8 76 CURVE",
"8 0 LINE",
"444 0 LINE",
"444 84 LINE",
"323 107 LINE",
"323 556 LINE",
"383 556 LINE SMOOTH",
"436 556 OFFCURVE",
"465 527 OFFCURVE",
"465 461 CURVE SMOOTH",
"465 422 OFFCURVE",
"455 387 OFFCURVE",
"438 361 CURVE",
"205 361 LINE",
"205 229 LINE",
"411 229 LINE SMOOTH",
"585 229 OFFCURVE",
"702 326 OFFCURVE",
"702 470 CURVE SMOOTH",
"702 602 OFFCURVE",
"603 688 OFFCURVE",
"449 688 CURVE SMOOTH"
);
}
);
width = 694;
},
{
anchors = (
{
name = _center;
position = "{422, 287}";
},
{
name = bottom;
position = "{186, 0}";
},
{
name = top;
position = "{307, 644}";
}
);
layerId = "0E5388DE-A0E6-4EB4-BC9B-CE5870C9023F";
paths = (
{
closed = 1;
nodes = (
"48 644 LINE",
"48 633 LINE",
"173 615 LINE",
"165 29 LINE",
"107 27 OFFCURVE",
"70 21 OFFCURVE",
"48 10 CURVE",
"48 0 LINE",
"348 0 LINE",
"348 12 LINE",
"203 30 LINE",
"203 614 LINE",
"358 614 LINE SMOOTH",
"464 614 OFFCURVE",
"521 560 OFFCURVE",
"521 461 CURVE SMOOTH",
"521 390 OFFCURVE",
"490 342 OFFCURVE",
"415 298 CURVE",
"186 298 LINE",
"186 268 LINE",
"336 268 LINE SMOOTH",
"468 268 OFFCURVE",
"554 347 OFFCURVE",
"554 468 CURVE SMOOTH",
"554 579 OFFCURVE",
"483 644 OFFCURVE",
"361 644 CURVE SMOOTH"
);
}
);
width = 611;
}
);
leftKerningGroup = H;
rightKerningGroup = P;
unicode = 0050;
},
{
color = 4;
glyphname = Thorn;
lastChange = "2020-01-24 22:38:29 +0000";
layers = (
{
anchors = (
{
name = bottom;
position = "{186, 0}";
},
{
name = top;
position = "{186, 644}";
}
);
layerId = "0E5388DE-A0E6-4EB4-BC9B-CE5870C9023F";
paths = (
{
closed = 1;
nodes = (
"320 0 LINE",
"320 12 LINE",
"203 30 LINE",
"203 616 LINE",
"246 619 OFFCURVE",
"285 626 OFFCURVE",
"320 635 CURVE",
"320 644 LINE",
"48 644 LINE",
"48 633 LINE",
"173 615 LINE",
"165 29 LINE",
"128 27 OFFCURVE",
"89 21 OFFCURVE",
"48 10 CURVE",
"48 0 LINE"
);
},
{
closed = 1;
nodes = (
"336 148 LINE SMOOTH",
"468 148 OFFCURVE",
"554 227 OFFCURVE",
"554 348 CURVE SMOOTH",
"554 459 OFFCURVE",
"483 524 OFFCURVE",
"361 524 CURVE",
"186 524 LINE",
"186 494 LINE",
"358 494 LINE SMOOTH",
"464 494 OFFCURVE",
"521 440 OFFCURVE",
"521 341 CURVE SMOOTH",
"521 270 OFFCURVE",
"490 222 OFFCURVE",
"415 178 CURVE",
"186 178 LINE",
"186 148 LINE"
);
}
);
width = 611;
},
{
anchors = (
{
name = bottom;
position = "{197, 0}";
},
{
name = top;
position = "{197, 688}";
}
);
layerId = "A6FDB8B9-512B-4F31-B986-CD5B604F5662";
paths = (
{
closed = 1;
nodes = (
"403 0 LINE",
"403 81 LINE",
"323 104 LINE",
"323 580 LINE",
"351 588 OFFCURVE",
"379 603 OFFCURVE",
"403 616 CURVE",
"403 688 LINE",
"8 688 LINE",
"8 605 LINE",
"102 572 LINE",
"89 112 LINE",
"60 102 OFFCURVE",
"34 91 OFFCURVE",
"8 76 CURVE",
"8 0 LINE"
);
},
{
closed = 1;
nodes = (
"414 133 LINE SMOOTH",
"588 133 OFFCURVE",
"705 222 OFFCURVE",
"705 355 CURVE SMOOTH",
"705 476 OFFCURVE",
"606 555 OFFCURVE",
"452 555 CURVE SMOOTH",
"208 555 LINE",
"208 420 LINE",
"397 420 LINE SMOOTH",
"450 420 OFFCURVE",
"479 398 OFFCURVE",
"479 346 CURVE SMOOTH",
"479 316 OFFCURVE",
"469 289 OFFCURVE",
"452 268 CURVE",
"208 268 LINE",
"208 133 LINE"
);
}
);
width = 693;
}
);
leftKerningGroup = H;
rightKerningGroup = P;
unicode = 00DE;
},
{
color = 4;
glyphname = Q;
lastChange = "2020-01-24 22:38:29 +0000";
layers = (
{
anchors = (
{
name = bottom;
position = "{374, 0}";
},
{
name = top;
position = "{370, 688}";
}
);
background = {
paths = (
{
closed = 1;
nodes = (
"582 -15 OFFCURVE",
"715 122 OFFCURVE",
"715 362 CURVE SMOOTH",
"715 578 OFFCURVE",
"589 703 OFFCURVE",
"370 703 CURVE SMOOTH",
"150 703 OFFCURVE",
"16 564 OFFCURVE",
"16 336 CURVE SMOOTH",
"16 112 OFFCURVE",
"139 -15 OFFCURVE",
"354 -15 CURVE SMOOTH"
);
},
{
closed = 1;
nodes = (
"733 -132 OFFCURVE",
"776 -87 OFFCURVE",
"823 -26 CURVE",
"660 20 LINE SMOOTH",
"561 48 OFFCURVE",
"469 67 OFFCURVE",
"380 77 CURVE",
"261 34 LINE",
"670 -183 LINE"
);
},
{
closed = 1;
nodes = (
"288 122 OFFCURVE",
"253 189 OFFCURVE",
"253 340 CURVE SMOOTH",
"253 414 OFFCURVE",
"264 479 OFFCURVE",
"285 542 CURVE",
"309 552 OFFCURVE",
"334 558 OFFCURVE",
"356 558 CURVE SMOOTH",
"440 558 OFFCURVE",
"475 494 OFFCURVE",
"475 344 CURVE SMOOTH",
"475 190 OFFCURVE",
"442 122 OFFCURVE",
"367 122 CURVE SMOOTH"
);
}
);
};
layerId = "A6FDB8B9-512B-4F31-B986-CD5B604F5662";
paths = (
{
closed = 1;
nodes = (
"582 -15 OFFCURVE",
"715 122 OFFCURVE",
"715 362 CURVE SMOOTH",
"715 578 OFFCURVE",
"589 703 OFFCURVE",
"370 703 CURVE SMOOTH",
"150 703 OFFCURVE",
"16 564 OFFCURVE",
"16 336 CURVE SMOOTH",
"16 112 OFFCURVE",
"139 -15 OFFCURVE",
"354 -15 CURVE SMOOTH"
);
},
{
closed = 1;
nodes = (
"733 -132 OFFCURVE",
"776 -87 OFFCURVE",
"823 -26 CURVE",
"660 20 LINE SMOOTH",
"561 48 OFFCURVE",
"469 67 OFFCURVE",
"380 77 CURVE",
"320 3 LINE",
"670 -183 LINE"
);
},
{
closed = 1;
nodes = (
"288 122 OFFCURVE",
"253 189 OFFCURVE",
"253 340 CURVE SMOOTH",
"253 414 OFFCURVE",
"264 479 OFFCURVE",
"285 542 CURVE",
"309 552 OFFCURVE",
"334 558 OFFCURVE",
"356 558 CURVE SMOOTH",
"440 558 OFFCURVE",
"475 494 OFFCURVE",
"475 344 CURVE SMOOTH",
"475 190 OFFCURVE",
"442 122 OFFCURVE",
"367 122 CURVE SMOOTH"
);
}
);
width = 744;
},
{
anchors = (
{
name = bottom;
position = "{364, 0}";
},
{
name = top;
position = "{364, 644}";
}
);
layerId = "0E5388DE-A0E6-4EB4-BC9B-CE5870C9023F";
paths = (
{
closed = 1;
nodes = (
"520 -6 OFFCURVE",
"642 138 OFFCURVE",
"642 329 CURVE SMOOTH",
"642 516 OFFCURVE",
"524 652 OFFCURVE",
"365 652 CURVE SMOOTH",
"200 652 OFFCURVE",
"78 507 OFFCURVE",
"78 314 CURVE SMOOTH",
"78 126 OFFCURVE",
"194 -6 OFFCURVE",
"353 -6 CURVE SMOOTH"
);
},
{
closed = 1;
nodes = (
"692 -101 OFFCURVE",
"703 -92 OFFCURVE",
"713 -82 CURVE",
"550 -28 LINE SMOOTH",
"483 -6 OFFCURVE",
"439 5 OFFCURVE",
"382 17 CURVE",
"374 1 LINE",
"681 -108 LINE"
);
},
{
closed = 1;
nodes = (
"216 24 OFFCURVE",
"112 149 OFFCURVE",
"112 316 CURVE SMOOTH",
"112 401 OFFCURVE",
"139 486 OFFCURVE",
"192 564 CURVE",
"243 602 OFFCURVE",
"304 619 OFFCURVE",
"360 619 CURVE SMOOTH",
"507 619 OFFCURVE",
"607 499 OFFCURVE",
"607 328 CURVE SMOOTH",
"607 152 OFFCURVE",
"501 24 OFFCURVE",
"358 24 CURVE SMOOTH"
);
}
);
width = 724;
}
);
leftKerningGroup = O;
rightKerningGroup = O;
unicode = 0051;
},
{
color = 4;
glyphname = R;
lastChange = "2020-01-24 22:38:29 +0000";
layers = (
{
anchors = (
{
name = bottom;
position = "{390, 0}";
},
{
name = top;
position = "{390, 688}";
}
);
layerId = "A6FDB8B9-512B-4F31-B986-CD5B604F5662";
paths = (
{
closed = 1;
nodes = (
"690 168 LINE SMOOTH",
"676 252 OFFCURVE",
"635 301 OFFCURVE",
"558 323 CURVE",
"650 354 OFFCURVE",
"712 427 OFFCURVE",
"712 512 CURVE SMOOTH",
"712 621 OFFCURVE",
"609 688 OFFCURVE",
"444 688 CURVE SMOOTH",
"8 688 LINE",
"8 605 LINE",
"103 572 LINE",
"90 112 LINE",
"54 99 OFFCURVE",
"29 88 OFFCURVE",
"8 76 CURVE",
"8 0 LINE",
"406 0 LINE",
"406 84 LINE",
"324 107 LINE",
"324 556 LINE",
"393 556 LINE SMOOTH",
"446 556 OFFCURVE",
"475 527 OFFCURVE",
"475 472 CURVE SMOOTH",
"475 438 OFFCURVE",
"463 411 OFFCURVE",
"438 386 CURVE",
"210 386 LINE",
"210 254 LINE",
"384 254 LINE SMOOTH",
"432 254 OFFCURVE",
"447 239 OFFCURVE",
"455 183 CURVE SMOOTH",
"480 0 LINE",
"782 0 LINE",
"782 84 LINE",
"700 108 LINE"
);
}
);
width = 762;
},
{
anchors = (
{
name = bottom;
position = "{346, 0}";
},
{
name = top;
position = "{346, 644}";
}
);
layerId = "0E5388DE-A0E6-4EB4-BC9B-CE5870C9023F";
paths = (
{
closed = 1;
nodes = (
"523 185 LINE SMOOTH",
"507 264 OFFCURVE",
"475 303 OFFCURVE",
"416 316 CURVE",
"503 340 OFFCURVE",
"560 408 OFFCURVE",
"560 489 CURVE SMOOTH",
"560 581 OFFCURVE",
"486 644 OFFCURVE",
"376 644 CURVE SMOOTH",
"48 644 LINE",
"48 633 LINE",
"173 615 LINE",
"165 29 LINE",
"109 27 OFFCURVE",
"70 21 OFFCURVE",
"48 10 CURVE",
"48 0 LINE",
"320 0 LINE",
"320 12 LINE",
"203 30 LINE",
"203 614 LINE",
"373 614 LINE SMOOTH",
"468 614 OFFCURVE",
"527 563 OFFCURVE",
"527 481 CURVE SMOOTH",
"527 414 OFFCURVE",
"487 367 OFFCURVE",
"395 328 CURVE",
"193 328 LINE",
"193 298 LINE",
"355 298 LINE SMOOTH",
"436 298 OFFCURVE",
"472 267 OFFCURVE",
"488 182 CURVE SMOOTH",
"523 0 LINE",
"656 0 LINE",
"656 12 LINE",
"554 32 LINE"
);
}
);
width = 688;
}
);
leftKerningGroup = H;
rightKerningGroup = R;
unicode = 0052;
},
{
color = 4;
glyphname = S;
lastChange = "2020-01-24 22:38:29 +0000";
layers = (
{
anchors = (
{
name = bottom;
position = "{303, 0}";
},
{
name = top;
position = "{344, 687}";
}
);
layerId = "A6FDB8B9-512B-4F31-B986-CD5B604F5662";
paths = (
{
closed = 1;
nodes = (
"492 -15 OFFCURVE",
"638 70 OFFCURVE",
"638 206 CURVE SMOOTH",
"638 425 OFFCURVE",
"265 451 OFFCURVE",
"265 524 CURVE SMOOTH",
"265 534 OFFCURVE",
"268 539 OFFCURVE",
"274 548 CURVE",
"292 549 OFFCURVE",
"309 550 OFFCURVE",
"327 550 CURVE SMOOTH",
"401 550 OFFCURVE",
"474 539 OFFCURVE",
"544 513 CURVE",
"613 671 LINE",
"534 694 OFFCURVE",
"454 702 OFFCURVE",
"384 702 CURVE SMOOTH",
"185 702 OFFCURVE",
"42 625 OFFCURVE",
"42 487 CURVE SMOOTH",
"42 266 OFFCURVE",
"416 240 OFFCURVE",
"416 170 CURVE SMOOTH",
"416 158 OFFCURVE",
"412 148 OFFCURVE",
"406 140 CURVE",
"385 138 OFFCURVE",
"365 137 OFFCURVE",
"344 137 CURVE SMOOTH",
"275 137 OFFCURVE",
"208 149 OFFCURVE",
"141 171 CURVE",
"37 25 LINE",
"124 -3 OFFCURVE",
"213 -15 OFFCURVE",
"288 -15 CURVE SMOOTH"
);
},
{
closed = 1;
nodes = (
"142 252 LINE",
"41 252 LINE",
"37 25 LINE",
"248 21 LINE"
);
},
{
closed = 1;
nodes = (
"609 443 LINE",
"613 671 LINE",
"403 675 LINE",
"507 443 LINE"
);
}
);
width = 665;
},
{
anchors = (
{
name = bottom;
position = "{296, 0}";
},
{
name = top;
position = "{320, 644}";
}
);
layerId = "0E5388DE-A0E6-4EB4-BC9B-CE5870C9023F";
paths = (
{
closed = 1;
nodes = (
"421 -8 OFFCURVE",
"519 54 OFFCURVE",
"519 150 CURVE SMOOTH",
"519 332 OFFCURVE",
"138 335 OFFCURVE",
"138 504 CURVE SMOOTH",
"138 548 OFFCURVE",
"164 587 OFFCURVE",
"201 608 CURVE",
"240 616 OFFCURVE",
"281 620 OFFCURVE",
"325 620 CURVE SMOOTH",
"376 620 OFFCURVE",
"431 614 OFFCURVE",
"488 604 CURVE",
"494 630 LINE",
"442 644 OFFCURVE",
"390 651 OFFCURVE",
"340 651 CURVE SMOOTH",
"196 651 OFFCURVE",
"106 592 OFFCURVE",
"106 497 CURVE SMOOTH",
"106 307 OFFCURVE",
"486 296 OFFCURVE",
"486 145 CURVE SMOOTH",
"486 101 OFFCURVE",
"454 58 OFFCURVE",
"404 30 CURVE",
"365 25 OFFCURVE",
"327 23 OFFCURVE",
"290 23 CURVE SMOOTH",
"222 23 OFFCURVE",
"156 31 OFFCURVE",
"97 46 CURVE",
"89 18 LINE",
"154 1 OFFCURVE",
"213 -8 OFFCURVE",
"271 -8 CURVE SMOOTH"
);
},
{
closed = 1;
nodes = (
"102 199 LINE",
"94 199 LINE",
"89 18 LINE",
"130 19 LINE"
);
},
{
closed = 1;
nodes = (
"487 459 LINE",
"494 630 LINE",
"453 630 LINE",
"479 459 LINE"
);
}
);
width = 602;
}
);
leftKerningGroup = S;
rightKerningGroup = S;
unicode = 0053;
},
{
color = 4;
glyphname = Scaron;
lastChange = "2020-01-24 22:38:29 +0000";
layers = (
{
anchors = (
{
name = top;
position = "{320, 840}";
}
);
components = (
{
name = S;
}
);
layerId = "0E5388DE-A0E6-4EB4-BC9B-CE5870C9023F";
paths = (
{
closed = 1;
nodes = (
"327 747 LINE",
"430 838 LINE",
"419 850 LINE",
"322 776 LINE",
"223 850 LINE",
"212 838 LINE",
"315 747 LINE"
);
}
);
width = 602;
},
{
anchors = (
{
name = top;
position = "{344, 948}";
}
);
components = (
{
name = S;
}
);
layerId = "A6FDB8B9-512B-4F31-B986-CD5B604F5662";
paths = (
{
closed = 1;
nodes = (
"414 752 LINE",
"552 924 LINE",
"474 998 LINE",
"343 896 LINE",
"213 998 LINE",
"135 924 LINE",
"272 752 LINE"
);
}
);
width = 665;
}
);
leftKerningGroup = S;
rightKerningGroup = S;
unicode = 0160;
},
{
color = 4;
glyphname = T;
lastChange = "2020-01-24 22:38:29 +0000";
layers = (
{
anchors = (
{
name = bottom;
position = "{357, 0}";
},
{
name = center;
position = "{357, 330}";
},
{
name = top;
position = "{357, 688}";
}
);
layerId = "A6FDB8B9-512B-4F31-B986-CD5B604F5662";
paths = (
{
closed = 1;
nodes = (
"3 688 LINE",
"3 403 LINE",
"95 403 LINE",
"152 556 LINE",
"247 556 LINE",
"234 117 LINE",
"189 107 OFFCURVE",
"150 91 OFFCURVE",
"111 76 CURVE",
"111 0 LINE",
"590 0 LINE",
"590 84 LINE",
"468 112 LINE",
"468 556 LINE",
"561 556 LINE",
"618 403 LINE",
"710 403 LINE",
"710 688 LINE"
);
}
);
width = 712;
},
{
anchors = (
{
name = bottom;
position = "{342, 0}";
},
{
name = center;
position = "{342, 322}";
},
{
name = top;
position = "{343, 644}";
}
);
layerId = "0E5388DE-A0E6-4EB4-BC9B-CE5870C9023F";
paths = (
{
closed = 1;
nodes = (
"67 644 LINE",
"67 403 LINE",
"75 403 LINE",
"105 614 LINE",
"328 614 LINE",
"320 29 LINE",
"276 27 OFFCURVE",
"229 21 OFFCURVE",
"180 10 CURVE",
"180 0 LINE",
"499 0 LINE",
"499 12 LINE",
"358 30 LINE",
"358 614 LINE",
"579 614 LINE",
"609 403 LINE",
"617 403 LINE",
"617 644 LINE"
);
}
);
width = 684;
}
);
leftKerningGroup = T;
rightKerningGroup = T;
unicode = 0054;
},
{
color = 4;
glyphname = U;
lastChange = "2020-01-24 22:38:29 +0000";
layers = (
{
anchors = (
{
name = bottom;
position = "{365, 0}";
},
{
name = ogonek;
position = "{584, 10}";
},
{
name = top;
position = "{405, 688}";
},
{
name = topright;
position = "{732, 688}";
}
);
layerId = "A6FDB8B9-512B-4F31-B986-CD5B604F5662";
paths = (
{
closed = 1;
nodes = (
"565 -15 OFFCURVE",
"679 77 OFFCURVE",
"679 241 CURVE SMOOTH",
"679 576 LINE",
"704 585 OFFCURVE",
"731 597 OFFCURVE",
"760 612 CURVE",
"760 688 LINE",
"443 688 LINE",
"443 605 LINE",
"521 572 LINE",
"511 164 LINE",
"487 143 OFFCURVE",
"448 131 OFFCURVE",
"410 131 CURVE SMOOTH",
"344 131 OFFCURVE",
"300 166 OFFCURVE",
"300 215 CURVE SMOOTH",
"300 576 LINE",
"332 588 OFFCURVE",
"350 597 OFFCURVE",
"371 612 CURVE",
"371 688 LINE",
"-15 688 LINE",
"-15 605 LINE",
"79 572 LINE",
"69 228 LINE",
"69 79 OFFCURVE",
"183 -15 OFFCURVE",
"375 -15 CURVE SMOOTH"
);
}
);
width = 748;
},
{
anchors = (
{
name = bottom;
position = "{384, 0}";
},
{
name = ogonek;
position = "{515, 10}";
},
{
name = top;
position = "{384, 644}";
},
{
name = topright;
position = "{728, 644}";
}
);
layerId = "0E5388DE-A0E6-4EB4-BC9B-CE5870C9023F";
paths = (
{
closed = 1;
nodes = (
"532 -8 OFFCURVE",
"619 70 OFFCURVE",
"619 205 CURVE SMOOTH",
"618 616 LINE",
"669 619 OFFCURVE",
"706 625 OFFCURVE",
"735 635 CURVE",
"735 644 LINE",
"463 644 LINE",
"463 633 LINE",
"588 615 LINE",
"584 120 LINE",
"537 50 OFFCURVE",
"480 22 OFFCURVE",
"382 22 CURVE SMOOTH",
"251 22 OFFCURVE",
"185 80 OFFCURVE",
"185 195 CURVE SMOOTH",
"185 616 LINE",
"236 619 OFFCURVE",
"273 625 OFFCURVE",
"302 635 CURVE",
"302 644 LINE",
"30 644 LINE",
"30 633 LINE",
"155 615 LINE",
"149 195 LINE",
"149 62 OFFCURVE",
"230 -8 OFFCURVE",
"382 -8 CURVE SMOOTH"
);
}
);
width = 767;
}
);
leftKerningGroup = U;
rightKerningGroup = U;
unicode = 0055;
},
{
color = 4;
glyphname = Uacute;
lastChange = "2020-01-24 22:38:29 +0000";
layers = (
{
anchors = (
{
name = top;
position = "{384, 869}";
}
);
components = (
{
name = U;
}
);
layerId = "0E5388DE-A0E6-4EB4-BC9B-CE5870C9023F";
paths = (
{
closed = 1;
nodes = (
"378 767 OFFCURVE",
"436 805 OFFCURVE",
"491 847 CURVE",
"475 869 LINE",
"469 869 LINE",
"313 740 LINE",
"319 731 LINE"
);
}
);
width = 767;
},
{
anchors = (
{
name = top;
position = "{405, 925}";
}
);
components = (
{
name = U;
}
);
layerId = "A6FDB8B9-512B-4F31-B986-CD5B604F5662";
paths = (
{
closed = 1;
nodes = (
"389 763 OFFCURVE",
"481 797 OFFCURVE",
"572 839 CURVE",
"498 986 LINE",
"471 986 LINE",
"252 808 LINE",
"294 735 LINE"
);
}
);
width = 748;
}
);
leftKerningGroup = U;
rightKerningGroup = U;
unicode = 00DA;
},
{
color = 4;
glyphname = Udieresis;
lastChange = "2020-01-24 22:38:29 +0000";
layers = (
{
anchors = (
{
name = top;
position = "{384, 834}";
}
);
components = (
{
name = U;
}
);
layerId = "0E5388DE-A0E6-4EB4-BC9B-CE5870C9023F";
paths = (
{
closed = 1;
nodes = (
"307 831 OFFCURVE",
"293 822 OFFCURVE",
"282 811 CURVE",
"286 796 OFFCURVE",
"295 783 OFFCURVE",
"305 772 CURVE",
"320 774 OFFCURVE",
"335 783 OFFCURVE",
"344 793 CURVE",
"342 808 OFFCURVE",
"334 823 OFFCURVE",
"323 834 CURVE"
);
},
{
closed = 1;
nodes = (
"449 831 OFFCURVE",
"434 822 OFFCURVE",
"424 811 CURVE",
"428 796 OFFCURVE",
"435 783 OFFCURVE",
"447 772 CURVE",
"462 774 OFFCURVE",
"476 783 OFFCURVE",
"486 793 CURVE",
"484 808 OFFCURVE",
"475 823 OFFCURVE",
"465 834 CURVE"
);
}
);
width = 767;
},
{
anchors = (
{
name = top;
position = "{405, 980}";
}
);
components = (
{
name = U;
}
);
layerId = "A6FDB8B9-512B-4F31-B986-CD5B604F5662";
paths = (
{
closed = 1;
nodes = (
"255 971 OFFCURVE",
"202 938 OFFCURVE",
"164 899 CURVE",
"174 841 OFFCURVE",
"207 785 OFFCURVE",
"249 752 CURVE",
"303 759 OFFCURVE",
"359 793 OFFCURVE",
"394 835 CURVE",
"386 890 OFFCURVE",
"354 942 OFFCURVE",
"311 980 CURVE"
);
},
{
closed = 1;
nodes = (
"506 971 OFFCURVE",
"453 938 OFFCURVE",
"415 899 CURVE",
"424 841 OFFCURVE",
"457 785 OFFCURVE",
"499 752 CURVE",
"554 759 OFFCURVE",
"610 793 OFFCURVE",
"645 835 CURVE",
"636 890 OFFCURVE",
"603 942 OFFCURVE",
"561 980 CURVE"
);
}
);
width = 748;
}
);
leftKerningGroup = U;
rightKerningGroup = U;
unicode = 00DC;
},
{
color = 4;
glyphname = Ugrave;
lastChange = "2020-01-24 22:38:29 +0000";
layers = (
{
anchors = (
{
name = top;
position = "{384, 869}";
}
);
components = (
{
name = U;
}
);
layerId = "0E5388DE-A0E6-4EB4-BC9B-CE5870C9023F";
paths = (
{
closed = 1;
nodes = (
"473 740 LINE",
"317 869 LINE",
"311 869 LINE",
"295 847 LINE",
"350 805 OFFCURVE",
"408 767 OFFCURVE",
"467 731 CURVE"
);
}
);
width = 767;
},
{
anchors = (
{
name = top;
position = "{405, 986}";
}
);
components = (
{
name = U;
}
);
layerId = "A6FDB8B9-512B-4F31-B986-CD5B604F5662";
paths = (
{
closed = 1;
nodes = (
"565 808 LINE",
"346 986 LINE",
"319 986 LINE",
"245 839 LINE",
"336 797 OFFCURVE",
"428 763 OFFCURVE",
"523 735 CURVE"
);
}
);
width = 748;
}
);
leftKerningGroup = U;
rightKerningGroup = U;
unicode = 00D9;
},
{
color = 4;
glyphname = V;
lastChange = "2020-01-24 22:38:29 +0000";
layers = (
{
anchors = (
{
name = bottom;
position = "{357, 0}";
},
{
name = top;
position = "{357, 688}";
}
);
background = {
paths = (
{
closed = 1;
nodes = (
"487 0 LINE",
"718 688 LINE",
"544 688 LINE",
"379 111 LINE",
"415 111 LINE",
"256 688 LINE",
"-10 688 LINE",
"229 0 LINE"
);
},
{
closed = 1;
nodes = (
"357 612 LINE",
"357 688 LINE",
"-34 688 LINE",
"-34 609 LINE",
"36 572 OFFCURVE",
"108 548 OFFCURVE",
"184 535 CURVE"
);
},
{
closed = 1;
nodes = (
"747 612 LINE",
"747 688 LINE",
"426 688 LINE",
"426 609 LINE",
"491 572 OFFCURVE",
"559 548 OFFCURVE",
"632 535 CURVE"
);
}
);
};
layerId = "A6FDB8B9-512B-4F31-B986-CD5B604F5662";
paths = (
{
closed = 1;
nodes = (
"487 0 LINE",
"715 678 LINE",
"541 678 LINE",
"379 111 LINE",
"415 111 LINE",
"259 678 LINE",
"-7 678 LINE",
"229 0 LINE"
);
},
{
closed = 1;
nodes = (
"357 612 LINE",
"357 688 LINE",
"-34 688 LINE",
"-34 609 LINE",
"36 572 OFFCURVE",
"108 548 OFFCURVE",
"184 535 CURVE"
);
},
{
closed = 1;
nodes = (
"747 612 LINE",
"747 688 LINE",
"426 688 LINE",
"426 609 LINE",
"491 572 OFFCURVE",
"559 548 OFFCURVE",
"632 535 CURVE"
);
}
);
width = 712;
},
{
anchors = (
{
name = bottom;
position = "{354, 0}";
},
{
name = top;
position = "{354, 644}";
}
);
background = {
paths = (
{
closed = 1;
nodes = (
"371 0 LINE",
"622 644 LINE",
"588 644 LINE",
"347 15 LINE",
"358 15 LINE",
"127 644 LINE",
"92 644 LINE",
"332 0 LINE"
);
},
{
closed = 1;
nodes = (
"250 633 LINE",
"250 644 LINE",
"26 644 LINE",
"26 635 LINE",
"56 626 OFFCURVE",
"89 620 OFFCURVE",
"120 616 CURVE"
);
},
{
closed = 1;
nodes = (
"679 633 LINE",
"679 644 LINE",
"446 644 LINE",
"446 635 LINE",
"497 626 OFFCURVE",
"548 620 OFFCURVE",
"599 616 CURVE"
);
}
);
};
layerId = "0E5388DE-A0E6-4EB4-BC9B-CE5870C9023F";
paths = (
{
closed = 1;
nodes = (
"371 0 LINE",
"618 634 LINE",
"584 634 LINE",
"347 15 LINE",
"358 15 LINE",
"131 634 LINE",
"96 634 LINE",
"332 0 LINE"
);
},
{
closed = 1;
nodes = (
"250 633 LINE",
"250 644 LINE",
"26 644 LINE",
"26 635 LINE",
"56 626 OFFCURVE",
"89 620 OFFCURVE",
"120 616 CURVE"
);
},
{
closed = 1;
nodes = (
"679 633 LINE",
"679 644 LINE",
"446 644 LINE",
"446 635 LINE",
"497 626 OFFCURVE",
"548 620 OFFCURVE",
"599 616 CURVE"
);
}
);
width = 705;
}
);
leftKerningGroup = V;
rightKerningGroup = V;
unicode = 0056;
},
{
color = 4;
glyphname = W;
lastChange = "2020-01-24 22:38:29 +0000";
layers = (
{
anchors = (
{
name = bottom;
position = "{528, 0}";
},
{
name = top;
position = "{528, 688}";
}
);
background = {
paths = (
{
closed = 1;
nodes = (
"847 0 LINE",
"1056 688 LINE",
"887 688 LINE",
"741 109 LINE",
"776 109 LINE",
"634 688 LINE",
"418 688 LINE",
"598 0 LINE"
);
},
{
closed = 1;
nodes = (
"459 0 LINE",
"592 516 LINE",
"488 644 LINE",
"355 109 LINE",
"388 109 LINE",
"250 688 LINE",
"-10 688 LINE",
"206 0 LINE"
);
},
{
closed = 1;
nodes = (
"340 612 LINE",
"340 688 LINE",
"-32 688 LINE",
"-32 609 LINE",
"33 572 OFFCURVE",
"98 548 OFFCURVE",
"170 535 CURVE"
);
},
{
closed = 1;
nodes = (
"731 612 LINE",
"731 688 LINE",
"394 688 LINE",
"394 609 LINE",
"454 572 OFFCURVE",
"516 548 OFFCURVE",
"583 535 CURVE"
);
},
{
closed = 1;
nodes = (
"1088 612 LINE",
"1088 688 LINE",
"785 688 LINE",
"785 609 LINE",
"844 572 OFFCURVE",
"904 548 OFFCURVE",
"970 535 CURVE"
);
}
);
};
layerId = "A6FDB8B9-512B-4F31-B986-CD5B604F5662";
paths = (
{
closed = 1;
nodes = (
"847 0 LINE",
"1053 678 LINE",
"884 678 LINE",
"741 109 LINE",
"776 109 LINE",
"636 678 LINE",
"420 678 LINE",
"598 0 LINE"
);
},
{
closed = 1;
nodes = (
"459 0 LINE",
"592 516 LINE",
"488 644 LINE",
"355 109 LINE",
"388 109 LINE",
"252 678 LINE",
"-8 678 LINE",
"206 0 LINE"
);
},
{
closed = 1;
nodes = (
"340 612 LINE",
"340 688 LINE",
"-32 688 LINE",
"-32 609 LINE",
"33 572 OFFCURVE",
"98 548 OFFCURVE",
"170 535 CURVE"
);
},
{
closed = 1;
nodes = (
"731 612 LINE",
"731 688 LINE",
"394 688 LINE",
"394 609 LINE",
"454 572 OFFCURVE",
"516 548 OFFCURVE",
"583 535 CURVE"
);
},
{
closed = 1;
nodes = (
"1088 612 LINE",
"1088 688 LINE",
"785 688 LINE",
"785 609 LINE",
"844 572 OFFCURVE",
"904 548 OFFCURVE",
"970 535 CURVE"
);
}
);
width = 1054;
},
{
anchors = (
{
name = bottom;
position = "{514, 0}";
},
{
name = top;
position = "{514, 644}";
}
);
background = {
paths = (
{
closed = 1;
nodes = (
"723 0 LINE",
"942 644 LINE",
"908 644 LINE",
"699 15 LINE",
"710 15 LINE",
"507 644 LINE",
"474 644 LINE",
"684 0 LINE"
);
},
{
closed = 1;
nodes = (
"336 0 LINE",
"523 551 LINE",
"503 586 LINE",
"313 15 LINE",
"324 15 LINE",
"123 644 LINE",
"88 644 LINE",
"298 0 LINE"
);
},
{
closed = 1;
nodes = (
"249 633 LINE",
"249 644 LINE",
"27 644 LINE",
"27 635 LINE",
"57 626 OFFCURVE",
"89 620 OFFCURVE",
"120 616 CURVE"
);
},
{
closed = 1;
nodes = (
"624 633 LINE",
"624 644 LINE",
"394 644 LINE",
"394 635 LINE",
"432 626 OFFCURVE",
"469 620 OFFCURVE",
"506 616 CURVE"
);
},
{
closed = 1;
nodes = (
"1000 633 LINE",
"1000 644 LINE",
"770 644 LINE",
"770 635 LINE",
"820 626 OFFCURVE",
"871 620 OFFCURVE",
"921 616 CURVE"
);
}
);
};
layerId = "0E5388DE-A0E6-4EB4-BC9B-CE5870C9023F";
paths = (
{
closed = 1;
nodes = (
"723 0 LINE",
"939 634 LINE",
"905 634 LINE",
"699 15 LINE",
"710 15 LINE",
"510 634 LINE",
"477 634 LINE",
"684 0 LINE"
);
},
{
closed = 1;
nodes = (
"336 0 LINE",
"523 551 LINE",
"503 586 LINE",
"313 15 LINE",
"324 15 LINE",
"126 634 LINE",
"91 634 LINE",
"298 0 LINE"
);
},
{
closed = 1;
nodes = (
"249 633 LINE",
"249 644 LINE",
"27 644 LINE",
"27 635 LINE",
"57 626 OFFCURVE",
"89 620 OFFCURVE",
"120 616 CURVE"
);
},
{
closed = 1;
nodes = (
"624 633 LINE",
"624 644 LINE",
"394 644 LINE",
"394 635 LINE",
"432 626 OFFCURVE",
"469 620 OFFCURVE",
"506 616 CURVE"
);
},
{
closed = 1;
nodes = (
"1000 633 LINE",
"1000 644 LINE",
"770 644 LINE",
"770 635 LINE",
"820 626 OFFCURVE",
"871 620 OFFCURVE",
"921 616 CURVE"
);
}
);
width = 1027;
}
);
leftKerningGroup = V;
rightKerningGroup = V;
unicode = 0057;
},
{
color = 4;
glyphname = X;
lastChange = "2020-01-24 22:38:29 +0000";
layers = (
{
anchors = (
{
name = bottom;
position = "{384, 0}";
},
{
name = center;
position = "{381, 349}";
},
{
name = top;
position = "{384, 688}";
}
);
background = {
paths = (
{
closed = 1;
nodes = (
"166 0 LINE",
"371 315 LINE",
"308 315 LINE",
"507 0 LINE",
"754 0 LINE",
"754 82 LINE",
"533 402 LINE",
"256 402 LINE",
"30 94 LINE",
"30 0 LINE"
);
},
{
closed = 1;
nodes = (
"528 322 LINE",
"740 610 LINE",
"739 688 LINE",
"592 688 LINE",
"414 410 LINE",
"475 410 LINE",
"298 688 LINE",
"40 688 LINE",
"40 619 LINE",
"252 322 LINE"
);
},
{
closed = 1;
nodes = (
"782 0 LINE",
"782 84 LINE",
"595 152 LINE",
"519 141 OFFCURVE",
"441 116 OFFCURVE",
"369 77 CURVE",
"369 0 LINE"
);
},
{
closed = 1;
nodes = (
"306 0 LINE",
"306 84 LINE",
"161 152 LINE",
"101 141 OFFCURVE",
"41 116 OFFCURVE",
"-16 77 CURVE",
"-16 0 LINE"
);
},
{
closed = 1;
nodes = (
"0 688 LINE",
"0 605 LINE",
"185 536 LINE",
"260 548 OFFCURVE",
"336 573 OFFCURVE",
"407 612 CURVE",
"407 688 LINE"
);
},
{
closed = 1;
nodes = (
"461 688 LINE",
"461 605 LINE",
"599 536 LINE",
"657 548 OFFCURVE",
"714 573 OFFCURVE",
"769 612 CURVE",
"769 688 LINE"
);
}
);
};
layerId = "A6FDB8B9-512B-4F31-B986-CD5B604F5662";
paths = (
{
closed = 1;
nodes = (
"172 10 LINE",
"371 315 LINE",
"308 315 LINE",
"501 10 LINE",
"754 10 LINE",
"754 82 LINE",
"533 402 LINE",
"256 402 LINE",
"30 94 LINE",
"30 10 LINE"
);
},
{
closed = 1;
nodes = (
"528 322 LINE",
"740 610 LINE",
"739 678 LINE",
"586 678 LINE",
"414 410 LINE",
"475 410 LINE",
"304 678 LINE",
"40 678 LINE",
"40 619 LINE",
"252 322 LINE"
);
},
{
closed = 1;
nodes = (
"782 0 LINE",
"782 84 LINE",
"595 152 LINE",
"519 141 OFFCURVE",
"441 116 OFFCURVE",
"369 77 CURVE",
"369 0 LINE"
);
},
{
closed = 1;
nodes = (
"306 0 LINE",
"306 84 LINE",
"161 152 LINE",
"101 141 OFFCURVE",
"41 116 OFFCURVE",
"-16 77 CURVE",
"-16 0 LINE"
);
},
{
closed = 1;
nodes = (
"0 688 LINE",
"0 605 LINE",
"185 536 LINE",
"260 548 OFFCURVE",
"336 573 OFFCURVE",
"407 612 CURVE",
"407 688 LINE"
);
},
{
closed = 1;
nodes = (
"461 688 LINE",
"461 605 LINE",
"599 536 LINE",
"657 548 OFFCURVE",
"714 573 OFFCURVE",
"769 612 CURVE",
"769 688 LINE"
);
}
);
width = 768;
},
{
anchors = (
{
name = bottom;
position = "{383, 0}";
},
{
name = center;
position = "{384, 344}";
},
{
name = top;
position = "{383, 644}";
}
);
background = {
paths = (
{
closed = 1;
nodes = (
"151 0 LINE",
"392 328 LINE",
"377 328 LINE",
"610 0 LINE",
"643 0 LINE",
"643 8 LINE",
"389 363 LINE",
"379 363 LINE",
"116 3 LINE",
"116 0 LINE"
);
},
{
closed = 1;
nodes = (
"390 327 LINE",
"615 638 LINE",
"615 641 LINE",
"581 641 LINE",
"379 363 LINE",
"391 363 LINE",
"192 642 LINE",
"160 642 LINE",
"160 633 LINE",
"378 327 LINE"
);
},
{
closed = 1;
nodes = (
"727 0 LINE",
"727 12 LINE",
"611 32 LINE",
"557 30 OFFCURVE",
"506 22 OFFCURVE",
"455 7 CURVE",
"455 0 LINE"
);
},
{
closed = 1;
nodes = (
"306 0 LINE",
"306 12 LINE",
"160 32 LINE",
"116 30 OFFCURVE",
"75 22 OFFCURVE",
"34 7 CURVE",
"34 0 LINE"
);
},
{
closed = 1;
nodes = (
"77 644 LINE",
"77 632 LINE",
"183 612 LINE",
"240 614 OFFCURVE",
"295 622 OFFCURVE",
"349 637 CURVE",
"349 644 LINE"
);
},
{
closed = 1;
nodes = (
"436 644 LINE",
"436 632 LINE",
"572 612 LINE",
"619 614 OFFCURVE",
"664 622 OFFCURVE",
"708 637 CURVE",
"708 644 LINE"
);
}
);
};
layerId = "0E5388DE-A0E6-4EB4-BC9B-CE5870C9023F";
paths = (
{
closed = 1;
nodes = (
"158 10 LINE",
"392 328 LINE",
"377 328 LINE",
"603 10 LINE",
"636 10 LINE",
"636 18 LINE",
"389 363 LINE",
"379 363 LINE",
"123 13 LINE",
"123 10 LINE"
);
},
{
closed = 1;
nodes = (
"390 327 LINE",
"610 631 LINE",
"610 634 LINE",
"576 634 LINE",
"379 363 LINE",
"391 363 LINE",
"198 634 LINE",
"166 634 LINE",
"166 625 LINE",
"378 327 LINE"
);
},
{
closed = 1;
nodes = (
"727 0 LINE",
"727 12 LINE",
"611 32 LINE",
"557 30 OFFCURVE",
"506 22 OFFCURVE",
"455 7 CURVE",
"455 0 LINE"
);
},
{
closed = 1;
nodes = (
"306 0 LINE",
"306 12 LINE",
"160 32 LINE",
"116 30 OFFCURVE",
"75 22 OFFCURVE",
"34 7 CURVE",
"34 0 LINE"
);
},
{
closed = 1;
nodes = (
"77 644 LINE",
"77 632 LINE",
"183 612 LINE",
"240 614 OFFCURVE",
"295 622 OFFCURVE",
"349 637 CURVE",
"349 644 LINE"
);
},
{
closed = 1;
nodes = (
"436 644 LINE",
"436 632 LINE",
"572 612 LINE",
"619 614 OFFCURVE",
"664 622 OFFCURVE",
"708 637 CURVE",
"708 644 LINE"
);
}
);
width = 766;
}
);
leftKerningGroup = X;
rightKerningGroup = X;
unicode = 0058;
},
{
color = 4;
glyphname = Y;
lastChange = "2020-01-24 22:38:29 +0000";
layers = (
{
anchors = (
{
name = bottom;
position = "{348, 0}";
},
{
name = center;
position = "{351, 223}";
},
{
name = top;
position = "{378, 688}";
},
{
name = topleft;
position = "{-24, 688}";
}
);
background = {
paths = (
{
closed = 1;
nodes = (
"417 161 LINE",
"703 610 LINE",
"702 688 LINE",
"565 688 LINE",
"373 345 LINE",
"442 345 LINE",
"254 688 LINE",
"4 688 LINE",
"4 619 LINE",
"287 161 LINE"
);
},
{
closed = 1;
nodes = (
"570 0 LINE",
"570 84 LINE",
"468 107 LINE",
"468 331 LINE",
"240 331 LINE",
"234 112 LINE",
"196 102 OFFCURVE",
"165 91 OFFCURVE",
"132 76 CURVE",
"132 0 LINE"
);
},
{
closed = 1;
nodes = (
"223 548 OFFCURVE",
"299 573 OFFCURVE",
"370 612 CURVE",
"370 688 LINE",
"-37 688 LINE",
"-37 605 LINE",
"148 536 LINE"
);
},
{
closed = 1;
nodes = (
"620 548 OFFCURVE",
"678 573 OFFCURVE",
"732 612 CURVE",
"732 688 LINE",
"424 688 LINE",
"424 605 LINE",
"562 536 LINE"
);
}
);
};
layerId = "A6FDB8B9-512B-4F31-B986-CD5B604F5662";
paths = (
{
closed = 1;
nodes = (
"417 161 LINE",
"703 610 LINE",
"702 678 LINE",
"560 678 LINE",
"373 345 LINE",
"442 345 LINE",
"259 678 LINE",
"4 678 LINE",
"4 619 LINE",
"287 161 LINE"
);
},
{
closed = 1;
nodes = (
"570 0 LINE",
"570 84 LINE",
"468 107 LINE",
"468 331 LINE",
"240 331 LINE",
"234 112 LINE",
"196 102 OFFCURVE",
"165 91 OFFCURVE",
"132 76 CURVE",
"132 0 LINE"
);
},
{
closed = 1;
nodes = (
"223 548 OFFCURVE",
"299 573 OFFCURVE",
"370 612 CURVE",
"370 688 LINE",
"-37 688 LINE",
"-37 605 LINE",
"148 536 LINE"
);
},
{
closed = 1;
nodes = (
"620 548 OFFCURVE",
"678 573 OFFCURVE",
"732 612 CURVE",
"732 688 LINE",
"424 688 LINE",
"424 605 LINE",
"562 536 LINE"
);
}
);
width = 695;
},
{
anchors = (
{
name = bottom;
position = "{340, 0}";
},
{
name = center;
position = "{333, 179}";
},
{
name = top;
position = "{340, 644}";
},
{
name = topleft;
position = "{47, 644}";
}
);
background = {
paths = (
{
closed = 1;
nodes = (
"338 237 LINE",
"565 641 LINE",
"565 644 LINE",
"531 644 LINE",
"327 273 LINE",
"339 273 LINE",
"139 644 LINE",
"107 644 LINE",
"107 635 LINE",
"326 237 LINE"
);
},
{
closed = 1;
nodes = (
"480 0 LINE",
"480 12 LINE",
"349 30 LINE",
"349 270 LINE",
"315 270 LINE",
"311 29 LINE",
"270 27 OFFCURVE",
"227 21 OFFCURVE",
"181 10 CURVE",
"181 0 LINE"
);
},
{
closed = 1;
nodes = (
"188 614 OFFCURVE",
"243 622 OFFCURVE",
"297 637 CURVE",
"297 644 LINE",
"25 644 LINE",
"25 632 LINE",
"131 612 LINE"
);
},
{
closed = 1;
nodes = (
"567 614 OFFCURVE",
"612 622 OFFCURVE",
"656 637 CURVE",
"656 644 LINE",
"384 644 LINE",
"384 632 LINE",
"520 612 LINE"
);
}
);
};
layerId = "0E5388DE-A0E6-4EB4-BC9B-CE5870C9023F";
paths = (
{
closed = 1;
nodes = (
"338 237 LINE",
"559 631 LINE",
"559 634 LINE",
"525 634 LINE",
"327 273 LINE",
"339 273 LINE",
"145 634 LINE",
"113 634 LINE",
"113 625 LINE",
"326 237 LINE"
);
},
{
closed = 1;
nodes = (
"480 0 LINE",
"480 12 LINE",
"349 30 LINE",
"349 270 LINE",
"315 270 LINE",
"311 29 LINE",
"270 27 OFFCURVE",
"227 21 OFFCURVE",
"181 10 CURVE",
"181 0 LINE"
);
},
{
closed = 1;
nodes = (
"188 614 OFFCURVE",
"243 622 OFFCURVE",
"297 637 CURVE",
"297 644 LINE",
"25 644 LINE",
"25 632 LINE",
"131 612 LINE"
);
},
{
closed = 1;
nodes = (
"567 614 OFFCURVE",
"612 622 OFFCURVE",
"656 637 CURVE",
"656 644 LINE",
"384 644 LINE",
"384 632 LINE",
"520 612 LINE"
);
}
);
width = 680;
}
);
leftKerningGroup = Y;
rightKerningGroup = Y;
unicode = 0059;
},
{
color = 4;
glyphname = Yacute;
lastChange = "2020-01-24 22:38:29 +0000";
layers = (
{
anchors = (
{
name = top;
position = "{340, 869}";
}
);
components = (
{
name = Y;
}
);
layerId = "0E5388DE-A0E6-4EB4-BC9B-CE5870C9023F";
paths = (
{
closed = 1;
nodes = (
"334 767 OFFCURVE",
"392 805 OFFCURVE",
"447 847 CURVE",
"431 869 LINE",
"425 869 LINE",
"269 740 LINE",
"275 731 LINE"
);
}
);
width = 680;
},
{
anchors = (
{
name = top;
position = "{378, 925}";
}
);
components = (
{
name = Y;
}
);
layerId = "A6FDB8B9-512B-4F31-B986-CD5B604F5662";
paths = (
{
closed = 1;
nodes = (
"362 763 OFFCURVE",
"454 797 OFFCURVE",
"545 839 CURVE",
"471 986 LINE",
"444 986 LINE",
"225 808 LINE",
"267 735 LINE"
);
}
);
width = 695;
}
);
leftKerningGroup = Y;
rightKerningGroup = Y;
unicode = 00DD;
},
{
color = 4;
glyphname = Ydieresis;
lastChange = "2020-01-24 22:38:29 +0000";
layers = (
{
anchors = (
{
name = top;
position = "{340, 834}";
}
);
components = (
{
name = Y;
}
);
layerId = "0E5388DE-A0E6-4EB4-BC9B-CE5870C9023F";
paths = (
{
closed = 1;
nodes = (
"263 831 OFFCURVE",
"249 822 OFFCURVE",
"238 811 CURVE",
"242 796 OFFCURVE",
"251 783 OFFCURVE",
"261 772 CURVE",
"276 774 OFFCURVE",
"291 783 OFFCURVE",
"300 793 CURVE",
"298 808 OFFCURVE",
"290 823 OFFCURVE",
"279 834 CURVE"
);
},
{
closed = 1;
nodes = (
"405 831 OFFCURVE",
"390 822 OFFCURVE",
"380 811 CURVE",
"384 796 OFFCURVE",
"391 783 OFFCURVE",
"403 772 CURVE",
"418 774 OFFCURVE",
"432 783 OFFCURVE",
"442 793 CURVE",
"440 808 OFFCURVE",
"431 823 OFFCURVE",
"421 834 CURVE"
);
}
);
width = 680;
},
{
anchors = (
{
name = top;
position = "{378, 980}";
}
);
components = (
{
name = Y;
}
);
layerId = "A6FDB8B9-512B-4F31-B986-CD5B604F5662";
paths = (
{
closed = 1;
nodes = (
"228 971 OFFCURVE",
"175 938 OFFCURVE",
"137 899 CURVE",
"147 841 OFFCURVE",
"180 785 OFFCURVE",
"222 752 CURVE",
"276 759 OFFCURVE",
"332 793 OFFCURVE",
"367 835 CURVE",
"359 890 OFFCURVE",
"327 942 OFFCURVE",
"284 980 CURVE"
);
},
{
closed = 1;
nodes = (
"479 971 OFFCURVE",
"426 938 OFFCURVE",
"388 899 CURVE",
"397 841 OFFCURVE",
"430 785 OFFCURVE",
"472 752 CURVE",
"527 759 OFFCURVE",
"583 793 OFFCURVE",
"618 835 CURVE",
"609 890 OFFCURVE",
"576 942 OFFCURVE",
"534 980 CURVE"
);
}
);
width = 695;
}
);
leftKerningGroup = Y;
rightKerningGroup = Y;
unicode = 0178;
},
{
color = 4;
glyphname = Z;
lastChange = "2020-01-24 22:38:29 +0000";
layers = (
{
anchors = (
{
name = bottom;
position = "{349, 0}";
},
{
name = top;
position = "{349, 688}";
}
);
layerId = "A6FDB8B9-512B-4F31-B986-CD5B604F5662";
paths = (
{
closed = 1;
nodes = (
"662 0 LINE",
"660 281 LINE",
"560 281 LINE",
"505 140 LINE",
"323 128 LINE",
"666 596 LINE",
"666 688 LINE",
"41 688 LINE",
"40 400 LINE",
"142 400 LINE",
"201 553 LINE",
"371 560 LINE",
"28 93 LINE",
"28 0 LINE"
);
}
);
width = 696;
},
{
anchors = (
{
name = bottom;
position = "{321, 0}";
},
{
name = top;
position = "{321, 644}";
}
);
layerId = "0E5388DE-A0E6-4EB4-BC9B-CE5870C9023F";
paths = (
{
closed = 1;
nodes = (
"568 0 LINE",
"563 186 LINE",
"556 186 LINE",
"534 31 LINE",
"121 24 LINE",
"562 641 LINE",
"562 644 LINE",
"89 644 LINE",
"93 465 LINE",
"100 465 LINE",
"122 613 LINE",
"509 620 LINE",
"67 3 LINE",
"67 0 LINE"
);
}
);
width = 644;
}
);
leftKerningGroup = Z;
rightKerningGroup = Z;
unicode = 005A;
},
{
color = 4;
glyphname = Zcaron;
lastChange = "2020-01-24 22:38:29 +0000";
layers = (
{
anchors = (
{
name = top;
position = "{321, 840}";
}
);
components = (
{
name = Z;
}
);
layerId = "0E5388DE-A0E6-4EB4-BC9B-CE5870C9023F";
paths = (
{
closed = 1;
nodes = (
"328 747 LINE",
"431 838 LINE",
"420 850 LINE",
"323 776 LINE",
"224 850 LINE",
"213 838 LINE",
"316 747 LINE"
);
}
);
width = 644;
},
{
anchors = (
{
name = top;
position = "{349, 949}";
}
);
components = (
{
name = Z;
}
);
layerId = "A6FDB8B9-512B-4F31-B986-CD5B604F5662";
paths = (
{
closed = 1;
nodes = (
"419 753 LINE",
"557 925 LINE",
"479 999 LINE",
"348 897 LINE",
"218 999 LINE",
"140 925 LINE",
"277 753 LINE"
);
}
);
width = 696;
}
);
leftKerningGroup = Z;
rightKerningGroup = Z;
unicode = 017D;
},
{
color = 4;
glyphname = "Oslash.rule-Weight_121_214";
lastChange = "2020-01-24 22:38:29 +0000";
layers = (
{
anchors = (
{
name = bottom;
position = "{348, 0}";
},
{
name = center;
position = "{364, 322}";
},
{
name = ogonek;
position = "{530, 30}";
},
{
name = top;
position = "{348, 644}";
},
{
name = topleft;
position = "{39, 644}";
},
{
name = topright;
position = "{615, 644}";
}
);
layerId = "0E5388DE-A0E6-4EB4-BC9B-CE5870C9023F";
paths = (
{
closed = 1;
nodes = (
"200 50 LINE",
"136 -80 LINE",
"161 -90 LINE",
"224 36 LINE"
);
},
{
closed = 1;
nodes = (
"497 592 LINE",
"560 722 LINE",
"535 732 LINE",
"473 606 LINE"
);
},
{
closed = 1;
nodes = (
"525 -7 OFFCURVE",
"647 137 OFFCURVE",
"647 328 CURVE SMOOTH",
"647 515 OFFCURVE",
"529 651 OFFCURVE",
"370 651 CURVE SMOOTH",
"205 651 OFFCURVE",
"83 506 OFFCURVE",
"83 313 CURVE SMOOTH",
"83 125 OFFCURVE",
"199 -7 OFFCURVE",
"358 -7 CURVE SMOOTH"
);
},
{
closed = 1;
nodes = (
"221 23 OFFCURVE",
"117 148 OFFCURVE",
"117 315 CURVE SMOOTH",
"117 400 OFFCURVE",
"144 485 OFFCURVE",
"197 563 CURVE",
"245 599 OFFCURVE",
"306 618 OFFCURVE",
"365 618 CURVE SMOOTH",
"513 618 OFFCURVE",
"612 497 OFFCURVE",
"612 327 CURVE SMOOTH",
"612 151 OFFCURVE",
"506 23 OFFCURVE",
"363 23 CURVE SMOOTH"
);
}
);
width = 725;
},
{
anchors = (
{
name = bottom;
position = "{379, 0}";
},
{
name = center;
position = "{366, 344}";
},
{
name = ogonek;
position = "{602, 13}";
},
{
name = top;
position = "{379, 688}";
},
{
name = topleft;
position = "{7, 688}";
},
{
name = topright;
position = "{628, 688}";
}
);
layerId = "A6FDB8B9-512B-4F31-B986-CD5B604F5662";
paths = (
{
closed = 1;
nodes = (
"212 126 LINE",
"125 -74 LINE",
"245 -118 LINE",
"329 74 LINE"
);
},
{
closed = 1;
nodes = (
"551 580 LINE",
"626 754 LINE",
"506 797 LINE",
"434 633 LINE"
);
},
{
closed = 1;
nodes = (
"582 -15 OFFCURVE",
"715 122 OFFCURVE",
"715 362 CURVE SMOOTH",
"715 578 OFFCURVE",
"589 703 OFFCURVE",
"370 703 CURVE SMOOTH",
"150 703 OFFCURVE",
"16 564 OFFCURVE",
"16 336 CURVE SMOOTH",
"16 112 OFFCURVE",
"139 -15 OFFCURVE",
"354 -15 CURVE SMOOTH"
);
},
{
closed = 1;
nodes = (
"289 122 OFFCURVE",
"255 189 OFFCURVE",
"255 340 CURVE SMOOTH",
"255 414 OFFCURVE",
"265 479 OFFCURVE",
"286 542 CURVE",
"310 553 OFFCURVE",
"334 558 OFFCURVE",
"357 558 CURVE SMOOTH",
"441 558 OFFCURVE",
"476 494 OFFCURVE",
"476 344 CURVE SMOOTH",
"476 190 OFFCURVE",
"443 122 OFFCURVE",
"368 122 CURVE SMOOTH"
);
}
);
width = 731;
}
);
leftKerningGroup = O;
rightKerningGroup = O;
},
{
color = 4;
glyphname = a;
lastChange = "2020-01-24 22:48:36 +0000";
layers = (
{
anchors = (
{
name = bottom;
position = "{223, 0}";
},
{
name = ogonek;
position = "{475, 10}";
},
{
name = top;
position = "{233, 478}";
}
);
layerId = "0E5388DE-A0E6-4EB4-BC9B-CE5870C9023F";
paths = (
{
closed = 1;
nodes = (
"201 469 OFFCURVE",
"285 452 OFFCURVE",
"344 398 CURVE",
"336 78 LINE",
"346 25 OFFCURVE",
"379 -4 OFFCURVE",
"413 -4 CURVE SMOOTH",
"437 -4 OFFCURVE",
"462 10 OFFCURVE",
"479 42 CURVE",
"370 40 LINE",
"370 414 LINE",
"328 460 OFFCURVE",
"271 485 OFFCURVE",
"210 485 CURVE SMOOTH",
"129 485 OFFCURVE",
"68 440 OFFCURVE",
"68 380 CURVE SMOOTH",
"68 354 OFFCURVE",
"80 330 OFFCURVE",
"100 319 CURVE",
"114 445 LINE"
);
},
{
closed = 1;
nodes = (
"245 6 OFFCURVE",
"295 31 OFFCURVE",
"348 75 CURVE",
"348 93 LINE",
"286 49 OFFCURVE",
"229 27 OFFCURVE",
"182 27 CURVE SMOOTH",
"102 27 OFFCURVE",
"69 87 OFFCURVE",
"96 184 CURVE",
"358 244 LINE",
"358 271 LINE",
"110 223 OFFCURVE",
"53 193 OFFCURVE",
"53 116 CURVE SMOOTH",
"53 44 OFFCURVE",
"104 -8 OFFCURVE",
"178 -9 CURVE"
);
}
);
width = 485;
},
{
anchors = (
{
name = bottom;
position = "{244, 0}";
},
{
name = ogonek;
position = "{509, 10}";
},
{
name = top;
position = "{250, 490}";
}
);
associatedMasterId = "0E5388DE-A0E6-4EB4-BC9B-CE5870C9023F";
background = {
paths = (
{
closed = 1;
nodes = (
"212 446 OFFCURVE",
"282 431 OFFCURVE",
"333 389 CURVE",
"322 86 LINE",
"347 -34 OFFCURVE",
"489 -33 OFFCURVE",
"510 78 CURVE",
"412 72 LINE",
"412 417 LINE",
"367 470 OFFCURVE",
"303 499 OFFCURVE",
"231 499 CURVE SMOOTH",
"132 499 OFFCURVE",
"51 445 OFFCURVE",
"51 379 CURVE SMOOTH",
"51 344 OFFCURVE",
"76 319 OFFCURVE",
"125 311 CURVE",
"140 432 LINE"
);
},
{
closed = 1;
nodes = (
"254 14 OFFCURVE",
"297 48 OFFCURVE",
"341 93 CURVE",
"341 110 LINE",
"294 79 OFFCURVE",
"250 62 OFFCURVE",
"211 62 CURVE SMOOTH",
"145 62 OFFCURVE",
"118 108 OFFCURVE",
"138 197 CURVE",
"350 240 LINE",
"350 291 LINE",
"95 229 OFFCURVE",
"41 198 OFFCURVE",
"41 124 CURVE SMOOTH",
"41 45 OFFCURVE",
"101 -9 OFFCURVE",
"196 -10 CURVE"
);
}
);
};
layerId = "20FEAD84-1589-4ECB-850D-05A4769D2D0D";
name = "{82,30}";
paths = (
{
closed = 1;
nodes = (
"216 447 OFFCURVE",
"284 428 OFFCURVE",
"334 389 CURVE",
"323 86 LINE",
"336 25 OFFCURVE",
"378 -4 OFFCURVE",
"420 -4 CURVE SMOOTH",
"460 -4 OFFCURVE",
"499 23 OFFCURVE",
"510 78 CURVE",
"413 72 LINE",
"413 417 LINE",
"367 470 OFFCURVE",
"302 498 OFFCURVE",
"231 498 CURVE SMOOTH",
"135 498 OFFCURVE",
"53 446 OFFCURVE",
"53 379 CURVE SMOOTH",
"53 344 OFFCURVE",
"78 319 OFFCURVE",
"126 311 CURVE",
"141 433 LINE"
);
},
{
closed = 1;
nodes = (
"254 14 OFFCURVE",
"296 44 OFFCURVE",
"342 93 CURVE",
"342 108 LINE",
"292 75 OFFCURVE",
"249 60 OFFCURVE",
"211 60 CURVE SMOOTH",
"146 60 OFFCURVE",
"118 108 OFFCURVE",
"139 197 CURVE",
"350 241 LINE",
"350 290 LINE",
"99 229 OFFCURVE",
"42 200 OFFCURVE",
"42 124 CURVE SMOOTH",
"42 45 OFFCURVE",
"102 -9 OFFCURVE",
"196 -10 CURVE"
);
}
);
width = 511;
},
{
anchors = (
{
name = bottom;
position = "{284, 0}";
},
{
name = ogonek;
position = "{574, 10}";
},
{
name = top;
position = "{284, 516}";
}
);
layerId = "A6FDB8B9-512B-4F31-B986-CD5B604F5662";
paths = (
{
closed = 1;
nodes = (
"232 398 OFFCURVE",
"270 386 OFFCURVE",
"307 368 CURVE",
"290 104 LINE",
"309 25 OFFCURVE",
"369 -11 OFFCURVE",
"429 -11 CURVE SMOOTH",
"507 -11 OFFCURVE",
"584 49 OFFCURVE",
"572 153 CURVE",
"499 138 LINE",
"499 425 LINE",
"445 492 OFFCURVE",
"367 527 OFFCURVE",
"273 527 CURVE SMOOTH",
"136 527 OFFCURVE",
"15 456 OFFCURVE",
"15 375 CURVE SMOOTH",
"15 321 OFFCURVE",
"69 294 OFFCURVE",
"174 295 CURVE",
"191 405 LINE"
);
},
{
closed = 1;
nodes = (
"269 32 OFFCURVE",
"298 77 OFFCURVE",
"323 131 CURVE",
"323 140 LINE",
"306 133 OFFCURVE",
"290 130 OFFCURVE",
"270 130 CURVE SMOOTH",
"231 130 OFFCURVE",
"218 155 OFFCURVE",
"225 226 CURVE",
"330 233 LINE",
"331 332 LINE",
"61 241 OFFCURVE",
"13 212 OFFCURVE",
"13 139 CURVE SMOOTH",
"13 45 OFFCURVE",
"95 -12 OFFCURVE",
"231 -12 CURVE"
);
}
);
width = 560;
}
);
leftKerningGroup = a;
rightKerningGroup = n;
unicode = 0061;
},
{
color = 4;
glyphname = aacute;
lastChange = "2020-01-24 22:38:29 +0000";
layers = (
{
anchors = (
{
name = bottom;
position = "{284, 0}";
},
{
name = ogonek;
position = "{574, 10}";
},
{
name = top;
position = "{284, 823}";
}
);
components = (
{
name = a;
}
);
layerId = "A6FDB8B9-512B-4F31-B986-CD5B604F5662";
paths = (
{
closed = 1;
nodes = (
"268 591 OFFCURVE",
"360 625 OFFCURVE",
"451 667 CURVE",
"377 814 LINE",
"350 814 LINE",
"131 636 LINE",
"173 563 LINE"
);
}
);
width = 560;
},
{
anchors = (
{
name = bottom;
position = "{223, 0}";
},
{
name = ogonek;
position = "{475, 10}";
},
{
name = top;
position = "{233, 706}";
}
);
components = (
{
name = a;
}
);
layerId = "0E5388DE-A0E6-4EB4-BC9B-CE5870C9023F";
paths = (
{
closed = 1;
nodes = (
"227 601 OFFCURVE",
"285 639 OFFCURVE",
"340 681 CURVE",
"324 703 LINE",
"318 703 LINE",
"162 574 LINE",
"168 565 LINE"
);
}
);
width = 485;
}
);
leftKerningGroup = a;
rightKerningGroup = n;
unicode = 00E1;
},
{
color = 4;
glyphname = adieresis;
lastChange = "2020-01-24 22:38:29 +0000";
layers = (
{
anchors = (
{
name = top;
position = "{233, 668}";
}
);
components = (
{
name = a;
}
);
layerId = "0E5388DE-A0E6-4EB4-BC9B-CE5870C9023F";
paths = (
{
closed = 1;
nodes = (
"156 665 OFFCURVE",
"142 656 OFFCURVE",
"131 645 CURVE",
"135 630 OFFCURVE",
"144 617 OFFCURVE",
"154 606 CURVE",
"169 608 OFFCURVE",
"184 617 OFFCURVE",
"193 627 CURVE",
"191 642 OFFCURVE",
"183 657 OFFCURVE",
"172 668 CURVE"
);
},
{
closed = 1;
nodes = (
"298 665 OFFCURVE",
"283 656 OFFCURVE",
"273 645 CURVE",
"277 630 OFFCURVE",
"284 617 OFFCURVE",
"296 606 CURVE",
"311 608 OFFCURVE",
"325 617 OFFCURVE",
"335 627 CURVE",
"333 642 OFFCURVE",
"324 657 OFFCURVE",
"314 668 CURVE"
);
}
);
width = 485;
},
{
anchors = (
{
name = top;
position = "{284, 808}";
}
);
components = (
{
name = a;
}
);
layerId = "A6FDB8B9-512B-4F31-B986-CD5B604F5662";
paths = (
{
closed = 1;
nodes = (
"134 799 OFFCURVE",
"81 766 OFFCURVE",
"43 727 CURVE",
"53 669 OFFCURVE",
"86 613 OFFCURVE",
"128 580 CURVE",
"182 587 OFFCURVE",
"238 621 OFFCURVE",
"273 663 CURVE",
"265 718 OFFCURVE",
"233 770 OFFCURVE",
"190 808 CURVE"
);
},
{
closed = 1;
nodes = (
"385 799 OFFCURVE",
"332 766 OFFCURVE",
"294 727 CURVE",
"303 669 OFFCURVE",
"336 613 OFFCURVE",
"378 580 CURVE",
"433 587 OFFCURVE",
"489 621 OFFCURVE",
"524 663 CURVE",
"515 718 OFFCURVE",
"482 770 OFFCURVE",
"440 808 CURVE"
);
}
);
width = 560;
}
);
leftKerningGroup = a;
rightKerningGroup = n;
unicode = 00E4;
},
{
color = 4;
glyphname = agrave;
lastChange = "2020-01-24 22:38:29 +0000";
layers = (
{
anchors = (
{
name = top;
position = "{233, 703}";
}
);
components = (
{
name = a;
}
);
layerId = "0E5388DE-A0E6-4EB4-BC9B-CE5870C9023F";
paths = (
{
closed = 1;
nodes = (
"322 574 LINE",
"166 703 LINE",
"160 703 LINE",
"144 681 LINE",
"199 639 OFFCURVE",
"257 601 OFFCURVE",
"316 565 CURVE"
);
}
);
width = 485;
},
{
anchors = (
{
name = top;
position = "{284, 814}";
}
);
components = (
{
name = a;
}
);
layerId = "A6FDB8B9-512B-4F31-B986-CD5B604F5662";
paths = (
{
closed = 1;
nodes = (
"444 636 LINE",
"225 814 LINE",
"198 814 LINE",
"124 667 LINE",
"215 625 OFFCURVE",
"307 591 OFFCURVE",
"402 563 CURVE"
);
}
);
width = 560;
}
);
leftKerningGroup = a;
rightKerningGroup = n;
unicode = 00E0;
},
{
color = 4;
glyphname = aring;
lastChange = "2020-01-24 22:38:29 +0000";
layers = (
{
anchors = (
{
name = top;
position = "{233, 635}";
}
);
components = (
{
name = a;
}
);
layerId = "0E5388DE-A0E6-4EB4-BC9B-CE5870C9023F";
paths = (
{
closed = 1;
nodes = (
"273 567 OFFCURVE",
"302 596 OFFCURVE",
"302 636 CURVE SMOOTH",
"302 676 OFFCURVE",
"273 705 OFFCURVE",
"233 705 CURVE SMOOTH",
"193 705 OFFCURVE",
"164 676 OFFCURVE",
"164 636 CURVE SMOOTH",
"164 596 OFFCURVE",
"193 567 OFFCURVE",
"233 567 CURVE SMOOTH"
);
},
{
closed = 1;
nodes = (
"207 590 OFFCURVE",
"187 610 OFFCURVE",
"187 636 CURVE SMOOTH",
"187 662 OFFCURVE",
"207 682 OFFCURVE",
"233 682 CURVE SMOOTH",
"259 682 OFFCURVE",
"279 662 OFFCURVE",
"279 636 CURVE SMOOTH",
"279 610 OFFCURVE",
"259 590 OFFCURVE",
"233 590 CURVE SMOOTH"
);
}
);
width = 485;
},
{
anchors = (
{
name = top;
position = "{285, 801}";
}
);
components = (
{
name = a;
}
);
layerId = "A6FDB8B9-512B-4F31-B986-CD5B604F5662";
paths = (
{
closed = 1;
nodes = (
"368 552 OFFCURVE",
"430 614 OFFCURVE",
"430 698 CURVE SMOOTH",
"430 782 OFFCURVE",
"368 844 OFFCURVE",
"284 844 CURVE SMOOTH",
"200 844 OFFCURVE",
"138 782 OFFCURVE",
"138 698 CURVE SMOOTH",
"138 614 OFFCURVE",
"200 552 OFFCURVE",
"284 552 CURVE SMOOTH"
);
},
{
closed = 1;
nodes = (
"248 636 OFFCURVE",
"222 662 OFFCURVE",
"222 698 CURVE SMOOTH",
"222 734 OFFCURVE",
"248 760 OFFCURVE",
"284 760 CURVE SMOOTH",
"320 760 OFFCURVE",
"346 734 OFFCURVE",
"346 698 CURVE SMOOTH",
"346 662 OFFCURVE",
"320 636 OFFCURVE",
"284 636 CURVE SMOOTH"
);
}
);
width = 560;
}
);
leftKerningGroup = a;
rightKerningGroup = n;
unicode = 00E5;
},
{
color = 4;
glyphname = atilde;
lastChange = "2020-01-24 22:38:29 +0000";
layers = (
{
anchors = (
{
name = top;
position = "{233, 687}";
}
);
components = (
{
name = a;
}
);
layerId = "0E5388DE-A0E6-4EB4-BC9B-CE5870C9023F";
paths = (
{
closed = 1;
nodes = (
"167 641 LINE",
"275 612 LINE SMOOTH",
"296 606 OFFCURVE",
"306 603 OFFCURVE",
"363 680 CURVE",
"356 687 LINE",
"299 635 LINE",
"191 664 LINE SMOOTH",
"169 670 OFFCURVE",
"161 673 OFFCURVE",
"103 597 CURVE",
"110 589 LINE"
);
}
);
width = 485;
},
{
anchors = (
{
name = top;
position = "{284, 758}";
}
);
components = (
{
name = a;
}
);
layerId = "A6FDB8B9-512B-4F31-B986-CD5B604F5662";
paths = (
{
closed = 1;
nodes = (
"182 644 LINE",
"334 609 LINE SMOOTH",
"397 594 OFFCURVE",
"426 619 OFFCURVE",
"502 770 CURVE",
"458 808 LINE",
"385 754 LINE",
"234 789 LINE SMOOTH",
"179 802 OFFCURVE",
"150 797 OFFCURVE",
"65 628 CURVE",
"109 590 LINE"
);
}
);
width = 560;
}
);
leftKerningGroup = a;
rightKerningGroup = n;
unicode = 00E3;
},
{
color = 4;
glyphname = ae;
lastChange = "2020-01-24 22:38:29 +0000";
layers = (
{
anchors = (
{
name = bottom;
position = "{374, 0}";
},
{
name = top;
position = "{374, 478}";
}
);
layerId = "0E5388DE-A0E6-4EB4-BC9B-CE5870C9023F";
paths = (
{
closed = 1;
nodes = (
"587 -6 OFFCURVE",
"641 16 OFFCURVE",
"697 62 CURVE",
"694 68 LINE",
"508 -30 OFFCURVE",
"369 47 OFFCURVE",
"369 247 CURVE SMOOTH",
"369 307 OFFCURVE",
"382 370 OFFCURVE",
"403 419 CURVE",
"446 441 OFFCURVE",
"495 455 OFFCURVE",
"533 455 CURVE SMOOTH",
"615 455 OFFCURVE",
"670 398 OFFCURVE",
"670 313 CURVE",
"665 265 LINE",
"353 260 LINE",
"353 232 LINE",
"516 232 OFFCURVE",
"591 237 OFFCURVE",
"696 254 CURVE",
"700 316 LINE",
"701 414 OFFCURVE",
"636 485 OFFCURVE",
"542 485 CURVE SMOOTH",
"407 485 OFFCURVE",
"337 404 OFFCURVE",
"337 250 CURVE SMOOTH",
"337 89 OFFCURVE",
"409 -6 OFFCURVE",
"530 -6 CURVE SMOOTH"
);
},
{
closed = 1;
nodes = (
"260 10 OFFCURVE",
"319 42 OFFCURVE",
"378 97 CURVE",
"378 117 LINE",
"304 58 OFFCURVE",
"239 27 OFFCURVE",
"182 27 CURVE SMOOTH",
"103 27 OFFCURVE",
"70 87 OFFCURVE",
"97 184 CURVE",
"357 244 LINE",
"357 271 LINE",
"108 222 OFFCURVE",
"54 194 OFFCURVE",
"54 113 CURVE SMOOTH",
"54 38 OFFCURVE",
"103 -8 OFFCURVE",
"186 -9 CURVE"
);
},
{
closed = 1;
nodes = (
"115 445 LINE",
"212 472 OFFCURVE",
"301 448 OFFCURVE",
"366 376 CURVE",
"387 397 LINE",
"334 456 OFFCURVE",
"276 485 OFFCURVE",
"210 485 CURVE SMOOTH",
"129 485 OFFCURVE",
"69 440 OFFCURVE",
"69 380 CURVE SMOOTH",
"69 353 OFFCURVE",
"81 330 OFFCURVE",
"101 319 CURVE"
);
}
);
width = 755;
},
{
anchors = (
{
name = bottom;
position = "{402, 0}";
},
{
name = top;
position = "{402, 516}";
}
);
layerId = "A6FDB8B9-512B-4F31-B986-CD5B604F5662";
paths = (
{
closed = 1;
nodes = (
"640 -15 OFFCURVE",
"722 30 OFFCURVE",
"793 126 CURVE",
"778 164 LINE",
"590 109 OFFCURVE",
"491 124 OFFCURVE",
"491 302 CURVE SMOOTH",
"491 329 OFFCURVE",
"493 359 OFFCURVE",
"497 393 CURVE",
"515 396 OFFCURVE",
"528 398 OFFCURVE",
"539 398 CURVE SMOOTH",
"582 398 OFFCURVE",
"599 379 OFFCURVE",
"599 330 CURVE",
"596 288 LINE",
"428 289 LINE",
"427 196 LINE",
"524 204 OFFCURVE",
"631 220 OFFCURVE",
"781 249 CURVE",
"784 315 LINE",
"784 448 OFFCURVE",
"705 527 OFFCURVE",
"572 527 CURVE SMOOTH",
"391 527 OFFCURVE",
"298 442 OFFCURVE",
"298 277 CURVE SMOOTH",
"298 85 OFFCURVE",
"380 -15 OFFCURVE",
"537 -15 CURVE SMOOTH"
);
},
{
closed = 1;
nodes = (
"308 39 OFFCURVE",
"346 88 OFFCURVE",
"378 145 CURVE",
"370 160 LINE",
"338 140 OFFCURVE",
"304 129 OFFCURVE",
"273 129 CURVE SMOOTH",
"230 129 OFFCURVE",
"218 152 OFFCURVE",
"225 226 CURVE",
"330 233 LINE",
"331 332 LINE",
"63 242 OFFCURVE",
"13 211 OFFCURVE",
"13 139 CURVE SMOOTH",
"13 38 OFFCURVE",
"94 -13 OFFCURVE",
"256 -13 CURVE"
);
},
{
closed = 1;
nodes = (
"191 405 LINE",
"243 396 OFFCURVE",
"288 380 OFFCURVE",
"330 356 CURVE",
"499 425 LINE",
"445 492 OFFCURVE",
"367 527 OFFCURVE",
"272 527 CURVE SMOOTH",
"136 527 OFFCURVE",
"15 456 OFFCURVE",
"15 375 CURVE SMOOTH",
"15 321 OFFCURVE",
"69 294 OFFCURVE",
"174 295 CURVE"
);
}
);
width = 803;
}
);
leftKerningGroup = a;
rightKerningGroup = e;
unicode = 00E6;
},
{
color = 4;
glyphname = b;
lastChange = "2020-01-24 22:48:54 +0000";
layers = (
{
anchors = (
{
name = bottom;
position = "{297, 0}";
},
{
name = top;
position = "{297, 516}";
}
);
layerId = "A6FDB8B9-512B-4F31-B986-CD5B604F5662";
paths = (
{
closed = 1;
nodes = (
"133 4 OFFCURVE",
"218 -13 OFFCURVE",
"291 -13 CURVE SMOOTH",
"468 -13 OFFCURVE",
"576 88 OFFCURVE",
"576 273 CURVE SMOOTH",
"576 444 OFFCURVE",
"481 545 OFFCURVE",
"340 524 CURVE",
"303 473 OFFCURVE",
"275 424 OFFCURVE",
"249 367 CURVE",
"251 337 LINE",
"268 341 OFFCURVE",
"284 343 OFFCURVE",
"300 343 CURVE SMOOTH",
"340 343 OFFCURVE",
"377 330 OFFCURVE",
"413 301 CURVE",
"344 360 LINE",
"355 321 OFFCURVE",
"359 273 OFFCURVE",
"359 233 CURVE SMOOTH",
"359 165 OFFCURVE",
"347 131 OFFCURVE",
"297 131 CURVE SMOOTH",
"259 131 OFFCURVE",
"199 150 OFFCURVE",
"107 188 CURVE",
"39 40 LINE"
);
},
{
closed = 1;
nodes = (
"261 99 LINE",
"261 784 LINE",
"165 781 OFFCURVE",
"74 755 OFFCURVE",
"-13 706 CURVE",
"55 584 LINE",
"39 40 LINE"
);
}
);
width = 586;
},
{
anchors = (
{
name = bottom;
position = "{256, 0}";
},
{
name = top;
position = "{256, 478}";
}
);
layerId = "0E5388DE-A0E6-4EB4-BC9B-CE5870C9023F";
paths = (
{
closed = 1;
nodes = (
"139 1 OFFCURVE",
"184 -7 OFFCURVE",
"224 -7 CURVE SMOOTH",
"365 -7 OFFCURVE",
"458 89 OFFCURVE",
"458 246 CURVE SMOOTH",
"458 392 OFFCURVE",
"376 486 OFFCURVE",
"250 486 CURVE",
"200 470 OFFCURVE",
"155 443 OFFCURVE",
"119 414 CURVE",
"119 394 LINE",
"166 434 OFFCURVE",
"213 454 OFFCURVE",
"260 454 CURVE SMOOTH",
"307 454 OFFCURVE",
"355 434 OFFCURVE",
"403 394 CURVE",
"363 435 LINE",
"406 382 OFFCURVE",
"428 320 OFFCURVE",
"428 245 CURVE SMOOTH",
"428 103 OFFCURVE",
"351 20 OFFCURVE",
"226 20 CURVE SMOOTH",
"192 20 OFFCURVE",
"155 26 OFFCURVE",
"115 38 CURVE",
"92 18 LINE"
);
},
{
closed = 1;
nodes = (
"127 18 LINE",
"127 734 LINE",
"101 728 OFFCURVE",
"80 719 OFFCURVE",
"56 705 CURVE",
"101 653 LINE",
"92 18 LINE"
);
}
);
width = 507;
},
{
anchors = (
{
name = bottom;
position = "{274, 0}";
},
{
name = top;
position = "{274, 489}";
}
);
associatedMasterId = "0E5388DE-A0E6-4EB4-BC9B-CE5870C9023F";
background = {
paths = (
{
closed = 1;
nodes = (
"329 -64 OFFCURVE",
"503 33 OFFCURVE",
"503 254 CURVE SMOOTH",
"503 407 OFFCURVE",
"417 503 OFFCURVE",
"284 497 CURVE",
"238 471 OFFCURVE",
"197 439 OFFCURVE",
"162 401 CURVE",
"163 379 LINE",
"247 440 OFFCURVE",
"332 437 OFFCURVE",
"417 368 CURVE",
"369 414 LINE",
"404 365 OFFCURVE",
"421 306 OFFCURVE",
"421 242 CURVE SMOOTH",
"421 77 OFFCURVE",
"319 13 OFFCURVE",
"120 80 CURVE",
"83 24 LINE"
);
},
{
closed = 1;
nodes = (
"171 41 LINE",
"171 748 LINE",
"126 743 OFFCURVE",
"83 729 OFFCURVE",
"43 705 CURVE",
"94 634 LINE",
"83 24 LINE"
);
}
);
};
layerId = "45EEB49A-AD05-4DD0-9847-4A289EFFB51D";
name = "{82,30}";
paths = (
{
closed = 1;
nodes = (
"144 2 OFFCURVE",
"200 -8 OFFCURVE",
"250 -8 CURVE SMOOTH",
"403 -8 OFFCURVE",
"499 90 OFFCURVE",
"499 254 CURVE SMOOTH",
"499 406 OFFCURVE",
"414 503 OFFCURVE",
"282 497 CURVE",
"236 471 OFFCURVE",
"194 439 OFFCURVE",
"161 401 CURVE",
"162 379 LINE",
"201 408 OFFCURVE",
"241 422 OFFCURVE",
"281 422 CURVE SMOOTH",
"325 422 OFFCURVE",
"370 404 OFFCURVE",
"414 368 CURVE",
"366 414 LINE",
"401 365 OFFCURVE",
"418 305 OFFCURVE",
"418 242 CURVE SMOOTH",
"418 121 OFFCURVE",
"363 54 OFFCURVE",
"255 54 CURVE SMOOTH",
"216 54 OFFCURVE",
"171 62 OFFCURVE",
"119 80 CURVE",
"83 24 LINE"
);
},
{
closed = 1;
nodes = (
"170 41 LINE",
"170 748 LINE",
"123 743 OFFCURVE",
"79 727 OFFCURVE",
"37 703 CURVE",
"96 624 LINE",
"83 24 LINE"
);
}
);
width = 537;
}
);
leftKerningGroup = h;
rightKerningGroup = o;
unicode = 0062;
},
{
color = 4;
glyphname = c;
lastChange = "2020-01-24 22:38:29 +0000";
layers = (
{
anchors = (
{
name = bottom;
position = "{239, 0}";
},
{
name = top;
position = "{255, 516}";
}
);
layerId = "A6FDB8B9-512B-4F31-B986-CD5B604F5662";
paths = (
{
closed = 1;
nodes = (
"340 -15 OFFCURVE",
"415 35 OFFCURVE",
"464 131 CURVE",
"448 169 LINE",
"406 156 OFFCURVE",
"370 149 OFFCURVE",
"341 149 CURVE SMOOTH",
"264 149 OFFCURVE",
"229 195 OFFCURVE",
"229 291 CURVE SMOOTH",
"229 338 OFFCURVE",
"236 393 OFFCURVE",
"251 460 CURVE",
"157 383 LINE",
"251 386 OFFCURVE",
"338 375 OFFCURVE",
"421 349 CURVE",
"443 502 LINE",
"393 520 OFFCURVE",
"336 530 OFFCURVE",
"282 530 CURVE SMOOTH",
"109 530 OFFCURVE",
"9 428 OFFCURVE",
"9 251 CURVE SMOOTH",
"9 88 OFFCURVE",
"98 -15 OFFCURVE",
"241 -15 CURVE SMOOTH"
);
},
{
closed = 1;
nodes = (
"443 301 LINE",
"443 502 LINE",
"268 502 LINE",
"356 301 LINE"
);
}
);
width = 475;
},
{
anchors = (
{
name = bottom;
position = "{226, 0}";
},
{
name = top;
position = "{250, 478}";
}
);
layerId = "0E5388DE-A0E6-4EB4-BC9B-CE5870C9023F";
paths = (
{
closed = 1;
nodes = (
"288 -6 OFFCURVE",
"337 15 OFFCURVE",
"385 59 CURVE",
"382 66 LINE",
"338 38 OFFCURVE",
"295 25 OFFCURVE",
"255 25 CURVE SMOOTH",
"156 25 OFFCURVE",
"81 106 OFFCURVE",
"81 238 CURVE SMOOTH",
"81 307 OFFCURVE",
"102 376 OFFCURVE",
"138 427 CURVE",
"124 414 LINE",
"198 464 OFFCURVE",
"296 469 OFFCURVE",
"366 427 CURVE",
"377 457 LINE",
"339 475 OFFCURVE",
"300 485 OFFCURVE",
"260 485 CURVE SMOOTH",
"141 485 OFFCURVE",
"49 388 OFFCURVE",
"49 236 CURVE SMOOTH",
"49 96 OFFCURVE",
"129 -6 OFFCURVE",
"238 -6 CURVE SMOOTH"
);
},
{
closed = 1;
nodes = (
"373 334 LINE",
"377 457 LINE",
"337 457 LINE",
"365 334 LINE"
);
}
);
width = 431;
}
);
leftKerningGroup = o;
rightKerningGroup = c;
unicode = 0063;
},
{
color = 4;
glyphname = ccedilla;
lastChange = "2020-01-24 22:38:29 +0000";
layers = (
{
anchors = (
{
name = _bottom;
position = "{226, 0}";
},
{
name = bottom;
position = "{247, -206}";
}
);
components = (
{
name = c;
}
);
layerId = "0E5388DE-A0E6-4EB4-BC9B-CE5870C9023F";
paths = (
{
closed = 1;
nodes = (
"252 -225 OFFCURVE",
"334 -198 OFFCURVE",
"334 -137 CURVE SMOOTH",
"334 -96 OFFCURVE",
"296 -70 OFFCURVE",
"212 -48 CURVE",
"200 -71 LINE",
"276 -94 OFFCURVE",
"308 -114 OFFCURVE",
"308 -140 CURVE SMOOTH",
"308 -156 OFFCURVE",
"298 -173 OFFCURVE",
"284 -182 CURVE",
"242 -181 OFFCURVE",
"205 -176 OFFCURVE",
"162 -166 CURVE",
"159 -192 LINE"
);
},
{
closed = 1;
nodes = (
"200 -71 LINE",
"223 -71 LINE",
"241 11 LINE",
"218 11 LINE"
);
}
);
width = 431;
},
{
anchors = (
{
name = _bottom;
position = "{239, 0}";
},
{
name = bottom;
position = "{262, -259}";
}
);
components = (
{
name = c;
}
);
layerId = "A6FDB8B9-512B-4F31-B986-CD5B604F5662";
paths = (
{
closed = 1;
nodes = (
"273 -286 OFFCURVE",
"398 -241 OFFCURVE",
"398 -144 CURVE SMOOTH",
"398 -81 OFFCURVE",
"348 -44 OFFCURVE",
"223 -17 CURVE",
"176 -110 LINE",
"280 -145 OFFCURVE",
"289 -150 OFFCURVE",
"289 -163 CURVE SMOOTH",
"289 -164 OFFCURVE",
"289 -166 OFFCURVE",
"288 -168 CURVE",
"235 -162 OFFCURVE",
"183 -148 OFFCURVE",
"134 -129 CURVE",
"123 -241 LINE"
);
},
{
closed = 1;
nodes = (
"176 -110 LINE",
"253 -110 LINE",
"286 19 LINE",
"207 19 LINE"
);
}
);
width = 475;
}
);
leftKerningGroup = o;
rightKerningGroup = c;
unicode = 00E7;
},
{
color = 4;
glyphname = d;
lastChange = "2020-01-24 22:48:58 +0000";
layers = (
{
anchors = (
{
name = bottom;
position = "{301, 0}";
},
{
name = center;
position = "{398, 603}";
},
{
name = top;
position = "{301, 516}";
},
{
name = topright;
position = "{674, 769}";
}
);
layerId = "A6FDB8B9-512B-4F31-B986-CD5B604F5662";
paths = (
{
closed = 1;
nodes = (
"281 39 OFFCURVE",
"311 93 OFFCURVE",
"333 149 CURVE",
"333 180 LINE",
"311 175 OFFCURVE",
"294 172 OFFCURVE",
"280 172 CURVE SMOOTH",
"236 172 OFFCURVE",
"226 198 OFFCURVE",
"226 267 CURVE SMOOTH",
"226 326 OFFCURVE",
"234 387 OFFCURVE",
"253 435 CURVE",
"166 385 LINE",
"186 388 OFFCURVE",
"207 390 OFFCURVE",
"227 390 CURVE SMOOTH",
"307 390 OFFCURVE",
"385 364 OFFCURVE",
"462 312 CURVE",
"486 497 LINE",
"417 520 OFFCURVE",
"353 531 OFFCURVE",
"296 531 CURVE SMOOTH",
"120 531 OFFCURVE",
"10 427 OFFCURVE",
"10 244 CURVE SMOOTH",
"10 72 OFFCURVE",
"103 -28 OFFCURVE",
"244 -8 CURVE"
);
},
{
closed = 1;
nodes = (
"540 784 LINE",
"438 781 OFFCURVE",
"348 752 OFFCURVE",
"266 706 CURVE",
"334 584 LINE",
"321 154 LINE",
"327 44 OFFCURVE",
"403 -11 OFFCURVE",
"475 -11 CURVE SMOOTH",
"547 -11 OFFCURVE",
"616 43 OFFCURVE",
"611 151 CURVE",
"540 136 LINE"
);
},
{
closed = 1;
nodes = (
"410 783 LINE",
"410 784 LINE",
"409 784 LINE"
);
}
);
width = 606;
},
{
anchors = (
{
name = bottom;
position = "{264, 0}";
},
{
name = center;
position = "{346, 568}";
},
{
name = top;
position = "{264, 478}";
},
{
name = topright;
position = "{531, 725}";
}
);
layerId = "0E5388DE-A0E6-4EB4-BC9B-CE5870C9023F";
paths = (
{
closed = 1;
nodes = (
"305 8 OFFCURVE",
"349 33 OFFCURVE",
"386 64 CURVE",
"386 83 LINE",
"337 43 OFFCURVE",
"287 24 OFFCURVE",
"242 24 CURVE SMOOTH",
"151 24 OFFCURVE",
"80 101 OFFCURVE",
"80 233 CURVE SMOOTH",
"80 304 OFFCURVE",
"99 373 OFFCURVE",
"133 422 CURVE",
"120 409 LINE",
"171 441 OFFCURVE",
"221 457 OFFCURVE",
"279 457 CURVE SMOOTH",
"314 457 OFFCURVE",
"352 451 OFFCURVE",
"394 440 CURVE",
"403 467 LINE",
"361 479 OFFCURVE",
"322 485 OFFCURVE",
"286 485 CURVE SMOOTH",
"140 485 OFFCURVE",
"49 388 OFFCURVE",
"49 232 CURVE SMOOTH",
"49 86 OFFCURVE",
"131 -8 OFFCURVE",
"256 -8 CURVE"
);
},
{
closed = 1;
nodes = (
"413 734 LINE",
"384 727 OFFCURVE",
"364 718 OFFCURVE",
"343 705 CURVE",
"387 653 LINE",
"379 74 LINE",
"389 24 OFFCURVE",
"422 -4 OFFCURVE",
"455 -4 CURVE SMOOTH",
"479 -4 OFFCURVE",
"503 11 OFFCURVE",
"520 42 CURVE",
"413 40 LINE"
);
},
{
closed = 1;
nodes = (
"393 783 LINE",
"393 784 LINE",
"392 784 LINE"
);
}
);
width = 531;
},
{
anchors = (
{
name = bottom;
position = "{275, 0}";
},
{
name = center;
position = "{361, 578}";
},
{
name = top;
position = "{275, 489}";
},
{
name = topright;
position = "{550, 737}";
}
);
associatedMasterId = "0E5388DE-A0E6-4EB4-BC9B-CE5870C9023F";
background = {
paths = (
{
closed = 1;
nodes = (
"301 17 OFFCURVE",
"342 50 OFFCURVE",
"376 88 CURVE",
"376 110 LINE",
"243 18 OFFCURVE",
"121 75 OFFCURVE",
"121 243 CURVE SMOOTH",
"121 310 OFFCURVE",
"137 377 OFFCURVE",
"168 426 CURVE",
"134 402 LINE",
"221 443 OFFCURVE",
"308 444 OFFCURVE",
"417 404 CURVE",
"430 475 LINE",
"199 546 OFFCURVE",
"38 447 OFFCURVE",
"38 235 CURVE SMOOTH",
"38 82 OFFCURVE",
"124 -14 OFFCURVE",
"255 -8 CURVE"
);
},
{
closed = 1;
nodes = (
"453 748 LINE",
"402 743 OFFCURVE",
"356 725 OFFCURVE",
"315 700 CURVE",
"375 618 LINE",
"366 97 LINE",
"384 -28 OFFCURVE",
"525 -42 OFFCURVE",
"551 73 CURVE",
"453 67 LINE"
);
}
);
};
layerId = "EE4832D4-E3A0-4201-817D-F6A1A96F62D8";
name = "{82,30}";
paths = (
{
closed = 1;
nodes = (
"299 17 OFFCURVE",
"339 51 OFFCURVE",
"373 88 CURVE",
"373 110 LINE",
"331 80 OFFCURVE",
"289 66 OFFCURVE",
"253 66 CURVE SMOOTH",
"176 66 OFFCURVE",
"120 129 OFFCURVE",
"120 243 CURVE SMOOTH",
"120 308 OFFCURVE",
"136 377 OFFCURVE",
"167 426 CURVE",
"133 402 LINE",
"177 423 OFFCURVE",
"221 433 OFFCURVE",
"268 433 CURVE SMOOTH",
"313 433 OFFCURVE",
"361 424 OFFCURVE",
"414 404 CURVE",
"427 475 LINE",
"377 490 OFFCURVE",
"331 498 OFFCURVE",
"289 498 CURVE SMOOTH",
"136 498 OFFCURVE",
"38 401 OFFCURVE",
"38 235 CURVE SMOOTH",
"38 83 OFFCURVE",
"123 -14 OFFCURVE",
"253 -8 CURVE"
);
},
{
closed = 1;
nodes = (
"450 748 LINE",
"400 743 OFFCURVE",
"357 726 OFFCURVE",
"316 703 CURVE",
"374 624 LINE",
"363 97 LINE",
"373 30 OFFCURVE",
"418 -6 OFFCURVE",
"462 -6 CURVE SMOOTH",
"499 -6 OFFCURVE",
"535 20 OFFCURVE",
"547 73 CURVE",
"450 67 LINE"
);
},
{
closed = 1;
nodes = (
"398 783 LINE",
"398 784 LINE",
"397 784 LINE"
);
}
);
width = 552;
}
);
leftKerningGroup = o;
rightKerningGroup = d;
unicode = 0064;
},
{
color = 4;
glyphname = eth;
lastChange = "2020-01-24 22:38:29 +0000";
layers = (
{
layerId = "A6FDB8B9-512B-4F31-B986-CD5B604F5662";
paths = (
{
closed = 1;
nodes = (
"445 -15 OFFCURVE",
"546 90 OFFCURVE",
"546 270 CURVE SMOOTH",
"546 481 OFFCURVE",
"406 668 OFFCURVE",
"163 784 CURVE",
"79 736 LINE",
"257 578 OFFCURVE",
"323 441 OFFCURVE",
"323 232 CURVE SMOOTH",
"323 144 OFFCURVE",
"311 112 OFFCURVE",
"279 112 CURVE SMOOTH",
"244 112 OFFCURVE",
"230 148 OFFCURVE",
"230 245 CURVE SMOOTH",
"230 290 OFFCURVE",
"233 330 OFFCURVE",
"241 380 CURVE",
"248 380 OFFCURVE",
"255 381 OFFCURVE",
"262 381 CURVE SMOOTH",
"302 381 OFFCURVE",
"340 373 OFFCURVE",
"377 359 CURVE",
"402 497 LINE",
"352 511 OFFCURVE",
"306 517 OFFCURVE",
"264 517 CURVE SMOOTH",
"104 517 OFFCURVE",
"8 420 OFFCURVE",
"8 245 CURVE SMOOTH",
"8 76 OFFCURVE",
"98 -15 OFFCURVE",
"265 -15 CURVE SMOOTH"
);
},
{
closed = 1;
nodes = (
"489 672 LINE",
"455 764 LINE",
"44 619 LINE",
"78 527 LINE"
);
}
);
width = 561;
},
{
layerId = "0E5388DE-A0E6-4EB4-BC9B-CE5870C9023F";
paths = (
{
closed = 1;
nodes = (
"368 -7 OFFCURVE",
"450 98 OFFCURVE",
"450 253 CURVE SMOOTH",
"450 429 OFFCURVE",
"340 593 OFFCURVE",
"130 732 CURVE",
"116 717 LINE",
"320 573 OFFCURVE",
"419 422 OFFCURVE",
"419 255 CURVE SMOOTH",
"419 115 OFFCURVE",
"351 21 OFFCURVE",
"249 21 CURVE SMOOTH",
"150 21 OFFCURVE",
"80 110 OFFCURVE",
"80 235 CURVE SMOOTH",
"80 300 OFFCURVE",
"98 364 OFFCURVE",
"134 422 CURVE",
"169 443 OFFCURVE",
"208 453 OFFCURVE",
"246 453 CURVE SMOOTH",
"310 453 OFFCURVE",
"373 425 OFFCURVE",
"419 371 CURVE",
"416 395 LINE",
"366 454 OFFCURVE",
"306 480 OFFCURVE",
"250 480 CURVE SMOOTH",
"144 480 OFFCURVE",
"49 385 OFFCURVE",
"49 230 CURVE SMOOTH",
"49 89 OFFCURVE",
"129 -7 OFFCURVE",
"246 -7 CURVE SMOOTH"
);
},
{
closed = 1;
nodes = (
"401 633 LINE",
"394 657 LINE",
"129 573 LINE",
"137 550 LINE"
);
}
);
width = 509;
}
);
leftKerningGroup = o;
unicode = 00F0;
},
{
color = 4;
glyphname = e;
lastChange = "2020-01-24 22:38:29 +0000";
layers = (
{
anchors = (
{
name = bottom;
position = "{258, 0}";
},
{
name = ogonek;
position = "{454, 10}";
},
{
name = top;
position = "{268, 515}";
}
);
layerId = "A6FDB8B9-512B-4F31-B986-CD5B604F5662";
paths = (
{
closed = 1;
nodes = (
"357 -15 OFFCURVE",
"446 35 OFFCURVE",
"509 129 CURVE",
"494 169 LINE",
"435 152 OFFCURVE",
"386 144 OFFCURVE",
"346 144 CURVE SMOOTH",
"252 144 OFFCURVE",
"210 191 OFFCURVE",
"210 289 CURVE SMOOTH",
"210 321 OFFCURVE",
"213 356 OFFCURVE",
"220 393 CURVE",
"233 394 OFFCURVE",
"243 395 OFFCURVE",
"252 395 CURVE SMOOTH",
"292 395 OFFCURVE",
"307 377 OFFCURVE",
"307 331 CURVE",
"304 296 LINE",
"144 298 LINE",
"142 193 LINE",
"238 202 OFFCURVE",
"337 217 OFFCURVE",
"498 248 CURVE",
"500 315 LINE",
"500 452 OFFCURVE",
"417 529 OFFCURVE",
"272 529 CURVE SMOOTH",
"107 529 OFFCURVE",
"8 426 OFFCURVE",
"8 253 CURVE SMOOTH",
"8 88 OFFCURVE",
"103 -15 OFFCURVE",
"253 -15 CURVE SMOOTH"
);
}
);
width = 519;
},
{
anchors = (
{
name = bottom;
position = "{239, 0}";
},
{
name = ogonek;
position = "{348, 15}";
},
{
name = top;
position = "{249, 478}";
}
);
layerId = "0E5388DE-A0E6-4EB4-BC9B-CE5870C9023F";
paths = (
{
closed = 1;
nodes = (
"301 -5 OFFCURVE",
"357 18 OFFCURVE",
"410 62 CURVE",
"407 69 LINE",
"353 40 OFFCURVE",
"302 26 OFFCURVE",
"257 26 CURVE SMOOTH",
"152 26 OFFCURVE",
"81 103 OFFCURVE",
"81 236 CURVE SMOOTH",
"81 300 OFFCURVE",
"100 365 OFFCURVE",
"135 419 CURVE",
"170 442 OFFCURVE",
"211 455 OFFCURVE",
"248 455 CURVE SMOOTH",
"326 455 OFFCURVE",
"382 396 OFFCURVE",
"382 313 CURVE",
"380 265 LINE",
"65 260 LINE",
"65 232 LINE",
"222 232 OFFCURVE",
"311 237 OFFCURVE",
"410 252 CURVE",
"413 316 LINE",
"414 414 OFFCURVE",
"346 485 OFFCURVE",
"253 485 CURVE",
"133 485 OFFCURVE",
"49 375 OFFCURVE",
"49 231 CURVE SMOOTH",
"49 90 OFFCURVE",
"130 -8 OFFCURVE",
"245 -6 CURVE SMOOTH"
);
}
);
width = 468;
}
);
leftKerningGroup = o;
rightKerningGroup = e;
unicode = 0065;
},
{
color = 4;
glyphname = eacute;
lastChange = "2020-01-24 22:38:29 +0000";
layers = (
{
anchors = (
{
name = top;
position = "{268, 752}";
}
);
components = (
{
name = e;
}
);
layerId = "A6FDB8B9-512B-4F31-B986-CD5B604F5662";
paths = (
{
closed = 1;
nodes = (
"252 590 OFFCURVE",
"344 624 OFFCURVE",
"435 666 CURVE",
"361 813 LINE",
"334 813 LINE",
"115 635 LINE",
"157 562 LINE"
);
}
);
width = 519;
},
{
anchors = (
{
name = top;
position = "{249, 703}";
}
);
components = (
{
name = e;
}
);
layerId = "0E5388DE-A0E6-4EB4-BC9B-CE5870C9023F";
paths = (
{
closed = 1;
nodes = (
"243 601 OFFCURVE",
"301 639 OFFCURVE",
"356 681 CURVE",
"340 703 LINE",
"334 703 LINE",
"178 574 LINE",
"184 565 LINE"
);
}
);
width = 468;
}
);
leftKerningGroup = o;
rightKerningGroup = e;
unicode = 00E9;
},
{
color = 4;
glyphname = edieresis;
lastChange = "2020-01-24 22:38:29 +0000";
layers = (
{
anchors = (
{
name = top;
position = "{249, 668}";
}
);
components = (
{
name = e;
}
);
layerId = "0E5388DE-A0E6-4EB4-BC9B-CE5870C9023F";
paths = (
{
closed = 1;
nodes = (
"172 665 OFFCURVE",
"158 656 OFFCURVE",
"147 645 CURVE",
"151 630 OFFCURVE",
"160 617 OFFCURVE",
"170 606 CURVE",
"185 608 OFFCURVE",
"200 617 OFFCURVE",
"209 627 CURVE",
"207 642 OFFCURVE",
"199 657 OFFCURVE",
"188 668 CURVE"
);
},
{
closed = 1;
nodes = (
"314 665 OFFCURVE",
"299 656 OFFCURVE",
"289 645 CURVE",
"293 630 OFFCURVE",
"300 617 OFFCURVE",
"312 606 CURVE",
"327 608 OFFCURVE",
"341 617 OFFCURVE",
"351 627 CURVE",
"349 642 OFFCURVE",
"340 657 OFFCURVE",
"330 668 CURVE"
);
}
);
width = 468;
},
{
anchors = (
{
name = top;
position = "{268, 807}";
}
);
components = (
{
name = e;
}
);
layerId = "A6FDB8B9-512B-4F31-B986-CD5B604F5662";
paths = (
{
closed = 1;
nodes = (
"118 798 OFFCURVE",
"65 765 OFFCURVE",
"27 726 CURVE",
"37 668 OFFCURVE",
"70 612 OFFCURVE",
"112 579 CURVE",
"166 586 OFFCURVE",
"222 620 OFFCURVE",
"257 662 CURVE",
"249 717 OFFCURVE",
"217 769 OFFCURVE",
"174 807 CURVE"
);
},
{
closed = 1;
nodes = (
"369 798 OFFCURVE",
"316 765 OFFCURVE",
"278 726 CURVE",
"287 668 OFFCURVE",
"320 612 OFFCURVE",
"362 579 CURVE",
"417 586 OFFCURVE",
"473 620 OFFCURVE",
"508 662 CURVE",
"499 717 OFFCURVE",
"466 769 OFFCURVE",
"424 807 CURVE"
);
}
);
width = 519;
}
);
leftKerningGroup = o;
rightKerningGroup = e;
unicode = 00EB;
},
{
color = 4;
glyphname = egrave;
lastChange = "2020-01-24 22:38:29 +0000";
layers = (
{
anchors = (
{
name = top;
position = "{249, 703}";
}
);
components = (
{
name = e;
}
);
layerId = "0E5388DE-A0E6-4EB4-BC9B-CE5870C9023F";
paths = (
{
closed = 1;
nodes = (
"338 574 LINE",
"182 703 LINE",
"176 703 LINE",
"160 681 LINE",
"215 639 OFFCURVE",
"273 601 OFFCURVE",
"332 565 CURVE"
);
}
);
width = 468;
},
{
anchors = (
{
name = top;
position = "{268, 813}";
}
);
components = (
{
name = e;
}
);
layerId = "A6FDB8B9-512B-4F31-B986-CD5B604F5662";
paths = (
{
closed = 1;
nodes = (
"428 635 LINE",
"209 813 LINE",
"182 813 LINE",
"108 666 LINE",
"199 624 OFFCURVE",
"291 590 OFFCURVE",
"386 562 CURVE"
);
}
);
width = 519;
}
);
leftKerningGroup = o;
rightKerningGroup = e;
unicode = 00E8;
},
{
color = 4;
glyphname = f;
lastChange = "2020-01-24 22:38:29 +0000";
layers = (
{
anchors = (
{
name = bottom;
position = "{290, 0}";
},
{
name = top;
position = "{290, 516}";
}
);
layerId = "A6FDB8B9-512B-4F31-B986-CD5B604F5662";
rightMetricsKey = "=-31";
paths = (
{
closed = 1;
nodes = (
"400 400 LINE",
"410 511 LINE",
"283 511 LINE",
"275 541 OFFCURVE",
"269 574 OFFCURVE",
"265 605 CURVE",
"317 607 OFFCURVE",
"366 605 OFFCURVE",
"417 597 CURVE",
"417 780 LINE",
"412 780 OFFCURVE",
"407 780 OFFCURVE",
"402 780 CURVE SMOOTH",
"258 780 OFFCURVE",
"104 653 OFFCURVE",
"81 511 CURVE",
"52 496 OFFCURVE",
"23 471 OFFCURVE",
"1 438 CURVE",
"1 400 LINE"
);
},
{
closed = 1;
nodes = (
"79 463 LINE",
"70 104 LINE",
"48 93 OFFCURVE",
"29 81 OFFCURVE",
"14 69 CURVE",
"14 0 LINE",
"374 0 LINE",
"374 76 LINE",
"291 99 LINE",
"291 463 LINE"
);
}
);
width = 392;
},
{
anchors = (
{
name = bottom;
position = "{126, 0}";
},
{
name = top;
position = "{126, 496}";
}
);
layerId = "0E5388DE-A0E6-4EB4-BC9B-CE5870C9023F";
paths = (
{
closed = 1;
nodes = (
"298 452 LINE",
"301 478 LINE",
"152 478 LINE",
"152 584 OFFCURVE",
"164 664 OFFCURVE",
"185 692 CURVE",
"230 700 OFFCURVE",
"273 702 OFFCURVE",
"319 696 CURVE",
"319 732 LINE",
"305 734 OFFCURVE",
"291 735 OFFCURVE",
"279 735 CURVE SMOOTH",
"166 735 OFFCURVE",
"122 661 OFFCURVE",
"122 478 CURVE",
"89 477 OFFCURVE",
"63 471 OFFCURVE",
"36 460 CURVE",
"36 452 LINE"
);
},
{
closed = 1;
nodes = (
"123 463 LINE",
"116 27 LINE",
"84 23 OFFCURVE",
"62 16 OFFCURVE",
"44 8 CURVE",
"44 0 LINE",
"251 0 LINE",
"251 7 LINE",
"151 26 LINE",
"151 463 LINE"
);
}
);
width = 306;
}
);
leftKerningGroup = f;
rightKerningGroup = f;
unicode = 0066;
},
{
color = 4;
glyphname = g;
lastChange = "2020-01-24 22:49:02 +0000";
layers = (
{
anchors = (
{
name = bottom;
position = "{231, -195}";
},
{
name = top;
position = "{272, 485}";
}
);
layerId = "0E5388DE-A0E6-4EB4-BC9B-CE5870C9023F";
leftMetricsKey = "=48";
rightMetricsKey = "=15";
paths = (
{
closed = 1;
nodes = (
"389 -206 OFFCURVE",
"486 -139 OFFCURVE",
"486 -39 CURVE SMOOTH",
"486 26 OFFCURVE",
"441 75 OFFCURVE",
"380 75 CURVE SMOOTH",
"158 75 LINE",
"160 196 LINE",
"137 172 OFFCURVE",
"125 146 OFFCURVE",
"125 119 CURVE SMOOTH",
"125 93 OFFCURVE",
"137 66 OFFCURVE",
"160 42 CURVE",
"415 42 LINE",
"442 15 OFFCURVE",
"455 -20 OFFCURVE",
"455 -47 CURVE SMOOTH",
"455 -125 OFFCURVE",
"374 -178 OFFCURVE",
"256 -178 CURVE SMOOTH",
"153 -178 OFFCURVE",
"83 -135 OFFCURVE",
"83 -70 CURVE SMOOTH",
"83 -35 OFFCURVE",
"107 -1 OFFCURVE",
"183 54 CURVE",
"167 54 LINE",
"113 31 OFFCURVE",
"72 -7 OFFCURVE",
"48 -57 CURVE",
"47 -151 OFFCURVE",
"125 -206 OFFCURVE",
"250 -206 CURVE SMOOTH"
);
},
{
closed = 1;
nodes = (
"374 161 OFFCURVE",
"458 229 OFFCURVE",
"458 331 CURVE SMOOTH",
"458 424 OFFCURVE",
"382 485 OFFCURVE",
"271 485 CURVE SMOOTH",
"154 485 OFFCURVE",
"74 416 OFFCURVE",
"74 314 CURVE SMOOTH",
"74 220 OFFCURVE",
"145 161 OFFCURVE",
"256 161 CURVE SMOOTH"
);
},
{
closed = 1;
nodes = (
"163 189 OFFCURVE",
"103 237 OFFCURVE",
"103 313 CURVE SMOOTH",
"103 346 OFFCURVE",
"117 387 OFFCURVE",
"146 436 CURVE",
"185 449 OFFCURVE",
"229 456 OFFCURVE",
"267 456 CURVE SMOOTH",
"364 456 OFFCURVE",
"428 407 OFFCURVE",
"428 326 CURVE SMOOTH",
"428 243 OFFCURVE",
"363 189 OFFCURVE",
"257 189 CURVE SMOOTH"
);
},
{
closed = 1;
nodes = (
"402 432 LINE",
"421 525 LINE",
"520 525 LINE",
"525 553 LINE",
"505 557 OFFCURVE",
"488 559 OFFCURVE",
"473 559 CURVE SMOOTH",
"417 559 OFFCURVE",
"389 535 OFFCURVE",
"389 487 CURVE SMOOTH",
"389 471 OFFCURVE",
"392 453 OFFCURVE",
"398 432 CURVE"
);
}
);
width = 540;
},
{
anchors = (
{
name = bottom;
position = "{260, -195}";
},
{
name = top;
position = "{285, 553}";
}
);
layerId = "A6FDB8B9-512B-4F31-B986-CD5B604F5662";
leftMetricsKey = "=-5";
rightMetricsKey = "=-16";
paths = (
{
closed = 1;
nodes = (
"482 -211 OFFCURVE",
"623 -124 OFFCURVE",
"623 3 CURVE SMOOTH",
"623 91 OFFCURVE",
"553 157 OFFCURVE",
"467 157 CURVE SMOOTH",
"190 157 LINE",
"190 214 LINE",
"101 200 OFFCURVE",
"53 149 OFFCURVE",
"53 98 CURVE SMOOTH",
"53 57 OFFCURVE",
"83 16 OFFCURVE",
"149 -7 CURVE",
"412 -7 LINE",
"415 -17 OFFCURVE",
"416 -23 OFFCURVE",
"416 -28 CURVE SMOOTH",
"416 -58 OFFCURVE",
"382 -72 OFFCURVE",
"302 -72 CURVE SMOOTH",
"221 -72 OFFCURVE",
"191 -58 OFFCURVE",
"191 -24 CURVE SMOOTH",
"191 -15 OFFCURVE",
"192 -3 OFFCURVE",
"195 9 CURVE",
"177 9 LINE",
"107 1 OFFCURVE",
"45 -24 OFFCURVE",
"-5 -61 CURVE",
"3 -155 OFFCURVE",
"95 -211 OFFCURVE",
"269 -211 CURVE SMOOTH"
);
},
{
closed = 1;
nodes = (
"479 187 OFFCURVE",
"565 248 OFFCURVE",
"565 366 CURVE SMOOTH",
"565 478 OFFCURVE",
"489 531 OFFCURVE",
"307 531 CURVE SMOOTH",
"114 531 OFFCURVE",
"29 473 OFFCURVE",
"29 354 CURVE SMOOTH",
"29 241 OFFCURVE",
"105 187 OFFCURVE",
"289 187 CURVE SMOOTH"
);
},
{
closed = 1;
nodes = (
"254 307 OFFCURVE",
"237 323 OFFCURVE",
"237 362 CURVE SMOOTH",
"237 371 OFFCURVE",
"238 390 OFFCURVE",
"243 407 CURVE",
"259 409 OFFCURVE",
"276 411 OFFCURVE",
"292 411 CURVE SMOOTH",
"340 411 OFFCURVE",
"357 397 OFFCURVE",
"357 362 CURVE SMOOTH",
"357 324 OFFCURVE",
"340 307 OFFCURVE",
"299 307 CURVE SMOOTH"
);
},
{
closed = 1;
nodes = (
"494 475 LINE",
"501 528 LINE",
"617 528 LINE",
"633 651 LINE",
"596 666 OFFCURVE",
"563 672 OFFCURVE",
"533 672 CURVE SMOOTH",
"462 672 OFFCURVE",
"416 634 OFFCURVE",
"416 583 CURVE SMOOTH",
"416 550 OFFCURVE",
"434 512 OFFCURVE",
"476 475 CURVE"
);
}
);
width = 617;
},
{
anchors = (
{
name = bottom;
position = "{241, -195}";
},
{
name = top;
position = "{267, 503}";
}
);
associatedMasterId = "0E5388DE-A0E6-4EB4-BC9B-CE5870C9023F";
background = {
paths = (
{
closed = 1;
nodes = (
"376 -206 OFFCURVE",
"465 -139 OFFCURVE",
"465 -40 CURVE SMOOTH",
"465 25 OFFCURVE",
"423 75 OFFCURVE",
"360 75 CURVE SMOOTH",
"141 75 LINE",
"141 196 LINE",
"95 146 OFFCURVE",
"95 89 OFFCURVE",
"143 42 CURVE",
"392 42 LINE",
"419 13 OFFCURVE",
"432 -18 OFFCURVE",
"432 -49 CURVE SMOOTH",
"432 -125 OFFCURVE",
"358 -176 OFFCURVE",
"243 -176 CURVE SMOOTH",
"135 -176 OFFCURVE",
"73 -131 OFFCURVE",
"73 -70 CURVE SMOOTH",
"73 -30 OFFCURVE",
"95 0 OFFCURVE",
"166 54 CURVE",
"150 54 LINE",
"98 31 OFFCURVE",
"59 -6 OFFCURVE",
"36 -57 CURVE",
"37 -153 OFFCURVE",
"114 -206 OFFCURVE",
"238 -206 CURVE SMOOTH"
);
},
{
closed = 1;
nodes = (
"352 161 OFFCURVE",
"430 227 OFFCURVE",
"430 328 CURVE SMOOTH",
"430 424 OFFCURVE",
"358 485 OFFCURVE",
"246 485 CURVE SMOOTH",
"130 485 OFFCURVE",
"55 419 OFFCURVE",
"55 317 CURVE SMOOTH",
"55 220 OFFCURVE",
"124 161 OFFCURVE",
"235 161 CURVE SMOOTH"
);
},
{
closed = 1;
nodes = (
"145 191 OFFCURVE",
"87 237 OFFCURVE",
"87 315 CURVE SMOOTH",
"87 351 OFFCURVE",
"100 390 OFFCURVE",
"125 436 CURVE",
"166 450 OFFCURVE",
"207 456 OFFCURVE",
"241 456 CURVE SMOOTH",
"338 456 OFFCURVE",
"398 407 OFFCURVE",
"398 324 CURVE SMOOTH",
"398 240 OFFCURVE",
"337 191 OFFCURVE",
"239 191 CURVE SMOOTH"
);
},
{
closed = 1;
nodes = (
"374 438 LINE",
"392 531 LINE",
"488 531 LINE",
"492 561 LINE",
"382 583 OFFCURVE",
"337 540 OFFCURVE",
"370 438 CURVE"
);
}
);
};
layerId = "F04EF428-2592-49AE-830F-037C1E5262A3";
name = "{82,30}";
paths = (
{
closed = 1;
nodes = (
"419 -207 OFFCURVE",
"530 -134 OFFCURVE",
"530 -26 CURVE SMOOTH",
"530 46 OFFCURVE",
"477 100 OFFCURVE",
"409 100 CURVE SMOOTH",
"169 100 LINE",
"170 201 LINE",
"127 179 OFFCURVE",
"105 145 OFFCURVE",
"105 111 CURVE SMOOTH",
"105 81 OFFCURVE",
"122 50 OFFCURVE",
"158 27 CURVE",
"415 27 LINE",
"435 5 OFFCURVE",
"444 -22 OFFCURVE",
"444 -41 CURVE SMOOTH",
"444 -104 OFFCURVE",
"377 -145 OFFCURVE",
"272 -145 CURVE SMOOTH",
"176 -145 OFFCURVE",
"118 -111 OFFCURVE",
"118 -56 CURVE SMOOTH",
"118 -29 OFFCURVE",
"135 -2 OFFCURVE",
"188 40 CURVE",
"172 40 LINE",
"112 22 OFFCURVE",
"65 -13 OFFCURVE",
"33 -58 CURVE",
"35 -152 OFFCURVE",
"118 -207 OFFCURVE",
"257 -207 CURVE SMOOTH"
);
},
{
closed = 1;
nodes = (
"408 169 OFFCURVE",
"492 235 OFFCURVE",
"492 342 CURVE SMOOTH",
"492 440 OFFCURVE",
"416 499 OFFCURVE",
"283 499 CURVE SMOOTH",
"143 499 OFFCURVE",
"61 433 OFFCURVE",
"61 326 CURVE SMOOTH",
"61 227 OFFCURVE",
"134 169 OFFCURVE",
"267 169 CURVE SMOOTH"
);
},
{
closed = 1;
nodes = (
"193 225 OFFCURVE",
"146 264 OFFCURVE",
"146 328 CURVE SMOOTH",
"146 354 OFFCURVE",
"156 388 OFFCURVE",
"177 427 CURVE",
"213 438 OFFCURVE",
"249 442 OFFCURVE",
"276 442 CURVE SMOOTH",
"358 442 OFFCURVE",
"408 403 OFFCURVE",
"408 337 CURVE SMOOTH",
"408 268 OFFCURVE",
"357 225 OFFCURVE",
"272 225 CURVE SMOOTH"
);
},
{
closed = 1;
nodes = (
"432 445 LINE",
"448 526 LINE",
"551 526 LINE",
"560 584 LINE",
"535 591 OFFCURVE",
"513 594 OFFCURVE",
"493 594 CURVE SMOOTH",
"435 594 OFFCURVE",
"400 566 OFFCURVE",
"400 520 CURVE SMOOTH",
"400 499 OFFCURVE",
"408 473 OFFCURVE",
"424 445 CURVE"
);
}
);
width = 566;
}
);
leftKerningGroup = g;
rightKerningGroup = g;
unicode = 0067;
},
{
color = 4;
glyphname = h;
lastChange = "2020-01-24 22:49:05 +0000";
layers = (
{
anchors = (
{
name = bottom;
position = "{309, 0}";
},
{
name = center;
position = "{186, 603}";
},
{
name = top;
position = "{163, 749}";
}
);
layerId = "A6FDB8B9-512B-4F31-B986-CD5B604F5662";
paths = (
{
closed = 1;
nodes = (
"301 0 LINE",
"301 76 LINE",
"268 99 LINE",
"268 784 LINE",
"166 781 OFFCURVE",
"75 752 OFFCURVE",
"-6 706 CURVE",
"62 584 LINE",
"47 104 LINE",
"34 93 OFFCURVE",
"23 81 OFFCURVE",
"14 69 CURVE",
"14 0 LINE"
);
},
{
closed = 1;
nodes = (
"610 0 LINE",
"610 76 LINE",
"575 99 LINE",
"575 429 LINE",
"366 331 LINE",
"354 104 LINE",
"341 94 OFFCURVE",
"330 82 OFFCURVE",
"322 69 CURVE",
"322 0 LINE"
);
},
{
closed = 1;
nodes = (
"275 341 OFFCURVE",
"290 343 OFFCURVE",
"306 343 CURVE SMOOTH",
"326 343 OFFCURVE",
"346 339 OFFCURVE",
"366 331 CURVE",
"575 429 LINE",
"526 510 OFFCURVE",
"450 541 OFFCURVE",
"350 524 CURVE",
"311 476 OFFCURVE",
"278 420 OFFCURVE",
"252 358 CURVE",
"258 336 LINE"
);
}
);
width = 621;
},
{
anchors = (
{
name = bottom;
position = "{273, 0}";
},
{
name = center;
position = "{181, 568}";
},
{
name = top;
position = "{116, 708}";
}
);
layerId = "0E5388DE-A0E6-4EB4-BC9B-CE5870C9023F";
paths = (
{
closed = 1;
nodes = (
"229 0 LINE",
"229 7 LINE",
"140 26 LINE",
"140 734 LINE",
"113 728 OFFCURVE",
"89 718 OFFCURVE",
"66 704 CURVE",
"115 653 LINE",
"105 27 LINE",
"68 23 OFFCURVE",
"44 16 OFFCURVE",
"23 8 CURVE",
"23 0 LINE"
);
},
{
closed = 1;
nodes = (
"529 0 LINE",
"529 7 LINE",
"440 26 LINE",
"440 413 LINE",
"414 398 LINE",
"405 27 LINE",
"368 23 OFFCURVE",
"344 16 OFFCURVE",
"323 8 CURVE",
"323 0 LINE"
);
},
{
closed = 1;
nodes = (
"184 434 OFFCURVE",
"234 455 OFFCURVE",
"283 455 CURVE SMOOTH",
"329 455 OFFCURVE",
"374 436 OFFCURVE",
"414 398 CURVE",
"440 413 LINE",
"390 467 OFFCURVE",
"336 489 OFFCURVE",
"272 485 CURVE",
"222 472 OFFCURVE",
"177 449 OFFCURVE",
"135 412 CURVE",
"135 393 LINE"
);
}
);
width = 544;
},
{
anchors = (
{
name = bottom;
position = "{278, 0}";
},
{
name = center;
position = "{177, 578}";
},
{
name = top;
position = "{124, 720}";
}
);
associatedMasterId = "0E5388DE-A0E6-4EB4-BC9B-CE5870C9023F";
background = {
paths = (
{
closed = 1;
nodes = (
"219 0 LINE",
"219 7 LINE",
"130 26 LINE",
"130 734 LINE",
"100 728 OFFCURVE",
"71 715 OFFCURVE",
"46 698 CURVE",
"104 631 LINE",
"95 27 LINE",
"58 23 OFFCURVE",
"34 16 OFFCURVE",
"13 8 CURVE",
"13 0 LINE"
);
}
);
};
layerId = "2BED8150-F54A-4EA5-AF00-83F634873D1A";
name = "{82,30}";
paths = (
{
closed = 1;
nodes = (
"244 0 LINE",
"244 27 LINE",
"171 47 LINE",
"171 748 LINE",
"121 743 OFFCURVE",
"75 727 OFFCURVE",
"33 703 CURVE",
"95 624 LINE",
"83 49 LINE",
"53 43 OFFCURVE",
"33 34 OFFCURVE",
"15 25 CURVE",
"15 0 LINE"
);
},
{
closed = 1;
nodes = (
"547 0 LINE",
"547 27 LINE",
"473 47 LINE",
"473 418 LINE",
"395 379 LINE",
"385 49 LINE",
"355 43 OFFCURVE",
"335 35 OFFCURVE",
"318 25 CURVE",
"318 0 LINE"
);
},
{
closed = 1;
nodes = (
"205 408 OFFCURVE",
"246 423 OFFCURVE",
"285 423 CURVE SMOOTH",
"324 423 OFFCURVE",
"361 409 OFFCURVE",
"395 379 CURVE",
"473 418 LINE",
"423 479 OFFCURVE",
"363 504 OFFCURVE",
"289 496 CURVE",
"242 473 OFFCURVE",
"200 441 OFFCURVE",
"163 397 CURVE",
"165 377 LINE"
);
}
);
width = 561;
}
);
leftKerningGroup = h;
rightKerningGroup = n;
unicode = 0068;
},
{
color = 4;
glyphname = i;
lastChange = "2020-01-24 22:38:29 +0000";
layers = (
{
anchors = (
{
name = bottom;
position = "{175, 0}";
},
{
name = ogonek;
position = "{294, 12}";
},
{
name = top;
position = "{168, 516}";
}
);
layerId = "A6FDB8B9-512B-4F31-B986-CD5B604F5662";
paths = (
{
closed = 1;
nodes = (
"311 0 LINE",
"311 76 LINE",
"278 99 LINE",
"278 531 LINE",
"176 528 OFFCURVE",
"85 499 OFFCURVE",
"4 453 CURVE",
"69 344 LINE",
"57 104 LINE",
"44 93 OFFCURVE",
"33 81 OFFCURVE",
"24 69 CURVE",
"24 0 LINE"
);
},
{
closed = 1;
nodes = (
"140 818 OFFCURVE",
"79 780 OFFCURVE",
"36 735 CURVE",
"47 669 OFFCURVE",
"85 605 OFFCURVE",
"132 567 CURVE",
"195 575 OFFCURVE",
"259 614 OFFCURVE",
"299 662 CURVE",
"289 725 OFFCURVE",
"252 785 OFFCURVE",
"204 828 CURVE"
);
}
);
width = 330;
},
{
anchors = (
{
name = bottom;
position = "{127, 0}";
},
{
name = ogonek;
position = "{210, 5}";
},
{
name = top;
position = "{122, 478}";
}
);
layerId = "0E5388DE-A0E6-4EB4-BC9B-CE5870C9023F";
paths = (
{
closed = 1;
nodes = (
"231 0 LINE",
"231 7 LINE",
"142 26 LINE",
"142 487 LINE",
"115 481 OFFCURVE",
"91 471 OFFCURVE",
"68 457 CURVE",
"116 406 LINE",
"107 27 LINE",
"76 24 OFFCURVE",
"49 17 OFFCURVE",
"25 8 CURVE",
"25 0 LINE"
);
},
{
closed = 1;
nodes = (
"116 668 OFFCURVE",
"100 659 OFFCURVE",
"89 646 CURVE",
"93 631 OFFCURVE",
"102 616 OFFCURVE",
"114 605 CURVE",
"129 607 OFFCURVE",
"145 616 OFFCURVE",
"155 628 CURVE",
"153 643 OFFCURVE",
"144 660 OFFCURVE",
"132 671 CURVE"
);
}
);
width = 251;
}
);
rightKerningGroup = i;
unicode = 0069;
},
{
color = 4;
glyphname = iacute;
lastChange = "2020-01-24 22:38:29 +0000";
layers = (
{
anchors = (
{
name = bottom;
position = "{168, 0}";
},
{
name = ogonek;
position = "{294, 12}";
},
{
name = top;
position = "{168, 516}";
}
);
layerId = "A6FDB8B9-512B-4F31-B986-CD5B604F5662";
paths = (
{
closed = 1;
nodes = (
"311 0 LINE",
"311 76 LINE",
"278 99 LINE",
"278 531 LINE",
"176 528 OFFCURVE",
"85 499 OFFCURVE",
"4 453 CURVE",
"69 344 LINE",
"57 104 LINE",
"44 93 OFFCURVE",
"33 81 OFFCURVE",
"24 69 CURVE",
"24 0 LINE"
);
},
{
closed = 1;
nodes = (
"152 591 OFFCURVE",
"244 625 OFFCURVE",
"335 667 CURVE",
"261 814 LINE",
"234 814 LINE",
"15 636 LINE",
"57 563 LINE"
);
}
);
width = 330;
},
{
anchors = (
{
name = bottom;
position = "{125, 0}";
},
{
name = ogonek;
position = "{210, 5}";
},
{
name = top;
position = "{122, 478}";
}
);
layerId = "0E5388DE-A0E6-4EB4-BC9B-CE5870C9023F";
paths = (
{
closed = 1;
nodes = (
"231 0 LINE",
"231 7 LINE",
"142 26 LINE",
"142 487 LINE",
"115 481 OFFCURVE",
"91 471 OFFCURVE",
"68 457 CURVE",
"116 406 LINE",
"107 27 LINE",
"76 24 OFFCURVE",
"49 17 OFFCURVE",
"25 8 CURVE",
"25 0 LINE"
);
},
{
closed = 1;
nodes = (
"116 601 OFFCURVE",
"174 639 OFFCURVE",
"229 681 CURVE",
"213 703 LINE",
"207 703 LINE",
"51 574 LINE",
"57 565 LINE"
);
}
);
width = 251;
}
);
leftKerningGroup = n;
rightKerningGroup = i;
unicode = 00ED;
},
{
color = 4;
glyphname = idieresis;
lastChange = "2020-01-24 22:38:29 +0000";
layers = (
{
anchors = (
{
name = bottom;
position = "{125, 0}";
},
{
name = ogonek;
position = "{210, 5}";
},
{
name = top;
position = "{122, 478}";
}
);
layerId = "0E5388DE-A0E6-4EB4-BC9B-CE5870C9023F";
paths = (
{
closed = 1;
nodes = (
"231 0 LINE",
"231 7 LINE",
"142 26 LINE",
"142 487 LINE",
"115 481 OFFCURVE",
"91 471 OFFCURVE",
"68 457 CURVE",
"116 406 LINE",
"107 27 LINE",
"76 24 OFFCURVE",
"49 17 OFFCURVE",
"25 8 CURVE",
"25 0 LINE"
);
},
{
closed = 1;
nodes = (
"45 665 OFFCURVE",
"31 656 OFFCURVE",
"20 645 CURVE",
"24 630 OFFCURVE",
"33 617 OFFCURVE",
"43 606 CURVE",
"58 608 OFFCURVE",
"73 617 OFFCURVE",
"82 627 CURVE",
"80 642 OFFCURVE",
"72 657 OFFCURVE",
"61 668 CURVE"
);
},
{
closed = 1;
nodes = (
"187 665 OFFCURVE",
"172 656 OFFCURVE",
"162 645 CURVE",
"166 630 OFFCURVE",
"173 617 OFFCURVE",
"185 606 CURVE",
"200 608 OFFCURVE",
"214 617 OFFCURVE",
"224 627 CURVE",
"222 642 OFFCURVE",
"213 657 OFFCURVE",
"203 668 CURVE"
);
}
);
width = 251;
},
{
anchors = (
{
name = bottom;
position = "{168, 0}";
},
{
name = ogonek;
position = "{294, 12}";
},
{
name = top;
position = "{168, 516}";
}
);
layerId = "A6FDB8B9-512B-4F31-B986-CD5B604F5662";
paths = (
{
closed = 1;
nodes = (
"311 0 LINE",
"311 76 LINE",
"278 99 LINE",
"278 531 LINE",
"176 528 OFFCURVE",
"85 499 OFFCURVE",
"4 453 CURVE",
"69 344 LINE",
"57 104 LINE",
"44 93 OFFCURVE",
"33 81 OFFCURVE",
"24 69 CURVE",
"24 0 LINE"
);
},
{
closed = 1;
nodes = (
"18 799 OFFCURVE",
"-35 766 OFFCURVE",
"-73 727 CURVE",
"-63 669 OFFCURVE",
"-30 613 OFFCURVE",
"12 580 CURVE",
"66 587 OFFCURVE",
"122 621 OFFCURVE",
"157 663 CURVE",
"149 718 OFFCURVE",
"117 770 OFFCURVE",
"74 808 CURVE"
);
},
{
closed = 1;
nodes = (
"269 799 OFFCURVE",
"216 766 OFFCURVE",
"178 727 CURVE",
"187 669 OFFCURVE",
"220 613 OFFCURVE",
"262 580 CURVE",
"317 587 OFFCURVE",
"373 621 OFFCURVE",
"408 663 CURVE",
"399 718 OFFCURVE",
"366 770 OFFCURVE",
"324 808 CURVE"
);
}
);
width = 330;
}
);
leftKerningGroup = n;
rightKerningGroup = i;
unicode = 00EF;
},
{
color = 4;
glyphname = igrave;
lastChange = "2020-01-24 22:38:29 +0000";
layers = (
{
anchors = (
{
name = bottom;
position = "{125, 0}";
},
{
name = ogonek;
position = "{210, 5}";
},
{
name = top;
position = "{122, 478}";
}
);
layerId = "0E5388DE-A0E6-4EB4-BC9B-CE5870C9023F";
paths = (
{
closed = 1;
nodes = (
"231 0 LINE",
"231 7 LINE",
"142 26 LINE",
"142 487 LINE",
"115 481 OFFCURVE",
"91 471 OFFCURVE",
"68 457 CURVE",
"116 406 LINE",
"107 27 LINE",
"76 24 OFFCURVE",
"49 17 OFFCURVE",
"25 8 CURVE",
"25 0 LINE"
);
},
{
closed = 1;
nodes = (
"211 574 LINE",
"55 703 LINE",
"49 703 LINE",
"33 681 LINE",
"88 639 OFFCURVE",
"146 601 OFFCURVE",
"205 565 CURVE"
);
}
);
width = 251;
},
{
anchors = (
{
name = bottom;
position = "{168, 0}";
},
{
name = ogonek;
position = "{294, 12}";
},
{
name = top;
position = "{168, 516}";
}
);
layerId = "A6FDB8B9-512B-4F31-B986-CD5B604F5662";
paths = (
{
closed = 1;
nodes = (
"311 0 LINE",
"311 76 LINE",
"278 99 LINE",
"278 531 LINE",
"176 528 OFFCURVE",
"85 499 OFFCURVE",
"4 453 CURVE",
"69 344 LINE",
"57 104 LINE",
"44 93 OFFCURVE",
"33 81 OFFCURVE",
"24 69 CURVE",
"24 0 LINE"
);
},
{
closed = 1;
nodes = (
"328 636 LINE",
"109 814 LINE",
"82 814 LINE",
"8 667 LINE",
"99 625 OFFCURVE",
"191 591 OFFCURVE",
"286 563 CURVE"
);
}
);
width = 330;
}
);
leftKerningGroup = n;
rightKerningGroup = i;
unicode = 00EC;
},
{
color = 4;
glyphname = j;
lastChange = "2020-01-24 22:38:29 +0000";
layers = (
{
anchors = (
{
name = bottom;
position = "{157, 0}";
},
{
name = top;
position = "{157, 516}";
}
);
layerId = "A6FDB8B9-512B-4F31-B986-CD5B604F5662";
paths = (
{
closed = 1;
nodes = (
"164 -195 OFFCURVE",
"268 -109 OFFCURVE",
"268 32 CURVE",
"268 531 LINE",
"166 528 OFFCURVE",
"75 499 OFFCURVE",
"-6 453 CURVE",
"59 344 LINE",
"47 -54 LINE",
"-34 -159 LINE",
"-15 -204 LINE"
);
},
{
closed = 1;
nodes = (
"129 818 OFFCURVE",
"68 780 OFFCURVE",
"25 735 CURVE",
"36 669 OFFCURVE",
"74 605 OFFCURVE",
"121 567 CURVE",
"184 575 OFFCURVE",
"248 614 OFFCURVE",
"288 662 CURVE",
"278 725 OFFCURVE",
"241 785 OFFCURVE",
"193 828 CURVE"
);
}
);
width = 314;
},
{
anchors = (
{
name = bottom;
position = "{109, 0}";
},
{
name = top;
position = "{109, 478}";
}
);
layerId = "0E5388DE-A0E6-4EB4-BC9B-CE5870C9023F";
paths = (
{
closed = 1;
nodes = (
"87 -141 OFFCURVE",
"130 -81 OFFCURVE",
"130 -1 CURVE SMOOTH",
"130 487 LINE",
"103 481 OFFCURVE",
"79 471 OFFCURVE",
"56 457 CURVE",
"104 406 LINE",
"95 -60 LINE",
"6 -193 LINE",
"11 -199 LINE"
);
},
{
closed = 1;
nodes = (
"103 668 OFFCURVE",
"87 659 OFFCURVE",
"76 646 CURVE",
"80 631 OFFCURVE",
"89 616 OFFCURVE",
"101 605 CURVE",
"116 607 OFFCURVE",
"132 616 OFFCURVE",
"142 628 CURVE",
"140 643 OFFCURVE",
"131 660 OFFCURVE",
"119 671 CURVE"
);
}
);
width = 226;
}
);
leftKerningGroup = j;
rightKerningGroup = j;
unicode = 006A;
},
{
color = 4;
glyphname = k;
lastChange = "2020-01-24 22:49:08 +0000";
layers = (
{
anchors = (
{
name = bottom;
position = "{337, 0}";
},
{
name = center;
position = "{186, 603}";
},
{
name = top;
position = "{166, 741}";
},
{
name = topright;
position = "{309, 516}";
}
);
background = {
paths = (
{
closed = 1;
nodes = (
"302 0 LINE",
"302 76 LINE",
"269 99 LINE",
"269 784 LINE",
"167 781 OFFCURVE",
"76 752 OFFCURVE",
"-5 706 CURVE",
"63 584 LINE",
"48 104 LINE",
"35 93 OFFCURVE",
"24 81 OFFCURVE",
"15 69 CURVE",
"15 0 LINE"
);
},
{
closed = 1;
nodes = (
"504 -2 OFFCURVE",
"581 13 OFFCURVE",
"653 32 CURVE",
"391 393 LINE",
"385 239 LINE",
"599 494 LINE",
"599 516 LINE",
"452 516 LINE",
"246 266 LINE",
"419 -8 LINE"
);
},
{
closed = 1;
nodes = (
"613 439 LINE",
"613 516 LINE",
"323 516 LINE",
"323 439 LINE",
"358 402 OFFCURVE",
"399 377 OFFCURVE",
"444 362 CURVE"
);
}
);
};
layerId = "A6FDB8B9-512B-4F31-B986-CD5B604F5662";
paths = (
{
closed = 1;
nodes = (
"302 0 LINE",
"302 76 LINE",
"269 99 LINE",
"269 784 LINE",
"167 781 OFFCURVE",
"76 752 OFFCURVE",
"-5 706 CURVE",
"63 584 LINE",
"48 104 LINE",
"35 93 OFFCURVE",
"24 81 OFFCURVE",
"15 69 CURVE",
"15 0 LINE"
);
},
{
closed = 1;
nodes = (
"504 -2 OFFCURVE",
"581 13 OFFCURVE",
"653 32 CURVE",
"391 393 LINE",
"385 239 LINE",
"590 484 LINE",
"590 506 LINE",
"443 506 LINE",
"246 266 LINE",
"419 -8 LINE"
);
},
{
closed = 1;
nodes = (
"613 439 LINE",
"613 516 LINE",
"323 516 LINE",
"323 439 LINE",
"358 402 OFFCURVE",
"399 377 OFFCURVE",
"444 362 CURVE"
);
}
);
width = 620;
},
{
anchors = (
{
name = bottom;
position = "{246, 0}";
},
{
name = center;
position = "{181, 568}";
},
{
name = top;
position = "{126, 704}";
},
{
name = topright;
position = "{215, 478}";
}
);
background = {
paths = (
{
closed = 1;
nodes = (
"229 0 LINE",
"229 7 LINE",
"140 26 LINE",
"140 734 LINE",
"113 728 OFFCURVE",
"89 718 OFFCURVE",
"66 704 CURVE",
"115 653 LINE",
"105 27 LINE",
"68 23 OFFCURVE",
"44 16 OFFCURVE",
"23 8 CURVE",
"23 0 LINE"
);
},
{
closed = 1;
nodes = (
"417 -4 OFFCURVE",
"429 1 OFFCURVE",
"440 7 CURVE",
"215 265 LINE",
"215 245 LINE",
"413 471 LINE",
"413 478 LINE",
"384 478 LINE",
"186 254 LINE",
"403 -8 LINE"
);
},
{
closed = 1;
nodes = (
"451 470 LINE",
"451 478 LINE",
"292 478 LINE",
"292 470 LINE",
"321 460 OFFCURVE",
"351 452 OFFCURVE",
"387 450 CURVE"
);
}
);
};
layerId = "0E5388DE-A0E6-4EB4-BC9B-CE5870C9023F";
paths = (
{
closed = 1;
nodes = (
"229 0 LINE",
"229 7 LINE",
"140 26 LINE",
"140 734 LINE",
"113 728 OFFCURVE",
"89 718 OFFCURVE",
"66 704 CURVE",
"115 653 LINE",
"105 27 LINE",
"68 23 OFFCURVE",
"44 16 OFFCURVE",
"23 8 CURVE",
"23 0 LINE"
);
},
{
closed = 1;
nodes = (
"417 -4 OFFCURVE",
"429 1 OFFCURVE",
"440 7 CURVE",
"215 265 LINE",
"215 245 LINE",
"404 461 LINE",
"404 468 LINE",
"375 468 LINE",
"186 254 LINE",
"403 -8 LINE"
);
},
{
closed = 1;
nodes = (
"451 470 LINE",
"451 478 LINE",
"292 478 LINE",
"292 470 LINE",
"321 460 OFFCURVE",
"351 452 OFFCURVE",
"387 450 CURVE"
);
}
);
width = 465;
},
{
anchors = (
{
name = bottom;
position = "{266, 0}";
},
{
name = center;
position = "{119, 244}";
},
{
name = top;
position = "{131, 714}";
},
{
name = topright;
position = "{236, 489}";
}
);
associatedMasterId = "0E5388DE-A0E6-4EB4-BC9B-CE5870C9023F";
background = {
paths = (
{
closed = 1;
nodes = (
"244 0 LINE",
"244 27 LINE",
"170 47 LINE",
"170 748 LINE",
"120 743 OFFCURVE",
"74 727 OFFCURVE",
"34 703 CURVE",
"95 624 LINE",
"83 49 LINE",
"53 43 OFFCURVE",
"32 34 OFFCURVE",
"15 25 CURVE",
"15 0 LINE"
);
},
{
closed = 1;
nodes = (
"436 -3 OFFCURVE",
"466 4 OFFCURVE",
"494 14 CURVE",
"253 307 LINE",
"253 238 LINE",
"460 478 LINE",
"460 489 LINE",
"397 489 LINE",
"198 258 LINE",
"401 -8 LINE"
);
},
{
closed = 1;
nodes = (
"491 461 LINE",
"491 489 LINE",
"295 489 LINE",
"295 461 LINE",
"325 444 OFFCURVE",
"359 431 OFFCURVE",
"397 425 CURVE"
);
}
);
};
layerId = "E9078C9B-2EE6-4AC1-AEE5-F0B94A0706BA";
name = "{82,30}";
paths = (
{
closed = 1;
nodes = (
"244 0 LINE",
"244 27 LINE",
"170 47 LINE",
"170 748 LINE",
"120 743 OFFCURVE",
"74 727 OFFCURVE",
"34 703 CURVE",
"95 624 LINE",
"83 49 LINE",
"53 43 OFFCURVE",
"32 34 OFFCURVE",
"15 25 CURVE",
"15 0 LINE"
);
},
{
closed = 1;
nodes = (
"436 -3 OFFCURVE",
"466 4 OFFCURVE",
"494 14 CURVE",
"253 307 LINE",
"253 238 LINE",
"452 468 LINE",
"452 479 LINE",
"389 479 LINE",
"198 258 LINE",
"401 -8 LINE"
);
},
{
closed = 1;
nodes = (
"491 461 LINE",
"491 489 LINE",
"295 489 LINE",
"295 461 LINE",
"325 444 OFFCURVE",
"359 431 OFFCURVE",
"397 425 CURVE"
);
}
);
width = 495;
}
);
leftKerningGroup = h;
rightKerningGroup = x;
unicode = 006B;
},
{
color = 4;
glyphname = l;
lastChange = "2020-01-24 22:49:12 +0000";
layers = (
{
anchors = (
{
name = bottom;
position = "{158, 0}";
},
{
name = center;
position = "{160, 361}";
},
{
name = top;
position = "{158, 740}";
},
{
name = topright;
position = "{396, 769}";
}
);
layerId = "A6FDB8B9-512B-4F31-B986-CD5B604F5662";
paths = (
{
closed = 1;
nodes = (
"301 0 LINE",
"301 76 LINE",
"268 99 LINE",
"268 784 LINE",
"166 781 OFFCURVE",
"75 752 OFFCURVE",
"-6 706 CURVE",
"62 584 LINE",
"47 104 LINE",
"34 93 OFFCURVE",
"23 81 OFFCURVE",
"14 69 CURVE",
"14 0 LINE"
);
}
);
width = 320;
},
{
anchors = (
{
name = bottom;
position = "{125, 0}";
},
{
name = center;
position = "{128, 366}";
},
{
name = top;
position = "{116, 680}";
},
{
name = topright;
position = "{246, 725}";
}
);
layerId = "0E5388DE-A0E6-4EB4-BC9B-CE5870C9023F";
paths = (
{
closed = 1;
nodes = (
"229 0 LINE",
"229 7 LINE",
"140 26 LINE",
"140 734 LINE",
"113 728 OFFCURVE",
"89 718 OFFCURVE",
"66 704 CURVE",
"115 653 LINE",
"105 27 LINE",
"68 23 OFFCURVE",
"44 16 OFFCURVE",
"23 8 CURVE",
"23 0 LINE"
);
}
);
width = 250;
},
{
anchors = (
{
name = bottom;
position = "{134, 0}";
},
{
name = center;
position = "{137, 365}";
},
{
name = top;
position = "{124, 740}";
},
{
name = topright;
position = "{274, 737}";
}
);
associatedMasterId = "0E5388DE-A0E6-4EB4-BC9B-CE5870C9023F";
background = {
paths = (
{
closed = 1;
nodes = (
"244 0 LINE",
"244 27 LINE",
"171 47 LINE",
"171 748 LINE",
"121 743 OFFCURVE",
"75 727 OFFCURVE",
"33 703 CURVE",
"93 624 LINE",
"83 49 LINE",
"53 43 OFFCURVE",
"33 34 OFFCURVE",
"15 25 CURVE",
"15 0 LINE"
);
}
);
};
layerId = "C717C838-2063-4A60-A447-BCE51702F65A";
name = "{82,30}";
paths = (
{
closed = 1;
nodes = (
"244 0 LINE",
"244 27 LINE",
"171 47 LINE",
"171 748 LINE",
"121 743 OFFCURVE",
"75 727 OFFCURVE",
"33 703 CURVE",
"95 624 LINE",
"83 49 LINE",
"53 43 OFFCURVE",
"33 34 OFFCURVE",
"15 25 CURVE",
"15 0 LINE"
);
}
);
width = 264;
}
);
leftKerningGroup = h;
rightKerningGroup = l;
unicode = 006C;
},
{
color = 4;
glyphname = m;
lastChange = "2020-01-24 22:49:16 +0000";
layers = (
{
anchors = (
{
name = bottom;
position = "{470, 0}";
},
{
name = top;
position = "{470, 516}";
}
);
layerId = "A6FDB8B9-512B-4F31-B986-CD5B604F5662";
paths = (
{
closed = 1;
nodes = (
"311 0 LINE",
"311 76 LINE",
"278 99 LINE",
"278 365 LINE",
"259 531 LINE",
"171 524 OFFCURVE",
"86 498 OFFCURVE",
"4 453 CURVE",
"69 344 LINE",
"57 104 LINE",
"44 93 OFFCURVE",
"33 81 OFFCURVE",
"24 69 CURVE",
"24 0 LINE"
);
},
{
closed = 1;
nodes = (
"620 0 LINE",
"620 76 LINE",
"585 99 LINE",
"585 362 LINE",
"603 398 LINE",
"376 331 LINE",
"364 104 LINE",
"351 94 OFFCURVE",
"340 82 OFFCURVE",
"332 69 CURVE",
"332 0 LINE"
);
},
{
closed = 1;
nodes = (
"603 398 LINE",
"550 506 OFFCURVE",
"468 543 OFFCURVE",
"360 524 CURVE",
"321 476 OFFCURVE",
"288 420 OFFCURVE",
"262 358 CURVE",
"268 336 LINE",
"285 341 OFFCURVE",
"300 343 OFFCURVE",
"316 343 CURVE SMOOTH",
"336 343 OFFCURVE",
"356 339 OFFCURVE",
"376 331 CURVE"
);
},
{
closed = 1;
nodes = (
"927 0 LINE",
"927 76 LINE",
"892 99 LINE",
"892 429 LINE",
"683 331 LINE",
"671 104 LINE",
"658 94 OFFCURVE",
"647 82 OFFCURVE",
"639 69 CURVE",
"639 0 LINE"
);
},
{
closed = 1;
nodes = (
"892 429 LINE",
"843 510 OFFCURVE",
"767 541 OFFCURVE",
"667 524 CURVE",
"628 476 OFFCURVE",
"595 420 OFFCURVE",
"569 358 CURVE",
"575 336 LINE",
"592 341 OFFCURVE",
"607 343 OFFCURVE",
"623 343 CURVE SMOOTH",
"643 343 OFFCURVE",
"663 339 OFFCURVE",
"683 331 CURVE"
);
}
);
width = 938;
},
{
anchors = (
{
name = bottom;
position = "{420, 0}";
},
{
name = top;
position = "{420, 478}";
}
);
layerId = "0E5388DE-A0E6-4EB4-BC9B-CE5870C9023F";
paths = (
{
closed = 1;
nodes = (
"231 0 LINE",
"231 7 LINE",
"142 26 LINE",
"142 410 LINE",
"138 487 LINE",
"114 481 OFFCURVE",
"90 471 OFFCURVE",
"68 457 CURVE",
"116 406 LINE",
"107 27 LINE",
"70 23 OFFCURVE",
"46 16 OFFCURVE",
"25 8 CURVE",
"25 0 LINE"
);
},
{
closed = 1;
nodes = (
"531 0 LINE",
"531 7 LINE",
"442 26 LINE",
"442 407 LINE",
"442 413 LINE",
"416 398 LINE",
"407 27 LINE",
"370 23 OFFCURVE",
"346 16 OFFCURVE",
"325 8 CURVE",
"325 0 LINE"
);
},
{
closed = 1;
nodes = (
"442 413 LINE",
"392 467 OFFCURVE",
"338 489 OFFCURVE",
"274 485 CURVE",
"224 472 OFFCURVE",
"179 449 OFFCURVE",
"137 412 CURVE",
"137 393 LINE",
"186 434 OFFCURVE",
"236 455 OFFCURVE",
"285 455 CURVE SMOOTH",
"331 455 OFFCURVE",
"376 436 OFFCURVE",
"416 398 CURVE"
);
},
{
closed = 1;
nodes = (
"831 0 LINE",
"831 7 LINE",
"742 26 LINE",
"742 413 LINE",
"716 398 LINE",
"707 27 LINE",
"670 23 OFFCURVE",
"646 16 OFFCURVE",
"625 8 CURVE",
"625 0 LINE"
);
},
{
closed = 1;
nodes = (
"742 413 LINE",
"692 467 OFFCURVE",
"638 489 OFFCURVE",
"574 485 CURVE",
"524 472 OFFCURVE",
"479 449 OFFCURVE",
"437 412 CURVE",
"437 393 LINE",
"486 434 OFFCURVE",
"536 455 OFFCURVE",
"585 455 CURVE SMOOTH",
"631 455 OFFCURVE",
"676 436 OFFCURVE",
"716 398 CURVE"
);
}
);
width = 846;
},
{
anchors = (
{
name = bottom;
position = "{428, 0}";
},
{
name = top;
position = "{428, 489}";
}
);
associatedMasterId = "0E5388DE-A0E6-4EB4-BC9B-CE5870C9023F";
background = {
paths = (
{
closed = 1;
nodes = (
"223 0 LINE",
"223 7 LINE",
"134 26 LINE",
"134 487 LINE",
"107 481 OFFCURVE",
"83 471 OFFCURVE",
"60 457 CURVE",
"108 406 LINE",
"99 27 LINE",
"68 24 OFFCURVE",
"41 17 OFFCURVE",
"17 8 CURVE",
"17 0 LINE"
);
}
);
};
layerId = "CEE10ED5-272E-4AAE-ADBC-EDFB1F526922";
name = "{82,30}";
paths = (
{
closed = 1;
nodes = (
"248 0 LINE",
"248 27 LINE",
"174 47 LINE",
"174 397 LINE",
"166 499 LINE",
"122 493 OFFCURVE",
"79 478 OFFCURVE",
"38 454 CURVE",
"97 378 LINE",
"87 49 LINE",
"57 43 OFFCURVE",
"36 34 OFFCURVE",
"19 25 CURVE",
"19 0 LINE"
);
},
{
closed = 1;
nodes = (
"550 0 LINE",
"550 27 LINE",
"476 47 LINE",
"476 394 LINE",
"481 409 LINE",
"399 379 LINE",
"389 49 LINE",
"359 43 OFFCURVE",
"338 35 OFFCURVE",
"321 25 CURVE",
"321 0 LINE"
);
},
{
closed = 1;
nodes = (
"481 409 LINE",
"431 478 OFFCURVE",
"369 504 OFFCURVE",
"292 496 CURVE",
"245 473 OFFCURVE",
"204 441 OFFCURVE",
"166 397 CURVE",
"168 377 LINE",
"208 408 OFFCURVE",
"249 423 OFFCURVE",
"289 423 CURVE SMOOTH",
"327 423 OFFCURVE",
"365 409 OFFCURVE",
"399 379 CURVE"
);
},
{
closed = 1;
nodes = (
"852 0 LINE",
"852 27 LINE",
"778 47 LINE",
"778 418 LINE",
"701 379 LINE",
"691 49 LINE",
"661 43 OFFCURVE",
"640 35 OFFCURVE",
"623 25 CURVE",
"623 0 LINE"
);
},
{
closed = 1;
nodes = (
"778 418 LINE",
"729 479 OFFCURVE",
"668 504 OFFCURVE",
"594 496 CURVE",
"547 473 OFFCURVE",
"506 441 OFFCURVE",
"468 397 CURVE",
"470 377 LINE",
"510 408 OFFCURVE",
"551 423 OFFCURVE",
"591 423 CURVE SMOOTH",
"629 423 OFFCURVE",
"667 409 OFFCURVE",
"701 379 CURVE"
);
}
);
width = 866;
}
);
leftKerningGroup = n;
rightKerningGroup = n;
unicode = 006D;
},
{
color = 4;
glyphname = n;
lastChange = "2020-01-24 22:49:19 +0000";
layers = (
{
anchors = (
{
name = bottom;
position = "{317, 0}";
},
{
name = top;
position = "{337, 516}";
}
);
layerId = "A6FDB8B9-512B-4F31-B986-CD5B604F5662";
paths = (
{
closed = 1;
nodes = (
"311 0 LINE",
"311 76 LINE",
"278 99 LINE",
"278 365 LINE",
"259 531 LINE",
"171 524 OFFCURVE",
"86 498 OFFCURVE",
"4 453 CURVE",
"69 344 LINE",
"57 104 LINE",
"44 93 OFFCURVE",
"33 81 OFFCURVE",
"24 69 CURVE",
"24 0 LINE"
);
},
{
closed = 1;
nodes = (
"620 0 LINE",
"620 76 LINE",
"585 99 LINE",
"585 429 LINE",
"376 331 LINE",
"364 104 LINE",
"351 94 OFFCURVE",
"340 82 OFFCURVE",
"332 69 CURVE",
"332 0 LINE"
);
},
{
closed = 1;
nodes = (
"285 341 OFFCURVE",
"300 343 OFFCURVE",
"316 343 CURVE SMOOTH",
"336 343 OFFCURVE",
"356 339 OFFCURVE",
"376 331 CURVE",
"585 429 LINE",
"536 510 OFFCURVE",
"460 541 OFFCURVE",
"360 524 CURVE",
"321 476 OFFCURVE",
"288 420 OFFCURVE",
"262 358 CURVE",
"268 336 LINE"
);
}
);
width = 631;
},
{
anchors = (
{
name = bottom;
position = "{268, 0}";
},
{
name = top;
position = "{277, 478}";
}
);
layerId = "0E5388DE-A0E6-4EB4-BC9B-CE5870C9023F";
paths = (
{
closed = 1;
nodes = (
"231 0 LINE",
"231 7 LINE",
"142 26 LINE",
"142 410 LINE",
"138 487 LINE",
"114 481 OFFCURVE",
"90 471 OFFCURVE",
"68 457 CURVE",
"116 406 LINE",
"107 27 LINE",
"70 23 OFFCURVE",
"46 16 OFFCURVE",
"25 8 CURVE",
"25 0 LINE"
);
},
{
closed = 1;
nodes = (
"531 0 LINE",
"531 7 LINE",
"442 26 LINE",
"442 413 LINE",
"416 398 LINE",
"407 27 LINE",
"370 23 OFFCURVE",
"346 16 OFFCURVE",
"325 8 CURVE",
"325 0 LINE"
);
},
{
closed = 1;
nodes = (
"186 434 OFFCURVE",
"236 455 OFFCURVE",
"285 455 CURVE SMOOTH",
"331 455 OFFCURVE",
"376 436 OFFCURVE",
"416 398 CURVE",
"442 413 LINE",
"392 467 OFFCURVE",
"338 489 OFFCURVE",
"274 485 CURVE",
"224 472 OFFCURVE",
"179 449 OFFCURVE",
"137 412 CURVE",
"137 393 LINE"
);
}
);
width = 546;
},
{
anchors = (
{
name = bottom;
position = "{276, 0}";
},
{
name = top;
position = "{291, 489}";
}
);
associatedMasterId = "0E5388DE-A0E6-4EB4-BC9B-CE5870C9023F";
background = {
paths = (
{
closed = 1;
nodes = (
"227 0 LINE",
"227 7 LINE",
"138 26 LINE",
"138 410 LINE",
"134 487 LINE",
"105 480 OFFCURVE",
"79 468 OFFCURVE",
"54 451 CURVE",
"112 394 LINE",
"103 27 LINE",
"66 23 OFFCURVE",
"42 16 OFFCURVE",
"21 8 CURVE",
"21 0 LINE"
);
},
{
closed = 1;
nodes = (
"527 0 LINE",
"527 7 LINE",
"438 26 LINE",
"438 413 LINE",
"412 398 LINE",
"403 27 LINE",
"366 23 OFFCURVE",
"342 16 OFFCURVE",
"321 8 CURVE",
"321 0 LINE"
);
},
{
closed = 1;
nodes = (
"438 413 LINE",
"388 467 OFFCURVE",
"334 489 OFFCURVE",
"270 485 CURVE",
"220 472 OFFCURVE",
"175 449 OFFCURVE",
"133 412 CURVE",
"133 393 LINE",
"228 473 OFFCURVE",
"329 476 OFFCURVE",
"412 398 CURVE"
);
}
);
};
layerId = "115379E7-D825-474F-B49F-E9855C8CBD5F";
name = "{82,30}";
paths = (
{
closed = 1;
nodes = (
"248 0 LINE",
"248 27 LINE",
"174 47 LINE",
"174 397 LINE",
"166 499 LINE",
"124 493 OFFCURVE",
"83 479 OFFCURVE",
"44 456 CURVE",
"97 388 LINE",
"87 49 LINE",
"57 43 OFFCURVE",
"36 34 OFFCURVE",
"19 25 CURVE",
"19 0 LINE"
);
},
{
closed = 1;
nodes = (
"550 0 LINE",
"550 27 LINE",
"476 47 LINE",
"476 418 LINE",
"399 379 LINE",
"389 49 LINE",
"359 43 OFFCURVE",
"338 35 OFFCURVE",
"321 25 CURVE",
"321 0 LINE"
);
},
{
closed = 1;
nodes = (
"208 408 OFFCURVE",
"249 423 OFFCURVE",
"289 423 CURVE SMOOTH",
"327 423 OFFCURVE",
"365 409 OFFCURVE",
"399 379 CURVE",
"476 418 LINE",
"427 479 OFFCURVE",
"366 504 OFFCURVE",
"292 496 CURVE",
"245 473 OFFCURVE",
"204 441 OFFCURVE",
"166 397 CURVE",
"168 377 LINE"
);
}
);
width = 564;
}
);
leftKerningGroup = n;
rightKerningGroup = n;
unicode = 006E;
},
{
color = 4;
glyphname = ntilde;
lastChange = "2020-01-24 22:38:29 +0000";
layers = (
{
anchors = (
{
name = top;
position = "{337, 758}";
}
);
components = (
{
name = n;
}
);
layerId = "A6FDB8B9-512B-4F31-B986-CD5B604F5662";
paths = (
{
closed = 1;
nodes = (
"235 644 LINE",
"387 609 LINE SMOOTH",
"450 594 OFFCURVE",
"479 619 OFFCURVE",
"555 770 CURVE",
"511 808 LINE",
"438 754 LINE",
"287 789 LINE SMOOTH",
"232 802 OFFCURVE",
"203 797 OFFCURVE",
"118 628 CURVE",
"162 590 LINE"
);
}
);
width = 631;
},
{
anchors = (
{
name = top;
position = "{277, 687}";
}
);
components = (
{
name = n;
}
);
layerId = "0E5388DE-A0E6-4EB4-BC9B-CE5870C9023F";
paths = (
{
closed = 1;
nodes = (
"211 641 LINE",
"319 612 LINE SMOOTH",
"340 606 OFFCURVE",
"350 603 OFFCURVE",
"407 680 CURVE",
"400 687 LINE",
"343 635 LINE",
"235 664 LINE SMOOTH",
"213 670 OFFCURVE",
"205 673 OFFCURVE",
"147 597 CURVE",
"154 589 LINE"
);
}
);
width = 546;
}
);
leftKerningGroup = n;
rightKerningGroup = n;
unicode = 00F1;
},
{
color = 4;
glyphname = o;
lastChange = "2020-01-24 22:38:29 +0000";
layers = (
{
anchors = (
{
name = bottom;
position = "{279, 0}";
},
{
name = center;
position = "{279, 258}";
},
{
name = ogonek;
position = "{479, 10}";
},
{
name = top;
position = "{279, 516}";
},
{
name = topright;
position = "{471, 516}";
}
);
layerId = "A6FDB8B9-512B-4F31-B986-CD5B604F5662";
paths = (
{
closed = 1;
nodes = (
"450 -15 OFFCURVE",
"548 87 OFFCURVE",
"548 273 CURVE SMOOTH",
"548 440 OFFCURVE",
"454 531 OFFCURVE",
"283 531 CURVE SMOOTH",
"108 531 OFFCURVE",
"10 431 OFFCURVE",
"10 253 CURVE SMOOTH",
"10 80 OFFCURVE",
"101 -15 OFFCURVE",
"269 -15 CURVE SMOOTH"
);
},
{
closed = 1;
nodes = (
"243 112 OFFCURVE",
"233 142 OFFCURVE",
"233 256 CURVE SMOOTH",
"233 312 OFFCURVE",
"236 354 OFFCURVE",
"243 393 CURVE",
"254 395 OFFCURVE",
"263 396 OFFCURVE",
"271 396 CURVE SMOOTH",
"316 396 OFFCURVE",
"325 364 OFFCURVE",
"325 256 CURVE SMOOTH",
"325 141 OFFCURVE",
"316 112 OFFCURVE",
"281 112 CURVE SMOOTH"
);
}
);
width = 558;
},
{
anchors = (
{
name = bottom;
position = "{250, 0}";
},
{
name = center;
position = "{250, 239}";
},
{
name = ogonek;
position = "{358, 10}";
},
{
name = top;
position = "{250, 478}";
},
{
name = topright;
position = "{427, 478}";
}
);
layerId = "0E5388DE-A0E6-4EB4-BC9B-CE5870C9023F";
paths = (
{
closed = 1;
nodes = (
"363 -7 OFFCURVE",
"451 98 OFFCURVE",
"451 244 CURVE SMOOTH",
"451 383 OFFCURVE",
"369 485 OFFCURVE",
"254 485 CURVE SMOOTH",
"136 485 OFFCURVE",
"49 378 OFFCURVE",
"49 230 CURVE SMOOTH",
"49 92 OFFCURVE",
"129 -7 OFFCURVE",
"244 -7 CURVE SMOOTH"
);
},
{
closed = 1;
nodes = (
"152 21 OFFCURVE",
"81 110 OFFCURVE",
"81 236 CURVE SMOOTH",
"81 299 OFFCURVE",
"99 361 OFFCURVE",
"135 419 CURVE",
"171 443 OFFCURVE",
"211 455 OFFCURVE",
"248 455 CURVE SMOOTH",
"349 455 OFFCURVE",
"419 370 OFFCURVE",
"419 243 CURVE SMOOTH",
"419 112 OFFCURVE",
"347 21 OFFCURVE",
"248 21 CURVE SMOOTH"
);
}
);
width = 500;
}
);
leftKerningGroup = o;
rightKerningGroup = o;
unicode = 006F;
},
{
color = 4;
glyphname = oacute;
lastChange = "2020-01-24 22:38:29 +0000";
layers = (
{
anchors = (
{
name = top;
position = "{279, 753}";
}
);
components = (
{
name = o;
}
);
layerId = "A6FDB8B9-512B-4F31-B986-CD5B604F5662";
paths = (
{
closed = 1;
nodes = (
"263 591 OFFCURVE",
"355 625 OFFCURVE",
"446 667 CURVE",
"372 814 LINE",
"345 814 LINE",
"126 636 LINE",
"168 563 LINE"
);
}
);
width = 558;
},
{
anchors = (
{
name = top;
position = "{250, 703}";
}
);
components = (
{
name = o;
}
);
layerId = "0E5388DE-A0E6-4EB4-BC9B-CE5870C9023F";
paths = (
{
closed = 1;
nodes = (
"244 601 OFFCURVE",
"302 639 OFFCURVE",
"357 681 CURVE",
"341 703 LINE",
"335 703 LINE",
"179 574 LINE",
"185 565 LINE"
);
}
);
width = 500;
}
);
leftKerningGroup = o;
rightKerningGroup = o;
unicode = 00F3;
},
{
color = 4;
glyphname = odieresis;
lastChange = "2020-01-24 22:38:29 +0000";
layers = (
{
anchors = (
{
name = top;
position = "{250, 668}";
}
);
components = (
{
name = o;
}
);
layerId = "0E5388DE-A0E6-4EB4-BC9B-CE5870C9023F";
paths = (
{
closed = 1;
nodes = (
"173 665 OFFCURVE",
"159 656 OFFCURVE",
"148 645 CURVE",
"152 630 OFFCURVE",
"161 617 OFFCURVE",
"171 606 CURVE",
"186 608 OFFCURVE",
"201 617 OFFCURVE",
"210 627 CURVE",
"208 642 OFFCURVE",
"200 657 OFFCURVE",
"189 668 CURVE"
);
},
{
closed = 1;
nodes = (
"315 665 OFFCURVE",
"300 656 OFFCURVE",
"290 645 CURVE",
"294 630 OFFCURVE",
"301 617 OFFCURVE",
"313 606 CURVE",
"328 608 OFFCURVE",
"342 617 OFFCURVE",
"352 627 CURVE",
"350 642 OFFCURVE",
"341 657 OFFCURVE",
"331 668 CURVE"
);
}
);
width = 500;
},
{
anchors = (
{
name = top;
position = "{279, 808}";
}
);
components = (
{
name = o;
}
);
layerId = "A6FDB8B9-512B-4F31-B986-CD5B604F5662";
paths = (
{
closed = 1;
nodes = (
"129 799 OFFCURVE",
"76 766 OFFCURVE",
"38 727 CURVE",
"48 669 OFFCURVE",
"81 613 OFFCURVE",
"123 580 CURVE",
"177 587 OFFCURVE",
"233 621 OFFCURVE",
"268 663 CURVE",
"260 718 OFFCURVE",
"228 770 OFFCURVE",
"185 808 CURVE"
);
},
{
closed = 1;
nodes = (
"380 799 OFFCURVE",
"327 766 OFFCURVE",
"289 727 CURVE",
"298 669 OFFCURVE",
"331 613 OFFCURVE",
"373 580 CURVE",
"428 587 OFFCURVE",
"484 621 OFFCURVE",
"519 663 CURVE",
"510 718 OFFCURVE",
"477 770 OFFCURVE",
"435 808 CURVE"
);
}
);
width = 558;
}
);
leftKerningGroup = o;
rightKerningGroup = o;
unicode = 00F6;
},
{
color = 4;
glyphname = ograve;
lastChange = "2020-01-24 22:38:29 +0000";
layers = (
{
anchors = (
{
name = top;
position = "{250, 703}";
}
);
components = (
{
name = o;
}
);
layerId = "0E5388DE-A0E6-4EB4-BC9B-CE5870C9023F";
paths = (
{
closed = 1;
nodes = (
"339 574 LINE",
"183 703 LINE",
"177 703 LINE",
"161 681 LINE",
"216 639 OFFCURVE",
"274 601 OFFCURVE",
"333 565 CURVE"
);
}
);
width = 500;
},
{
anchors = (
{
name = top;
position = "{279, 814}";
}
);
components = (
{
name = o;
}
);
layerId = "A6FDB8B9-512B-4F31-B986-CD5B604F5662";
paths = (
{
closed = 1;
nodes = (
"439 636 LINE",
"220 814 LINE",
"193 814 LINE",
"119 667 LINE",
"210 625 OFFCURVE",
"302 591 OFFCURVE",
"397 563 CURVE"
);
}
);
width = 558;
}
);
leftKerningGroup = o;
rightKerningGroup = o;
unicode = 00F2;
},
{
color = 4;
glyphname = oslash;
lastChange = "2020-01-24 22:38:29 +0000";
layers = (
{
anchors = (
{
name = bottom;
position = "{256, 0}";
},
{
name = center;
position = "{256, 239}";
},
{
name = ogonek;
position = "{457, 10}";
},
{
name = top;
position = "{257, 478}";
},
{
name = topright;
position = "{434, 478}";
}
);
layerId = "0E5388DE-A0E6-4EB4-BC9B-CE5870C9023F";
paths = (
{
closed = 1;
nodes = (
"151 38 LINE",
"90 -103 LINE",
"116 -111 LINE",
"175 25 LINE"
);
},
{
closed = 1;
nodes = (
"369 -7 OFFCURVE",
"457 98 OFFCURVE",
"457 244 CURVE SMOOTH",
"457 384 OFFCURVE",
"374 485 OFFCURVE",
"260 485 CURVE SMOOTH",
"141 485 OFFCURVE",
"53 378 OFFCURVE",
"53 230 CURVE SMOOTH",
"53 91 OFFCURVE",
"134 -7 OFFCURVE",
"249 -7 CURVE SMOOTH"
);
},
{
closed = 1;
nodes = (
"156 21 OFFCURVE",
"84 110 OFFCURVE",
"84 236 CURVE SMOOTH",
"84 297 OFFCURVE",
"102 361 OFFCURVE",
"138 419 CURVE",
"175 443 OFFCURVE",
"214 455 OFFCURVE",
"253 455 CURVE SMOOTH",
"355 455 OFFCURVE",
"426 370 OFFCURVE",
"426 243 CURVE SMOOTH",
"426 111 OFFCURVE",
"353 21 OFFCURVE",
"253 21 CURVE SMOOTH"
);
},
{
closed = 1;
nodes = (
"355 442 LINE",
"415 581 LINE",
"389 589 LINE",
"331 455 LINE"
);
},
{
closed = 1;
nodes = (
"175 25 LINE",
"355 442 LINE",
"331 455 LINE",
"151 38 LINE"
);
}
);
width = 510;
},
{
anchors = (
{
name = bottom;
position = "{280, 0}";
},
{
name = center;
position = "{280, 258}";
},
{
name = ogonek;
position = "{512, 10}";
},
{
name = top;
position = "{290, 516}";
},
{
name = topright;
position = "{473, 516}";
}
);
layerId = "A6FDB8B9-512B-4F31-B986-CD5B604F5662";
paths = (
{
closed = 1;
nodes = (
"159 89 LINE",
"95 -79 LINE",
"194 -115 LINE",
"255 45 LINE"
);
},
{
closed = 1;
nodes = (
"451 -15 OFFCURVE",
"550 87 OFFCURVE",
"550 273 CURVE SMOOTH",
"550 440 OFFCURVE",
"455 531 OFFCURVE",
"284 531 CURVE SMOOTH",
"108 531 OFFCURVE",
"9 431 OFFCURVE",
"9 253 CURVE SMOOTH",
"9 80 OFFCURVE",
"101 -15 OFFCURVE",
"269 -15 CURVE SMOOTH"
);
},
{
closed = 1;
nodes = (
"243 112 OFFCURVE",
"232 141 OFFCURVE",
"232 256 CURVE SMOOTH",
"232 309 OFFCURVE",
"235 354 OFFCURVE",
"242 393 CURVE",
"254 395 OFFCURVE",
"263 396 OFFCURVE",
"271 396 CURVE SMOOTH",
"317 396 OFFCURVE",
"327 364 OFFCURVE",
"327 256 CURVE SMOOTH",
"327 140 OFFCURVE",
"317 112 OFFCURVE",
"281 112 CURVE SMOOTH"
);
},
{
closed = 1;
nodes = (
"398 424 LINE",
"463 596 LINE",
"364 631 LINE",
"301 464 LINE"
);
},
{
closed = 1;
nodes = (
"255 45 LINE",
"398 424 LINE",
"301 464 LINE",
"159 89 LINE"
);
}
);
width = 559;
}
);
leftKerningGroup = o;
rightKerningGroup = o;
unicode = 00F8;
},
{
color = 4;
glyphname = otilde;
lastChange = "2020-01-24 22:38:29 +0000";
layers = (
{
anchors = (
{
name = top;
position = "{250, 687}";
}
);
components = (
{
name = o;
}
);
layerId = "0E5388DE-A0E6-4EB4-BC9B-CE5870C9023F";
paths = (
{
closed = 1;
nodes = (
"184 641 LINE",
"292 612 LINE SMOOTH",
"313 606 OFFCURVE",
"323 603 OFFCURVE",
"380 680 CURVE",
"373 687 LINE",
"316 635 LINE",
"208 664 LINE SMOOTH",
"186 670 OFFCURVE",
"178 673 OFFCURVE",
"120 597 CURVE",
"127 589 LINE"
);
}
);
width = 500;
},
{
anchors = (
{
name = top;
position = "{279, 758}";
}
);
components = (
{
name = o;
}
);
layerId = "A6FDB8B9-512B-4F31-B986-CD5B604F5662";
paths = (
{
closed = 1;
nodes = (
"177 644 LINE",
"329 609 LINE SMOOTH",
"392 594 OFFCURVE",
"421 619 OFFCURVE",
"497 770 CURVE",
"453 808 LINE",
"380 754 LINE",
"229 789 LINE SMOOTH",
"174 802 OFFCURVE",
"145 797 OFFCURVE",
"60 628 CURVE",
"104 590 LINE"
);
}
);
width = 558;
}
);
leftKerningGroup = o;
rightKerningGroup = o;
unicode = 00F5;
},
{
color = 4;
glyphname = oe;
lastChange = "2020-01-24 22:38:29 +0000";
layers = (
{
anchors = (
{
name = bottom;
position = "{413, 0}";
},
{
name = top;
position = "{413, 478}";
}
);
layerId = "0E5388DE-A0E6-4EB4-BC9B-CE5870C9023F";
paths = (
{
closed = 1;
nodes = (
"360 -7 OFFCURVE",
"446 98 OFFCURVE",
"446 244 CURVE SMOOTH",
"446 384 OFFCURVE",
"365 485 OFFCURVE",
"252 485 CURVE SMOOTH",
"135 485 OFFCURVE",
"49 378 OFFCURVE",
"49 230 CURVE SMOOTH",
"49 91 OFFCURVE",
"128 -7 OFFCURVE",
"242 -7 CURVE SMOOTH"
);
},
{
closed = 1;
nodes = (
"152 21 OFFCURVE",
"81 110 OFFCURVE",
"81 236 CURVE SMOOTH",
"81 299 OFFCURVE",
"99 361 OFFCURVE",
"135 419 CURVE",
"171 443 OFFCURVE",
"211 455 OFFCURVE",
"248 455 CURVE SMOOTH",
"349 455 OFFCURVE",
"419 370 OFFCURVE",
"419 243 CURVE SMOOTH",
"419 112 OFFCURVE",
"347 21 OFFCURVE",
"248 21 CURVE SMOOTH"
);
},
{
closed = 1;
nodes = (
"671 -6 OFFCURVE",
"726 18 OFFCURVE",
"779 62 CURVE",
"776 69 LINE",
"721 40 OFFCURVE",
"670 26 OFFCURVE",
"625 26 CURVE SMOOTH",
"520 26 OFFCURVE",
"452 104 OFFCURVE",
"452 244 CURVE SMOOTH",
"452 309 OFFCURVE",
"470 367 OFFCURVE",
"505 419 CURVE",
"540 442 OFFCURVE",
"582 455 OFFCURVE",
"618 455 CURVE SMOOTH",
"696 455 OFFCURVE",
"752 397 OFFCURVE",
"752 313 CURVE",
"747 265 LINE",
"435 260 LINE",
"435 232 LINE",
"609 232 OFFCURVE",
"681 237 OFFCURVE",
"778 254 CURVE",
"782 316 LINE",
"783 414 OFFCURVE",
"718 485 OFFCURVE",
"623 485 CURVE",
"513 485 OFFCURVE",
"422 381 OFFCURVE",
"422 243 CURVE SMOOTH",
"422 93 OFFCURVE",
"498 -6 OFFCURVE",
"615 -6 CURVE SMOOTH"
);
}
);
width = 837;
},
{
anchors = (
{
name = bottom;
position = "{415, 0}";
},
{
name = top;
position = "{415, 516}";
}
);
layerId = "A6FDB8B9-512B-4F31-B986-CD5B604F5662";
paths = (
{
closed = 1;
nodes = (
"413 -15 OFFCURVE",
"489 87 OFFCURVE",
"489 273 CURVE SMOOTH",
"489 440 OFFCURVE",
"416 531 OFFCURVE",
"269 531 CURVE SMOOTH",
"103 531 OFFCURVE",
"11 431 OFFCURVE",
"11 253 CURVE SMOOTH",
"11 80 OFFCURVE",
"97 -15 OFFCURVE",
"255 -15 CURVE SMOOTH"
);
},
{
closed = 1;
nodes = (
"244 112 OFFCURVE",
"234 142 OFFCURVE",
"234 256 CURVE SMOOTH",
"234 312 OFFCURVE",
"237 354 OFFCURVE",
"244 393 CURVE",
"255 395 OFFCURVE",
"264 396 OFFCURVE",
"272 396 CURVE SMOOTH",
"317 396 OFFCURVE",
"326 364 OFFCURVE",
"326 256 CURVE SMOOTH",
"326 141 OFFCURVE",
"317 112 OFFCURVE",
"282 112 CURVE SMOOTH"
);
},
{
closed = 1;
nodes = (
"670 -15 OFFCURVE",
"757 33 OFFCURVE",
"824 126 CURVE",
"809 166 LINE",
"752 151 OFFCURVE",
"703 142 OFFCURVE",
"663 142 CURVE SMOOTH",
"570 142 OFFCURVE",
"523 185 OFFCURVE",
"523 280 CURVE SMOOTH",
"523 313 OFFCURVE",
"528 350 OFFCURVE",
"538 393 CURVE",
"552 396 OFFCURVE",
"562 398 OFFCURVE",
"574 398 CURVE SMOOTH",
"613 398 OFFCURVE",
"630 377 OFFCURVE",
"630 330 CURVE",
"627 298 LINE",
"459 299 LINE",
"458 196 LINE",
"555 204 OFFCURVE",
"662 220 OFFCURVE",
"812 249 CURVE",
"815 315 LINE",
"815 449 OFFCURVE",
"735 527 OFFCURVE",
"590 527 CURVE SMOOTH",
"439 527 OFFCURVE",
"359 422 OFFCURVE",
"359 252 CURVE SMOOTH",
"359 87 OFFCURVE",
"436 -15 OFFCURVE",
"572 -15 CURVE SMOOTH"
);
}
);
width = 834;
}
);
leftKerningGroup = o;
rightKerningGroup = e;
unicode = 0153;
},
{
color = 4;
glyphname = p;
lastChange = "2020-01-24 22:49:22 +0000";
layers = (
{
anchors = (
{
name = bottom;
position = "{301, 0}";
},
{
name = top;
position = "{301, 516}";
}
);
layerId = "A6FDB8B9-512B-4F31-B986-CD5B604F5662";
paths = (
{
closed = 1;
nodes = (
"166 -1 OFFCURVE",
"236 -14 OFFCURVE",
"298 -14 CURVE SMOOTH",
"474 -14 OFFCURVE",
"584 89 OFFCURVE",
"584 273 CURVE SMOOTH",
"584 444 OFFCURVE",
"489 545 OFFCURVE",
"348 524 CURVE",
"311 473 OFFCURVE",
"283 424 OFFCURVE",
"257 367 CURVE",
"259 337 LINE",
"276 341 OFFCURVE",
"292 343 OFFCURVE",
"308 343 CURVE SMOOTH",
"348 343 OFFCURVE",
"385 330 OFFCURVE",
"421 301 CURVE",
"352 360 LINE",
"363 321 OFFCURVE",
"367 273 OFFCURVE",
"367 233 CURVE SMOOTH",
"367 165 OFFCURVE",
"355 131 OFFCURVE",
"305 131 CURVE SMOOTH",
"267 131 OFFCURVE",
"207 150 OFFCURVE",
"115 188 CURVE",
"89 25 LINE"
);
},
{
closed = 1;
nodes = (
"303 -196 LINE",
"303 -120 LINE",
"271 -97 LINE",
"271 365 LINE",
"252 531 LINE",
"164 524 OFFCURVE",
"80 498 OFFCURVE",
"-3 453 CURVE",
"62 344 LINE",
"50 -92 LINE",
"37 -103 OFFCURVE",
"27 -115 OFFCURVE",
"17 -127 CURVE",
"17 -196 LINE"
);
}
);
width = 594;
},
{
anchors = (
{
name = bottom;
position = "{257, 0}";
},
{
name = top;
position = "{257, 478}";
}
);
layerId = "0E5388DE-A0E6-4EB4-BC9B-CE5870C9023F";
paths = (
{
closed = 1;
nodes = (
"147 0 OFFCURVE",
"188 -7 OFFCURVE",
"226 -7 CURVE SMOOTH",
"366 -7 OFFCURVE",
"462 90 OFFCURVE",
"462 246 CURVE SMOOTH",
"462 392 OFFCURVE",
"379 486 OFFCURVE",
"252 486 CURVE",
"203 470 OFFCURVE",
"159 444 OFFCURVE",
"122 414 CURVE",
"122 395 LINE",
"167 434 OFFCURVE",
"214 454 OFFCURVE",
"261 454 CURVE SMOOTH",
"309 454 OFFCURVE",
"357 434 OFFCURVE",
"405 394 CURVE",
"367 435 LINE",
"410 382 OFFCURVE",
"431 320 OFFCURVE",
"431 245 CURVE SMOOTH",
"431 103 OFFCURVE",
"354 20 OFFCURVE",
"229 20 CURVE SMOOTH",
"195 20 OFFCURVE",
"158 26 OFFCURVE",
"118 38 CURVE",
"104 15 LINE"
);
},
{
closed = 1;
nodes = (
"245 -195 LINE",
"245 -188 LINE",
"129 -169 LINE",
"129 410 LINE",
"125 487 LINE",
"101 481 OFFCURVE",
"79 470 OFFCURVE",
"55 457 CURVE",
"103 406 LINE",
"94 -168 LINE",
"57 -172 OFFCURVE",
"34 -180 OFFCURVE",
"13 -187 CURVE",
"13 -195 LINE"
);
}
);
width = 510;
},
{
anchors = (
{
name = bottom;
position = "{264, 0}";
},
{
name = top;
position = "{264, 489}";
}
);
associatedMasterId = "0E5388DE-A0E6-4EB4-BC9B-CE5870C9023F";
background = {
paths = (
{
closed = 1;
nodes = (
"326 -61 OFFCURVE",
"496 40 OFFCURVE",
"496 254 CURVE SMOOTH",
"496 407 OFFCURVE",
"409 503 OFFCURVE",
"276 497 CURVE",
"229 471 OFFCURVE",
"189 439 OFFCURVE",
"154 401 CURVE",
"155 379 LINE",
"239 440 OFFCURVE",
"324 437 OFFCURVE",
"409 368 CURVE",
"361 414 LINE",
"396 365 OFFCURVE",
"412 306 OFFCURVE",
"412 242 CURVE SMOOTH",
"412 77 OFFCURVE",
"310 13 OFFCURVE",
"111 80 CURVE",
"94 18 LINE"
);
},
{
closed = 1;
nodes = (
"258 -195 LINE",
"258 -169 LINE",
"163 -149 LINE",
"163 397 LINE",
"155 499 LINE",
"111 493 OFFCURVE",
"68 478 OFFCURVE",
"27 454 CURVE",
"86 378 LINE",
"76 -147 LINE",
"46 -153 OFFCURVE",
"25 -161 OFFCURVE",
"8 -170 CURVE",
"8 -195 LINE"
);
}
);
};
layerId = "A6276F4A-E6AF-40C2-B608-6C22A80D5256";
name = "{82,30}";
paths = (
{
closed = 1;
nodes = (
"146 0 OFFCURVE",
"195 -9 OFFCURVE",
"240 -9 CURVE SMOOTH",
"392 -9 OFFCURVE",
"492 89 OFFCURVE",
"492 254 CURVE SMOOTH",
"492 406 OFFCURVE",
"406 503 OFFCURVE",
"274 497 CURVE",
"227 471 OFFCURVE",
"187 438 OFFCURVE",
"153 401 CURVE",
"154 379 LINE",
"193 408 OFFCURVE",
"232 422 OFFCURVE",
"272 422 CURVE SMOOTH",
"316 422 OFFCURVE",
"361 404 OFFCURVE",
"406 368 CURVE",
"358 414 LINE",
"393 365 OFFCURVE",
"409 305 OFFCURVE",
"409 242 CURVE SMOOTH",
"409 122 OFFCURVE",
"355 54 OFFCURVE",
"246 54 CURVE SMOOTH",
"208 54 OFFCURVE",
"162 62 OFFCURVE",
"110 80 CURVE",
"93 18 LINE"
);
},
{
closed = 1;
nodes = (
"256 -195 LINE",
"256 -169 LINE",
"162 -149 LINE",
"162 397 LINE",
"154 499 LINE",
"110 493 OFFCURVE",
"68 477 OFFCURVE",
"27 454 CURVE",
"85 378 LINE",
"75 -147 LINE",
"46 -153 OFFCURVE",
"22 -162 OFFCURVE",
"8 -170 CURVE",
"8 -195 LINE"
);
}
);
width = 530;
}
);
leftKerningGroup = p;
rightKerningGroup = o;
unicode = 0070;
},
{
color = 4;
glyphname = thorn;
lastChange = "2020-01-24 22:49:27 +0000";
layers = (
{
anchors = (
{
name = bottom;
position = "{112, -188}";
},
{
name = top;
position = "{97, 728}";
}
);
layerId = "0E5388DE-A0E6-4EB4-BC9B-CE5870C9023F";
paths = (
{
closed = 1;
nodes = (
"244 -195 LINE",
"244 -188 LINE",
"127 -169 LINE",
"127 734 LINE",
"100 728 OFFCURVE",
"76 718 OFFCURVE",
"53 704 CURVE",
"102 653 LINE",
"92 -168 LINE",
"55 -172 OFFCURVE",
"31 -180 OFFCURVE",
"11 -187 CURVE",
"11 -195 LINE"
);
},
{
closed = 1;
nodes = (
"146 0 OFFCURVE",
"187 -7 OFFCURVE",
"225 -7 CURVE SMOOTH",
"366 -7 OFFCURVE",
"462 89 OFFCURVE",
"462 246 CURVE SMOOTH",
"462 392 OFFCURVE",
"379 486 OFFCURVE",
"251 486 CURVE",
"202 470 OFFCURVE",
"158 445 OFFCURVE",
"120 414 CURVE",
"120 395 LINE",
"166 435 OFFCURVE",
"213 455 OFFCURVE",
"261 455 CURVE SMOOTH",
"308 455 OFFCURVE",
"357 435 OFFCURVE",
"405 394 CURVE",
"367 435 LINE",
"410 382 OFFCURVE",
"431 320 OFFCURVE",
"431 245 CURVE SMOOTH",
"431 102 OFFCURVE",
"353 19 OFFCURVE",
"228 19 CURVE SMOOTH",
"194 19 OFFCURVE",
"156 25 OFFCURVE",
"116 38 CURVE",
"102 15 LINE"
);
}
);
width = 510;
},
{
anchors = (
{
name = bottom;
position = "{145, -196}";
},
{
name = top;
position = "{143, 769}";
}
);
layerId = "A6FDB8B9-512B-4F31-B986-CD5B604F5662";
paths = (
{
closed = 1;
nodes = (
"293 -196 LINE",
"293 -120 LINE",
"261 -97 LINE",
"260 784 LINE",
"158 781 OFFCURVE",
"68 752 OFFCURVE",
"-14 706 CURVE",
"54 584 LINE",
"40 -92 LINE",
"27 -103 OFFCURVE",
"17 -115 OFFCURVE",
"7 -127 CURVE",
"7 -196 LINE"
);
},
{
closed = 1;
nodes = (
"156 -1 OFFCURVE",
"226 -14 OFFCURVE",
"288 -14 CURVE SMOOTH",
"464 -14 OFFCURVE",
"574 89 OFFCURVE",
"574 273 CURVE SMOOTH",
"574 444 OFFCURVE",
"479 545 OFFCURVE",
"338 524 CURVE",
"301 473 OFFCURVE",
"273 424 OFFCURVE",
"247 367 CURVE",
"249 337 LINE",
"266 341 OFFCURVE",
"282 343 OFFCURVE",
"298 343 CURVE SMOOTH",
"338 343 OFFCURVE",
"375 330 OFFCURVE",
"411 301 CURVE",
"342 360 LINE",
"353 321 OFFCURVE",
"357 273 OFFCURVE",
"357 233 CURVE SMOOTH",
"357 165 OFFCURVE",
"345 131 OFFCURVE",
"295 131 CURVE SMOOTH",
"257 131 OFFCURVE",
"197 150 OFFCURVE",
"105 188 CURVE",
"79 25 LINE"
);
}
);
width = 584;
},
{
anchors = (
{
name = bottom;
position = "{115, -190}";
},
{
name = top;
position = "{104, 740}";
}
);
associatedMasterId = "0E5388DE-A0E6-4EB4-BC9B-CE5870C9023F";
background = {
paths = (
{
closed = 1;
nodes = (
"255 -195 LINE",
"255 -169 LINE",
"160 -149 LINE",
"160 748 LINE",
"109 743 OFFCURVE",
"63 727 OFFCURVE",
"22 703 CURVE",
"82 624 LINE",
"72 -147 LINE",
"42 -153 OFFCURVE",
"22 -161 OFFCURVE",
"4 -170 CURVE",
"4 -195 LINE"
);
},
{
closed = 1;
nodes = (
"323 -61 OFFCURVE",
"492 40 OFFCURVE",
"492 254 CURVE SMOOTH",
"492 407 OFFCURVE",
"405 503 OFFCURVE",
"272 497 CURVE",
"226 471 OFFCURVE",
"185 439 OFFCURVE",
"151 401 CURVE",
"151 379 LINE",
"235 440 OFFCURVE",
"320 437 OFFCURVE",
"405 368 CURVE",
"358 414 LINE",
"392 365 OFFCURVE",
"408 306 OFFCURVE",
"408 242 CURVE SMOOTH",
"408 77 OFFCURVE",
"307 13 OFFCURVE",
"108 80 CURVE",
"90 18 LINE"
);
}
);
};
layerId = "16FCFBB7-3898-48BE-A763-EE506A115AFF";
name = "{82,30}";
paths = (
{
closed = 1;
nodes = (
"253 -195 LINE",
"253 -169 LINE",
"159 -149 LINE",
"159 748 LINE",
"108 743 OFFCURVE",
"63 726 OFFCURVE",
"22 703 CURVE",
"83 624 LINE",
"71 -147 LINE",
"42 -153 OFFCURVE",
"19 -162 OFFCURVE",
"4 -170 CURVE",
"4 -195 LINE"
);
},
{
closed = 1;
nodes = (
"142 0 OFFCURVE",
"192 -9 OFFCURVE",
"237 -9 CURVE SMOOTH",
"388 -9 OFFCURVE",
"488 89 OFFCURVE",
"488 254 CURVE SMOOTH",
"488 406 OFFCURVE",
"402 503 OFFCURVE",
"270 497 CURVE",
"224 471 OFFCURVE",
"184 438 OFFCURVE",
"150 401 CURVE",
"150 379 LINE",
"189 408 OFFCURVE",
"228 422 OFFCURVE",
"268 422 CURVE SMOOTH",
"312 422 OFFCURVE",
"357 404 OFFCURVE",
"402 368 CURVE",
"355 414 LINE",
"389 365 OFFCURVE",
"405 305 OFFCURVE",
"405 242 CURVE SMOOTH",
"405 122 OFFCURVE",
"352 54 OFFCURVE",
"243 54 CURVE SMOOTH",
"205 54 OFFCURVE",
"159 62 OFFCURVE",
"107 80 CURVE",
"89 18 LINE"
);
}
);
width = 525;
}
);
leftKerningGroup = h;
rightKerningGroup = o;
unicode = 00FE;
},
{
color = 4;
glyphname = q;
lastChange = "2020-01-24 22:38:29 +0000";
layers = (
{
anchors = (
{
name = bottom;
position = "{291, 0}";
},
{
name = top;
position = "{291, 516}";
}
);
layerId = "A6FDB8B9-512B-4F31-B986-CD5B604F5662";
paths = (
{
closed = 1;
nodes = (
"281 39 OFFCURVE",
"311 94 OFFCURVE",
"333 149 CURVE",
"333 180 LINE",
"311 175 OFFCURVE",
"294 172 OFFCURVE",
"280 172 CURVE SMOOTH",
"236 172 OFFCURVE",
"226 198 OFFCURVE",
"226 267 CURVE SMOOTH",
"226 326 OFFCURVE",
"234 387 OFFCURVE",
"253 435 CURVE",
"166 385 LINE",
"186 388 OFFCURVE",
"207 390 OFFCURVE",
"227 390 CURVE SMOOTH",
"307 390 OFFCURVE",
"385 364 OFFCURVE",
"461 312 CURVE",
"485 497 LINE",
"416 520 OFFCURVE",
"352 531 OFFCURVE",
"295 531 CURVE SMOOTH",
"120 531 OFFCURVE",
"10 427 OFFCURVE",
"10 244 CURVE SMOOTH",
"10 72 OFFCURVE",
"103 -28 OFFCURVE",
"244 -8 CURVE"
);
},
{
closed = 1;
nodes = (
"586 -196 LINE",
"586 -120 LINE",
"533 -97 LINE",
"533 531 LINE",
"327 473 LINE",
"312 -92 LINE",
"282 -102 OFFCURVE",
"256 -114 OFFCURVE",
"232 -127 CURVE",
"232 -196 LINE"
);
}
);
width = 579;
},
{
anchors = (
{
name = bottom;
position = "{250, 0}";
},
{
name = top;
position = "{260, 478}";
}
);
layerId = "0E5388DE-A0E6-4EB4-BC9B-CE5870C9023F";
paths = (
{
closed = 1;
nodes = (
"305 8 OFFCURVE",
"349 35 OFFCURVE",
"386 64 CURVE",
"386 83 LINE",
"337 43 OFFCURVE",
"287 24 OFFCURVE",
"242 24 CURVE SMOOTH",
"151 24 OFFCURVE",
"80 101 OFFCURVE",
"80 233 CURVE SMOOTH",
"80 305 OFFCURVE",
"99 373 OFFCURVE",
"133 422 CURVE",
"120 409 LINE",
"171 441 OFFCURVE",
"221 457 OFFCURVE",
"279 457 CURVE SMOOTH",
"313 457 OFFCURVE",
"351 451 OFFCURVE",
"393 440 CURVE",
"402 467 LINE",
"361 479 OFFCURVE",
"322 485 OFFCURVE",
"286 485 CURVE SMOOTH",
"142 485 OFFCURVE",
"49 390 OFFCURVE",
"49 232 CURVE SMOOTH",
"49 86 OFFCURVE",
"131 -8 OFFCURVE",
"255 -8 CURVE"
);
},
{
closed = 1;
nodes = (
"477 -195 LINE",
"477 -188 LINE",
"409 -169 LINE",
"409 487 LINE",
"384 467 LINE",
"374 -168 LINE",
"340 -171 OFFCURVE",
"312 -177 OFFCURVE",
"284 -187 CURVE",
"284 -195 LINE"
);
}
);
width = 505;
}
);
leftKerningGroup = o;
rightKerningGroup = q;
unicode = 0071;
},
{
color = 4;
glyphname = r;
lastChange = "2020-01-24 22:49:31 +0000";
layers = (
{
anchors = (
{
name = bottom;
position = "{171, 0}";
},
{
name = top;
position = "{268, 516}";
}
);
layerId = "A6FDB8B9-512B-4F31-B986-CD5B604F5662";
rightMetricsKey = "=5";
paths = (
{
closed = 1;
nodes = (
"458 499 LINE",
"425 518 OFFCURVE",
"387 523 OFFCURVE",
"350 515 CURVE",
"314 464 OFFCURVE",
"287 412 OFFCURVE",
"262 350 CURVE",
"262 330 LINE",
"324 326 OFFCURVE",
"385 313 OFFCURVE",
"445 289 CURVE"
);
},
{
closed = 1;
nodes = (
"378 0 LINE",
"378 76 LINE",
"278 107 LINE",
"278 356 LINE",
"259 531 LINE",
"171 524 OFFCURVE",
"86 498 OFFCURVE",
"4 453 CURVE",
"69 344 LINE",
"57 104 LINE",
"46 95 OFFCURVE",
"35 83 OFFCURVE",
"24 69 CURVE",
"24 0 LINE"
);
}
);
width = 463;
},
{
anchors = (
{
name = bottom;
position = "{122, 0}";
},
{
name = top;
position = "{195, 478}";
}
);
layerId = "0E5388DE-A0E6-4EB4-BC9B-CE5870C9023F";
rightMetricsKey = "=15";
paths = (
{
closed = 1;
nodes = (
"327 464 LINE",
"312 474 OFFCURVE",
"297 481 OFFCURVE",
"277 485 CURVE",
"227 466 OFFCURVE",
"181 439 OFFCURVE",
"139 400 CURVE",
"139 384 LINE",
"196 428 OFFCURVE",
"258 452 OFFCURVE",
"325 456 CURVE"
);
},
{
closed = 1;
nodes = (
"256 0 LINE",
"256 7 LINE",
"142 26 LINE",
"142 396 LINE",
"138 487 LINE",
"114 481 OFFCURVE",
"90 471 OFFCURVE",
"68 457 CURVE",
"116 406 LINE",
"107 27 LINE",
"70 23 OFFCURVE",
"46 16 OFFCURVE",
"25 8 CURVE",
"25 0 LINE"
);
}
);
width = 342;
},
{
anchors = (
{
name = bottom;
position = "{136, 0}";
},
{
name = top;
position = "{216, 489}";
}
);
associatedMasterId = "0E5388DE-A0E6-4EB4-BC9B-CE5870C9023F";
background = {
paths = (
{
closed = 1;
nodes = (
"358 474 LINE",
"338 486 OFFCURVE",
"316 493 OFFCURVE",
"292 493 CURVE",
"246 465 OFFCURVE",
"205 431 OFFCURVE",
"168 386 CURVE",
"168 369 LINE",
"226 402 OFFCURVE",
"287 417 OFFCURVE",
"353 412 CURVE"
);
},
{
closed = 1;
nodes = (
"284 0 LINE",
"284 27 LINE",
"174 49 LINE",
"174 385 LINE",
"166 499 LINE",
"124 493 OFFCURVE",
"83 479 OFFCURVE",
"44 456 CURVE",
"97 388 LINE",
"87 49 LINE",
"57 43 OFFCURVE",
"37 35 OFFCURVE",
"19 25 CURVE",
"19 0 LINE"
);
}
);
};
layerId = "30C9E967-A076-469D-88AF-843D024E2A92";
name = "{82,30}";
paths = (
{
closed = 1;
nodes = (
"358 474 LINE",
"338 486 OFFCURVE",
"316 493 OFFCURVE",
"292 493 CURVE",
"246 465 OFFCURVE",
"205 431 OFFCURVE",
"168 386 CURVE",
"168 369 LINE",
"226 399 OFFCURVE",
"288 413 OFFCURVE",
"353 409 CURVE"
);
},
{
closed = 1;
nodes = (
"285 0 LINE",
"285 27 LINE",
"175 49 LINE",
"175 385 LINE",
"166 499 LINE",
"122 493 OFFCURVE",
"79 478 OFFCURVE",
"38 454 CURVE",
"97 378 LINE",
"87 49 LINE",
"57 43 OFFCURVE",
"37 34 OFFCURVE",
"19 25 CURVE",
"19 0 LINE"
);
}
);
width = 367;
}
);
leftKerningGroup = n;
rightKerningGroup = r;
unicode = 0072;
},
{
color = 4;
glyphname = s;
lastChange = "2020-01-24 22:49:34 +0000";
layers = (
{
anchors = (
{
name = bottom;
position = "{261, 0}";
},
{
name = top;
position = "{261, 516}";
}
);
layerId = "A6FDB8B9-512B-4F31-B986-CD5B604F5662";
paths = (
{
closed = 1;
nodes = (
"105 4 OFFCURVE",
"177 -6 OFFCURVE",
"241 -6 CURVE SMOOTH",
"399 -6 OFFCURVE",
"502 55 OFFCURVE",
"502 160 CURVE SMOOTH",
"502 330 OFFCURVE",
"213 354 OFFCURVE",
"213 395 CURVE SMOOTH",
"213 397 OFFCURVE",
"213 398 OFFCURVE",
"214 400 CURVE",
"222 402 OFFCURVE",
"232 402 OFFCURVE",
"244 402 CURVE SMOOTH",
"298 402 OFFCURVE",
"383 386 OFFCURVE",
"426 361 CURVE",
"483 505 LINE",
"414 521 OFFCURVE",
"349 529 OFFCURVE",
"292 529 CURVE SMOOTH",
"134 529 OFFCURVE",
"32 469 OFFCURVE",
"32 363 CURVE SMOOTH",
"32 193 OFFCURVE",
"320 169 OFFCURVE",
"320 128 CURVE SMOOTH",
"320 126 OFFCURVE",
"320 125 OFFCURVE",
"319 123 CURVE",
"311 121 OFFCURVE",
"301 121 OFFCURVE",
"290 121 CURVE SMOOTH",
"237 121 OFFCURVE",
"153 137 OFFCURVE",
"109 162 CURVE",
"26 25 LINE"
);
},
{
closed = 1;
nodes = (
"124 201 LINE",
"30 201 LINE",
"26 25 LINE",
"215 22 LINE"
);
},
{
closed = 1;
nodes = (
"480 336 LINE",
"483 505 LINE",
"298 508 LINE",
"387 336 LINE"
);
}
);
width = 520;
},
{
anchors = (
{
name = bottom;
position = "{219, 0}";
},
{
name = top;
position = "{219, 478}";
}
);
layerId = "0E5388DE-A0E6-4EB4-BC9B-CE5870C9023F";
paths = (
{
closed = 1;
nodes = (
"108 -1 OFFCURVE",
"152 -7 OFFCURVE",
"192 -7 CURVE SMOOTH",
"300 -7 OFFCURVE",
"378 38 OFFCURVE",
"378 112 CURVE SMOOTH",
"378 254 OFFCURVE",
"103 250 OFFCURVE",
"103 376 CURVE SMOOTH",
"103 407 OFFCURVE",
"119 437 OFFCURVE",
"146 452 CURVE",
"166 454 OFFCURVE",
"185 455 OFFCURVE",
"204 455 CURVE SMOOTH",
"252 455 OFFCURVE",
"297 449 OFFCURVE",
"353 436 CURVE",
"360 469 LINE",
"320 480 OFFCURVE",
"282 485 OFFCURVE",
"247 485 CURVE SMOOTH",
"145 485 OFFCURVE",
"74 441 OFFCURVE",
"74 368 CURVE SMOOTH",
"74 221 OFFCURVE",
"350 220 OFFCURVE",
"350 105 CURVE SMOOTH",
"350 77 OFFCURVE",
"330 39 OFFCURVE",
"298 24 CURVE",
"281 23 OFFCURVE",
"264 22 OFFCURVE",
"248 22 CURVE SMOOTH",
"188 22 OFFCURVE",
"133 29 OFFCURVE",
"72 42 CURVE",
"62 12 LINE"
);
},
{
closed = 1;
nodes = (
"74 151 LINE",
"66 151 LINE",
"62 12 LINE",
"98 12 LINE"
);
},
{
closed = 1;
nodes = (
"358 340 LINE",
"360 469 LINE",
"325 469 LINE",
"350 340 LINE"
);
}
);
width = 436;
},
{
anchors = (
{
name = bottom;
position = "{234, 0}";
},
{
name = top;
position = "{234, 491}";
}
);
associatedMasterId = "0E5388DE-A0E6-4EB4-BC9B-CE5870C9023F";
background = {
paths = (
{
closed = 1;
nodes = (
"254 -39 OFFCURVE",
"420 10 OFFCURVE",
"420 128 CURVE SMOOTH",
"420 278 OFFCURVE",
"140 284 OFFCURVE",
"140 382 CURVE SMOOTH",
"140 405 OFFCURVE",
"153 425 OFFCURVE",
"169 435 CURVE",
"232 442 OFFCURVE",
"309 433 OFFCURVE",
"379 412 CURVE",
"402 481 LINE",
"211 529 OFFCURVE",
"62 480 OFFCURVE",
"62 367 CURVE SMOOTH",
"62 212 OFFCURVE",
"342 204 OFFCURVE",
"342 113 CURVE SMOOTH",
"342 93 OFFCURVE",
"329 67 OFFCURVE",
"308 56 CURVE",
"239 50 OFFCURVE",
"156 61 OFFCURVE",
"86 81 CURVE",
"52 17 LINE"
);
},
{
closed = 1;
nodes = (
"92 167 LINE",
"56 167 LINE",
"52 17 LINE",
"138 15 LINE"
);
},
{
closed = 1;
nodes = (
"400 339 LINE",
"402 481 LINE",
"318 482 LINE",
"364 339 LINE"
);
}
);
};
layerId = "E75B7203-6820-4479-A4D9-8E5D055CBC35";
name = "{82,30}";
paths = (
{
closed = 1;
nodes = (
"108 1 OFFCURVE",
"162 -6 OFFCURVE",
"210 -6 CURVE SMOOTH",
"333 -6 OFFCURVE",
"420 43 OFFCURVE",
"420 128 CURVE SMOOTH",
"420 278 OFFCURVE",
"140 284 OFFCURVE",
"140 382 CURVE SMOOTH",
"140 402 OFFCURVE",
"150 423 OFFCURVE",
"170 435 CURVE",
"184 437 OFFCURVE",
"199 437 OFFCURVE",
"214 437 CURVE SMOOTH",
"266 437 OFFCURVE",
"325 428 OFFCURVE",
"379 412 CURVE",
"402 481 LINE",
"353 493 OFFCURVE",
"306 499 OFFCURVE",
"264 499 CURVE SMOOTH",
"144 499 OFFCURVE",
"62 451 OFFCURVE",
"62 367 CURVE SMOOTH",
"62 212 OFFCURVE",
"342 204 OFFCURVE",
"342 113 CURVE SMOOTH",
"342 93 OFFCURVE",
"328 67 OFFCURVE",
"306 56 CURVE",
"293 55 OFFCURVE",
"280 54 OFFCURVE",
"267 54 CURVE SMOOTH",
"208 54 OFFCURVE",
"142 65 OFFCURVE",
"85 81 CURVE",
"52 17 LINE"
);
},
{
closed = 1;
nodes = (
"92 167 LINE",
"56 167 LINE",
"52 17 LINE",
"138 15 LINE"
);
},
{
closed = 1;
nodes = (
"399 339 LINE",
"402 481 LINE",
"317 482 LINE",
"363 339 LINE"
);
}
);
width = 467;
}
);
leftKerningGroup = s;
rightKerningGroup = s;
unicode = 0073;
},
{
color = 4;
glyphname = scaron;
lastChange = "2020-01-24 22:38:29 +0000";
layers = (
{
anchors = (
{
name = top;
position = "{219, 674}";
}
);
components = (
{
name = s;
}
);
layerId = "0E5388DE-A0E6-4EB4-BC9B-CE5870C9023F";
paths = (
{
closed = 1;
nodes = (
"226 581 LINE",
"329 672 LINE",
"318 684 LINE",
"221 610 LINE",
"122 684 LINE",
"111 672 LINE",
"214 581 LINE"
);
}
);
width = 436;
},
{
anchors = (
{
name = top;
position = "{261, 777}";
}
);
components = (
{
name = s;
}
);
layerId = "A6FDB8B9-512B-4F31-B986-CD5B604F5662";
paths = (
{
closed = 1;
nodes = (
"331 581 LINE",
"469 753 LINE",
"391 827 LINE",
"260 725 LINE",
"130 827 LINE",
"52 753 LINE",
"189 581 LINE"
);
}
);
width = 520;
}
);
leftKerningGroup = s;
rightKerningGroup = s;
unicode = 0161;
},
{
color = 4;
glyphname = germandbls;
lastChange = "2020-01-24 22:38:29 +0000";
layers = (
{
anchors = (
{
name = bottom;
position = "{293, 0}";
},
{
name = top;
position = "{293, 725}";
}
);
layerId = "0E5388DE-A0E6-4EB4-BC9B-CE5870C9023F";
paths = (
{
closed = 1;
nodes = (
"427 -37 OFFCURVE",
"572 11 OFFCURVE",
"572 113 CURVE SMOOTH",
"572 249 OFFCURVE",
"329 264 OFFCURVE",
"329 370 CURVE SMOOTH",
"329 457 OFFCURVE",
"486 478 OFFCURVE",
"486 599 CURVE SMOOTH",
"486 679 OFFCURVE",
"416 733 OFFCURVE",
"307 733 CURVE SMOOTH",
"175 733 OFFCURVE",
"122 660 OFFCURVE",
"122 478 CURVE",
"89 477 OFFCURVE",
"63 471 OFFCURVE",
"36 460 CURVE",
"36 452 LINE",
"151 452 LINE",
"151 584 OFFCURVE",
"165 661 OFFCURVE",
"195 690 CURVE",
"237 698 OFFCURVE",
"274 702 OFFCURVE",
"306 702 CURVE SMOOTH",
"403 702 OFFCURVE",
"456 667 OFFCURVE",
"456 599 CURVE SMOOTH",
"456 490 OFFCURVE",
"298 469 OFFCURVE",
"298 370 CURVE SMOOTH",
"298 233 OFFCURVE",
"542 215 OFFCURVE",
"542 106 CURVE SMOOTH",
"542 73 OFFCURVE",
"520 38 OFFCURVE",
"489 24 CURVE",
"407 19 OFFCURVE",
"352 23 OFFCURVE",
"278 39 CURVE",
"269 12 LINE"
);
},
{
closed = 1;
nodes = (
"151 0 LINE",
"151 452 LINE",
"123 452 LINE",
"116 27 LINE",
"91 24 OFFCURVE",
"68 18 OFFCURVE",
"44 8 CURVE",
"44 0 LINE"
);
},
{
closed = 1;
nodes = (
"281 147 LINE",
"273 147 LINE",
"269 12 LINE",
"306 12 LINE"
);
}
);
width = 597;
},
{
anchors = (
{
name = bottom;
position = "{382, 0}";
},
{
name = top;
position = "{435, 769}";
}
);
layerId = "A6FDB8B9-512B-4F31-B986-CD5B604F5662";
paths = (
{
closed = 1;
nodes = (
"552 -52 OFFCURVE",
"747 14 OFFCURVE",
"747 165 CURVE SMOOTH",
"747 320 OFFCURVE",
"545 345 OFFCURVE",
"545 396 CURVE SMOOTH",
"545 437 OFFCURVE",
"672 486 OFFCURVE",
"672 603 CURVE SMOOTH",
"672 709 OFFCURVE",
"576 778 OFFCURVE",
"421 778 CURVE SMOOTH",
"249 778 OFFCURVE",
"113 671 OFFCURVE",
"80 511 CURVE",
"50 495 OFFCURVE",
"23 470 OFFCURVE",
"3 438 CURVE",
"3 400 LINE",
"290 400 LINE",
"290 510 OFFCURVE",
"291 565 OFFCURVE",
"294 610 CURVE",
"320 614 OFFCURVE",
"344 615 OFFCURVE",
"365 615 CURVE SMOOTH",
"438 615 OFFCURVE",
"478 594 OFFCURVE",
"478 555 CURVE SMOOTH",
"478 490 OFFCURVE",
"356 481 OFFCURVE",
"356 367 CURVE SMOOTH",
"356 219 OFFCURVE",
"562 189 OFFCURVE",
"562 131 CURVE SMOOTH",
"562 126 OFFCURVE",
"561 122 OFFCURVE",
"559 120 CURVE",
"491 122 OFFCURVE",
"436 130 OFFCURVE",
"370 146 CURVE",
"322 22 LINE"
);
},
{
closed = 1;
nodes = (
"290 0 LINE",
"290 400 LINE",
"77 400 LINE",
"69 104 LINE",
"47 92 OFFCURVE",
"29 80 OFFCURVE",
"16 69 CURVE",
"16 0 LINE"
);
},
{
closed = 1;
nodes = (
"406 200 LINE",
"325 200 LINE",
"322 22 LINE",
"490 19 LINE"
);
}
);
width = 747;
}
);
leftKerningGroup = f;
unicode = 00DF;
},
{
color = 4;
glyphname = t;
lastChange = "2020-01-24 22:38:29 +0000";
layers = (
{
anchors = (
{
name = bottom;
position = "{205, 0}";
},
{
name = center;
position = "{187, 277}";
},
{
name = top;
position = "{197, 516}";
},
{
name = topright;
position = "{385, 769}";
}
);
layerId = "A6FDB8B9-512B-4F31-B986-CD5B604F5662";
rightMetricsKey = "=-7";
paths = (
{
closed = 1;
nodes = (
"160 604 OFFCURVE",
"58 527 OFFCURVE",
"-11 438 CURVE",
"-11 400 LINE",
"67 400 LINE",
"50 75 LINE",
"89 14 OFFCURVE",
"150 -14 OFFCURVE",
"211 -14 CURVE SMOOTH",
"298 -14 OFFCURVE",
"385 44 OFFCURVE",
"405 148 CURVE",
"273 143 LINE",
"273 400 LINE",
"392 400 LINE",
"402 511 LINE",
"273 511 LINE",
"273 652 LINE"
);
}
);
width = 398;
},
{
anchors = (
{
name = bottom;
position = "{177, 0}";
},
{
name = center;
position = "{165, 265}";
},
{
name = top;
position = "{152, 478}";
},
{
name = topright;
position = "{222, 681}";
}
);
layerId = "0E5388DE-A0E6-4EB4-BC9B-CE5870C9023F";
rightMetricsKey = "=18";
paths = (
{
closed = 1;
nodes = (
"95 515 OFFCURVE",
"66 490 OFFCURVE",
"36 462 CURVE",
"36 452 LINE",
"107 452 LINE",
"96 52 LINE",
"109 13 OFFCURVE",
"152 -7 OFFCURVE",
"200 -7 CURVE SMOOTH",
"240 -7 OFFCURVE",
"282 7 OFFCURVE",
"313 36 CURVE",
"131 35 LINE",
"131 452 LINE",
"312 452 LINE",
"315 478 LINE",
"131 478 LINE",
"131 541 LINE"
);
}
);
width = 333;
}
);
leftKerningGroup = t;
rightKerningGroup = t;
unicode = 0074;
},
